{
copyright = "Copyright (c) 2015, Cadson Demak (info@cadsondemak.com)";
customParameters = (
{
name = vendorID;
value = CDK;
},
{
name = description;
value = "Copyright (c) 2015, Cadson Demak (info@cadsondemak.com)";
},
{
name = license;

glyphs = (
{
glyphname = A;
lastChange = "2015-07-20 19:06:27 +0000";
layers = (
{
layerId = "F84B2E81-E30C-4BCF-B175-C3D49BDC99D5";
name = Light;
paths = (
{
closed = 1;
nodes = (
"97 67 OFFCURVE",
"122 153 OFFCURVE",
"143 221 CURVE",
"425 221 LINE",
"446 153 OFFCURVE",
"471 67 OFFCURVE",
"489 0 CURVE",
"521 6 LINE",
"465 205 OFFCURVE",
"397 429 OFFCURVE",
"330 610 CURVE",
"238 610 LINE",
"171 429 OFFCURVE",
"103 205 OFFCURVE",
"47 6 CURVE",
"79 0 LINE"
);
},
{
closed = 1;
nodes = (
"185 358 OFFCURVE",
"232 506 OFFCURVE",
"260 579 CURVE",
"308 579 LINE",
"336 506 OFFCURVE",
"383 358 OFFCURVE",
"415 251 CURVE",
"153 251 LINE"
);
}
);
width = 568;
}
);
leftKerningGroup = A;
rightKerningGroup = A;
unicode = 0041;
},
{
glyphname = Aacute;
lastChange = "2015-07-20 17:30:40 +0000";
layers = (
{
layerId = "F84B2E81-E30C-4BCF-B175-C3D49BDC99D5";
name = Light;
paths = (
{
closed = 1;
nodes = (
"401 854 LINE",
"356 859 LINE",
"272 720 LINE",
"291 716 LINE"
);
},
{
closed = 1;
nodes = (
"97 67 OFFCURVE",
"122 153 OFFCURVE",
"143 221 CURVE",
"425 221 LINE",
"446 153 OFFCURVE",
"471 67 OFFCURVE",
"489 0 CURVE",
"521 6 LINE",
"465 205 OFFCURVE",
"397 429 OFFCURVE",
"330 610 CURVE",
"238 610 LINE",
"171 429 OFFCURVE",
"103 205 OFFCURVE",
"47 6 CURVE",
"79 0 LINE"
);
},
{
closed = 1;
nodes = (
"185 358 OFFCURVE",
"232 506 OFFCURVE",
"260 579 CURVE",
"308 579 LINE",
"336 506 OFFCURVE",
"383 358 OFFCURVE",
"415 251 CURVE",
"153 251 LINE"
);
}
);
width = 568;
}
);
leftKerningGroup = A;
note = Aacute;
rightKerningGroup = A;
unicode = 00C1;
},
{
glyphname = Abreve;
lastChange = "2015-07-20 17:30:56 +0000";
layers = (
{
layerId = "F84B2E81-E30C-4BCF-B175-C3D49BDC99D5";
name = Light;
paths = (
{
closed = 1;
nodes = (
"358 716 OFFCURVE",
"389 760 OFFCURVE",
"401 812 CURVE",
"368 818 LINE",
"359 776 OFFCURVE",
"341 745 OFFCURVE",
"284 745 CURVE SMOOTH",
"227 745 OFFCURVE",
"209 776 OFFCURVE",
"200 818 CURVE",
"167 812 LINE",
"179 760 OFFCURVE",
"210 716 OFFCURVE",
"284 716 CURVE SMOOTH"
);
},
{
closed = 1;
nodes = (
"97 67 OFFCURVE",
"122 153 OFFCURVE",
"143 221 CURVE",
"425 221 LINE",
"446 153 OFFCURVE",
"471 67 OFFCURVE",
"489 0 CURVE",
"521 6 LINE",
"465 205 OFFCURVE",
"397 429 OFFCURVE",
"330 610 CURVE",
"238 610 LINE",
"171 429 OFFCURVE",
"103 205 OFFCURVE",
"47 6 CURVE",
"79 0 LINE"
);
},
{
closed = 1;
nodes = (
"185 358 OFFCURVE",
"232 506 OFFCURVE",
"260 579 CURVE",
"308 579 LINE",
"336 506 OFFCURVE",
"383 358 OFFCURVE",
"415 251 CURVE",
"153 251 LINE"
);
}
);
width = 568;
}
);
leftKerningGroup = A;
note = Abreve;
rightKerningGroup = A;
unicode = 0102;
},
{
glyphname = Abreveacute;
lastChange = "2015-07-20 17:30:04 +0000";
layers = (
{
layerId = "F84B2E81-E30C-4BCF-B175-C3D49BDC99D5";
name = Light;
paths = (
{
closed = 1;
nodes = (
"97 67 OFFCURVE",
"122 153 OFFCURVE",
"143 221 CURVE",
"425 221 LINE",
"446 153 OFFCURVE",
"471 67 OFFCURVE",
"489 0 CURVE",
"521 6 LINE",
"465 205 OFFCURVE",
"397 429 OFFCURVE",
"330 610 CURVE",
"238 610 LINE",
"171 429 OFFCURVE",
"103 205 OFFCURVE",
"47 6 CURVE",
"79 0 LINE"
);
},
{
closed = 1;
nodes = (
"185 358 OFFCURVE",
"232 506 OFFCURVE",
"260 579 CURVE",
"308 579 LINE",
"336 506 OFFCURVE",
"383 358 OFFCURVE",
"415 251 CURVE",
"153 251 LINE"
);
},
{
closed = 1;
nodes = (
"358 716 OFFCURVE",
"389 760 OFFCURVE",
"401 812 CURVE",
"368 818 LINE",
"359 776 OFFCURVE",
"341 745 OFFCURVE",
"284 745 CURVE SMOOTH",
"227 745 OFFCURVE",
"209 776 OFFCURVE",
"200 818 CURVE",
"167 812 LINE",
"179 760 OFFCURVE",
"210 716 OFFCURVE",
"284 716 CURVE SMOOTH"
);
},
{
closed = 1;
nodes = (
"367 958 LINE",
"330 965 LINE",
"268 863 LINE",
"287 859 LINE"
);
}
);
width = 568;
}
);
leftKerningGroup = A;
note = Abreveacute;
rightKerningGroup = A;
unicode = 1EAE;
},
{
glyphname = Abrevedotbelow;
lastChange = "2015-07-20 17:30:04 +0000";
layers = (
{
layerId = "F84B2E81-E30C-4BCF-B175-C3D49BDC99D5";
name = Light;
paths = (
{
closed = 1;
nodes = (
"97 67 OFFCURVE",
"122 153 OFFCURVE",
"143 221 CURVE",
"425 221 LINE",
"446 153 OFFCURVE",
"471 67 OFFCURVE",
"489 0 CURVE",
"521 6 LINE",
"465 205 OFFCURVE",
"397 429 OFFCURVE",
"330 610 CURVE",
"238 610 LINE",
"171 429 OFFCURVE",
"103 205 OFFCURVE",
"47 6 CURVE",
"79 0 LINE"
);
},
{
closed = 1;
nodes = (
"308 -142 OFFCURVE",
"321 -130 OFFCURVE",
"321 -108 CURVE SMOOTH",
"321 -84 OFFCURVE",
"308 -72 OFFCURVE",
"285 -72 CURVE SMOOTH",
"262 -72 OFFCURVE",
"248 -84 OFFCURVE",
"248 -108 CURVE SMOOTH",
"248 -130 OFFCURVE",
"262 -142 OFFCURVE",
"285 -142 CURVE SMOOTH"
);
},
{
closed = 1;
nodes = (
"185 358 OFFCURVE",
"232 506 OFFCURVE",
"260 579 CURVE",
"308 579 LINE",
"336 506 OFFCURVE",
"383 358 OFFCURVE",
"415 251 CURVE",
"153 251 LINE"
);
},
{
closed = 1;
nodes = (
"358 716 OFFCURVE",
"389 760 OFFCURVE",
"401 812 CURVE",
"368 818 LINE",
"359 776 OFFCURVE",
"341 745 OFFCURVE",
"284 745 CURVE SMOOTH",
"227 745 OFFCURVE",
"209 776 OFFCURVE",
"200 818 CURVE",
"167 812 LINE",
"179 760 OFFCURVE",
"210 716 OFFCURVE",
"284 716 CURVE SMOOTH"
);
}
);
width = 568;
}
);
leftKerningGroup = A;
note = Abrevedotbelow;
rightKerningGroup = A;
unicode = 1EB6;
},
{
glyphname = Abrevegrave;
lastChange = "2015-07-20 17:30:04 +0000";
layers = (
{
layerId = "F84B2E81-E30C-4BCF-B175-C3D49BDC99D5";
name = Light;
paths = (
{
closed = 1;
nodes = (
"97 67 OFFCURVE",
"122 153 OFFCURVE",
"143 221 CURVE",
"425 221 LINE",
"446 153 OFFCURVE",
"471 67 OFFCURVE",
"489 0 CURVE",
"521 6 LINE",
"465 205 OFFCURVE",
"397 429 OFFCURVE",
"330 610 CURVE",
"238 610 LINE",
"171 429 OFFCURVE",
"103 205 OFFCURVE",
"47 6 CURVE",
"79 0 LINE"
);
},
{
closed = 1;
nodes = (
"185 358 OFFCURVE",
"232 506 OFFCURVE",
"260 579 CURVE",
"308 579 LINE",
"336 506 OFFCURVE",
"383 358 OFFCURVE",
"415 251 CURVE",
"153 251 LINE"
);
},
{
closed = 1;
nodes = (
"357 716 OFFCURVE",
"388 760 OFFCURVE",
"400 812 CURVE",
"367 818 LINE",
"358 776 OFFCURVE",
"340 745 OFFCURVE",
"283 745 CURVE SMOOTH",
"226 745 OFFCURVE",
"208 776 OFFCURVE",
"199 818 CURVE",
"166 812 LINE",
"178 760 OFFCURVE",
"209 716 OFFCURVE",
"283 716 CURVE SMOOTH"
);
},
{
closed = 1;
nodes = (
"299 863 LINE",
"237 965 LINE",
"200 958 LINE",
"280 859 LINE"
);
}
);
width = 568;
}
);
leftKerningGroup = A;
note = Abrevegrave;
rightKerningGroup = A;
unicode = 1EB0;
},
{
glyphname = Abrevehookabove;
lastChange = "2015-07-20 17:30:04 +0000";
layers = (
{
layerId = "F84B2E81-E30C-4BCF-B175-C3D49BDC99D5";
name = Light;
paths = (
{
closed = 1;
nodes = (
"97 67 OFFCURVE",
"122 153 OFFCURVE",
"143 221 CURVE",
"425 221 LINE",
"446 153 OFFCURVE",
"471 67 OFFCURVE",
"489 0 CURVE",
"521 6 LINE",
"465 205 OFFCURVE",
"397 429 OFFCURVE",
"330 610 CURVE",
"238 610 LINE",
"171 429 OFFCURVE",
"103 205 OFFCURVE",
"47 6 CURVE",
"79 0 LINE"
);
},
{
closed = 1;
nodes = (
"185 358 OFFCURVE",
"232 506 OFFCURVE",
"260 579 CURVE",
"308 579 LINE",
"336 506 OFFCURVE",
"383 358 OFFCURVE",
"415 251 CURVE",
"153 251 LINE"
);
},
{
closed = 1;
nodes = (
"357 716 OFFCURVE",
"388 760 OFFCURVE",
"400 812 CURVE",
"367 818 LINE",
"358 776 OFFCURVE",
"340 745 OFFCURVE",
"283 745 CURVE SMOOTH",
"226 745 OFFCURVE",
"208 776 OFFCURVE",
"199 818 CURVE",
"166 812 LINE",
"178 760 OFFCURVE",
"209 716 OFFCURVE",
"283 716 CURVE SMOOTH"
);
},
{
closed = 1;
nodes = (
"292 844 LINE",
"292 882 LINE",
"331 884 OFFCURVE",
"354 900 OFFCURVE",
"354 932 CURVE SMOOTH",
"354 963 OFFCURVE",
"335 984 OFFCURVE",
"298 984 CURVE SMOOTH",
"281 984 OFFCURVE",
"268 981 OFFCURVE",
"251 975 CURVE",
"257 953 LINE",
"270 957 OFFCURVE",
"281 959 OFFCURVE",
"294 959 CURVE SMOOTH",
"317 959 OFFCURVE",
"328 952 OFFCURVE",
"328 932 CURVE SMOOTH",
"328 911 OFFCURVE",
"314 904 OFFCURVE",
"266 904 CURVE",
"266 887 LINE",
"274 844 LINE"
);
}
);
width = 568;
}
);
leftKerningGroup = A;
note = Abrevehookabove;
rightKerningGroup = A;
unicode = 1EB2;
},
{
glyphname = Abrevetilde;
lastChange = "2015-07-20 17:30:04 +0000";
layers = (
{
layerId = "F84B2E81-E30C-4BCF-B175-C3D49BDC99D5";
name = Light;
paths = (
{
closed = 1;
nodes = (
"97 67 OFFCURVE",
"122 153 OFFCURVE",
"143 221 CURVE",
"425 221 LINE",
"446 153 OFFCURVE",
"471 67 OFFCURVE",
"489 0 CURVE",
"521 6 LINE",
"465 205 OFFCURVE",
"397 429 OFFCURVE",
"330 610 CURVE",
"238 610 LINE",
"171 429 OFFCURVE",
"103 205 OFFCURVE",
"47 6 CURVE",
"79 0 LINE"
);
},
{
closed = 1;
nodes = (
"185 358 OFFCURVE",
"232 506 OFFCURVE",
"260 579 CURVE",
"308 579 LINE",
"336 506 OFFCURVE",
"383 358 OFFCURVE",
"415 251 CURVE",
"153 251 LINE"
);
},
{
closed = 1;
nodes = (
"358 716 OFFCURVE",
"389 760 OFFCURVE",
"401 812 CURVE",
"368 818 LINE",
"359 776 OFFCURVE",
"341 745 OFFCURVE",
"284 745 CURVE SMOOTH",
"227 745 OFFCURVE",
"209 776 OFFCURVE",
"200 818 CURVE",
"167 812 LINE",
"179 760 OFFCURVE",
"210 716 OFFCURVE",
"284 716 CURVE SMOOTH"
);
},
{
closed = 1;
nodes = (
"203 911 OFFCURVE",
"217 921 OFFCURVE",
"243 921 CURVE SMOOTH",
"279 921 OFFCURVE",
"290 888 OFFCURVE",
"334 888 CURVE SMOOTH",
"362 888 OFFCURVE",
"386 904 OFFCURVE",
"394 946 CURVE",
"375 951 LINE",
"368 924 OFFCURVE",
"354 914 OFFCURVE",
"328 914 CURVE SMOOTH",
"301 914 OFFCURVE",
"288 947 OFFCURVE",
"237 947 CURVE SMOOTH",
"209 947 OFFCURVE",
"185 931 OFFCURVE",
"177 889 CURVE",
"196 884 LINE"
);
}
);
width = 568;
}
);
leftKerningGroup = A;
note = Abrevetilde;
rightKerningGroup = A;
unicode = 1EB4;
},
{
glyphname = Acaron;
lastChange = "2015-07-20 17:30:04 +0000";
layers = (
{
layerId = "F84B2E81-E30C-4BCF-B175-C3D49BDC99D5";
name = Light;
paths = (
{
closed = 1;
nodes = (
"97 67 OFFCURVE",
"122 153 OFFCURVE",
"143 221 CURVE",
"425 221 LINE",
"446 153 OFFCURVE",
"471 67 OFFCURVE",
"489 0 CURVE",
"521 6 LINE",
"465 205 OFFCURVE",
"397 429 OFFCURVE",
"330 610 CURVE",
"238 610 LINE",
"171 429 OFFCURVE",
"103 205 OFFCURVE",
"47 6 CURVE",
"79 0 LINE"
);
},
{
closed = 1;
nodes = (
"185 358 OFFCURVE",
"232 506 OFFCURVE",
"260 579 CURVE",
"308 579 LINE",
"336 506 OFFCURVE",
"383 358 OFFCURVE",
"415 251 CURVE",
"153 251 LINE"
);
},
{
closed = 1;
nodes = (
"303 721 LINE",
"406 852 LINE",
"384 857 LINE",
"287 750 LINE",
"281 750 LINE",
"184 857 LINE",
"162 852 LINE",
"265 721 LINE"
);
}
);
width = 568;
}
);
leftKerningGroup = A;
note = Acaron;
rightKerningGroup = A;
unicode = 01CD;
},
{
glyphname = Acircumflex;
lastChange = "2015-07-20 17:30:56 +0000";
layers = (
{
layerId = "F84B2E81-E30C-4BCF-B175-C3D49BDC99D5";
name = Light;
paths = (
{
closed = 1;
nodes = (
"281 823 LINE",
"287 823 LINE",
"384 716 LINE",
"406 721 LINE",
"303 852 LINE",
"265 852 LINE",
"162 721 LINE",
"184 716 LINE"
);
},
{
closed = 1;
nodes = (
"97 67 OFFCURVE",
"122 153 OFFCURVE",
"143 221 CURVE",
"425 221 LINE",
"446 153 OFFCURVE",
"471 67 OFFCURVE",
"489 0 CURVE",
"521 6 LINE",
"465 205 OFFCURVE",
"397 429 OFFCURVE",
"330 610 CURVE",
"238 610 LINE",
"171 429 OFFCURVE",
"103 205 OFFCURVE",
"47 6 CURVE",
"79 0 LINE"
);
},
{
closed = 1;
nodes = (
"185 358 OFFCURVE",
"232 506 OFFCURVE",
"260 579 CURVE",
"308 579 LINE",
"336 506 OFFCURVE",
"383 358 OFFCURVE",
"415 251 CURVE",
"153 251 LINE"
);
}
);
width = 568;
}
);
leftKerningGroup = A;
note = Acircumflex;
rightKerningGroup = A;
unicode = 00C2;
},
{
glyphname = Acircumflexacute;
lastChange = "2015-07-20 17:30:04 +0000";
layers = (
{
layerId = "F84B2E81-E30C-4BCF-B175-C3D49BDC99D5";
name = Light;
paths = (
{
closed = 1;
nodes = (
"97 67 OFFCURVE",
"122 153 OFFCURVE",
"143 221 CURVE",
"425 221 LINE",
"446 153 OFFCURVE",
"471 67 OFFCURVE",
"489 0 CURVE",
"521 6 LINE",
"465 205 OFFCURVE",
"397 429 OFFCURVE",
"330 610 CURVE",
"238 610 LINE",
"171 429 OFFCURVE",
"103 205 OFFCURVE",
"47 6 CURVE",
"79 0 LINE"
);
},
{
closed = 1;
nodes = (
"185 358 OFFCURVE",
"232 506 OFFCURVE",
"260 579 CURVE",
"308 579 LINE",
"336 506 OFFCURVE",
"383 358 OFFCURVE",
"415 251 CURVE",
"153 251 LINE"
);
},
{
closed = 1;
nodes = (
"281 823 LINE",
"287 823 LINE",
"384 716 LINE",
"406 721 LINE",
"303 852 LINE",
"265 852 LINE",
"162 721 LINE",
"184 716 LINE"
);
},
{
closed = 1;
nodes = (
"516 903 LINE",
"479 910 LINE",
"417 808 LINE",
"436 804 LINE"
);
}
);
width = 568;
}
);
leftKerningGroup = A;
note = Acircumflexacute;
rightKerningGroup = A;
unicode = 1EA4;
},
{
glyphname = Acircumflexdotbelow;
lastChange = "2015-07-20 17:30:04 +0000";
layers = (
{
layerId = "F84B2E81-E30C-4BCF-B175-C3D49BDC99D5";
name = Light;
paths = (
{
closed = 1;
nodes = (
"97 67 OFFCURVE",
"122 153 OFFCURVE",
"143 221 CURVE",
"425 221 LINE",
"446 153 OFFCURVE",
"471 67 OFFCURVE",
"489 0 CURVE",
"521 6 LINE",
"465 205 OFFCURVE",
"397 429 OFFCURVE",
"330 610 CURVE",
"238 610 LINE",
"171 429 OFFCURVE",
"103 205 OFFCURVE",
"47 6 CURVE",
"79 0 LINE"
);
},
{
closed = 1;
nodes = (
"308 -142 OFFCURVE",
"321 -130 OFFCURVE",
"321 -108 CURVE SMOOTH",
"321 -84 OFFCURVE",
"308 -72 OFFCURVE",
"285 -72 CURVE SMOOTH",
"262 -72 OFFCURVE",
"248 -84 OFFCURVE",
"248 -108 CURVE SMOOTH",
"248 -130 OFFCURVE",
"262 -142 OFFCURVE",
"285 -142 CURVE SMOOTH"
);
},
{
closed = 1;
nodes = (
"185 358 OFFCURVE",
"232 506 OFFCURVE",
"260 579 CURVE",
"308 579 LINE",
"336 506 OFFCURVE",
"383 358 OFFCURVE",
"415 251 CURVE",
"153 251 LINE"
);
},
{
closed = 1;
nodes = (
"280 822 LINE",
"286 822 LINE",
"383 715 LINE",
"405 720 LINE",
"302 851 LINE",
"264 851 LINE",
"161 720 LINE",
"183 715 LINE"
);
}
);
width = 568;
}
);
leftKerningGroup = A;
note = Acircumflexdotbelow;
rightKerningGroup = A;
unicode = 1EAC;
},
{
glyphname = Acircumflexgrave;
lastChange = "2015-07-20 17:30:04 +0000";
layers = (
{
layerId = "F84B2E81-E30C-4BCF-B175-C3D49BDC99D5";
name = Light;
paths = (
{
closed = 1;
nodes = (
"97 67 OFFCURVE",
"122 153 OFFCURVE",
"143 221 CURVE",
"425 221 LINE",
"446 153 OFFCURVE",
"471 67 OFFCURVE",
"489 0 CURVE",
"521 6 LINE",
"465 205 OFFCURVE",
"397 429 OFFCURVE",
"330 610 CURVE",
"238 610 LINE",
"171 429 OFFCURVE",
"103 205 OFFCURVE",
"47 6 CURVE",
"79 0 LINE"
);
},
{
closed = 1;
nodes = (
"185 358 OFFCURVE",
"232 506 OFFCURVE",
"260 579 CURVE",
"308 579 LINE",
"336 506 OFFCURVE",
"383 358 OFFCURVE",
"415 251 CURVE",
"153 251 LINE"
);
},
{
closed = 1;
nodes = (
"153 807 LINE",
"91 909 LINE",
"54 902 LINE",
"134 803 LINE"
);
},
{
closed = 1;
nodes = (
"283 822 LINE",
"289 822 LINE",
"386 715 LINE",
"408 720 LINE",
"305 851 LINE",
"267 851 LINE",
"164 720 LINE",
"186 715 LINE"
);
}
);
width = 568;
}
);
leftKerningGroup = A;
note = Acircumflexgrave;
rightKerningGroup = A;
unicode = 1EA6;
},
{
glyphname = Acircumflexhookabove;
lastChange = "2015-07-20 17:30:04 +0000";
layers = (
{
layerId = "F84B2E81-E30C-4BCF-B175-C3D49BDC99D5";
name = Light;
paths = (
{
closed = 1;
nodes = (
"97 67 OFFCURVE",
"122 153 OFFCURVE",
"143 221 CURVE",
"425 221 LINE",
"446 153 OFFCURVE",
"471 67 OFFCURVE",
"489 0 CURVE",
"521 6 LINE",
"465 205 OFFCURVE",
"397 429 OFFCURVE",
"330 610 CURVE",
"238 610 LINE",
"171 429 OFFCURVE",
"103 205 OFFCURVE",
"47 6 CURVE",
"79 0 LINE"
);
},
{
closed = 1;
nodes = (
"185 358 OFFCURVE",
"232 506 OFFCURVE",
"260 579 CURVE",
"308 579 LINE",
"336 506 OFFCURVE",
"383 358 OFFCURVE",
"415 251 CURVE",
"153 251 LINE"
);
},
{
closed = 1;
nodes = (
"278 823 LINE",
"284 823 LINE",
"381 716 LINE",
"403 721 LINE",
"300 852 LINE",
"262 852 LINE",
"159 721 LINE",
"181 716 LINE"
);
},
{
closed = 1;
nodes = (
"432 820 LINE",
"432 858 LINE",
"471 860 OFFCURVE",
"494 876 OFFCURVE",
"494 908 CURVE SMOOTH",
"494 939 OFFCURVE",
"475 960 OFFCURVE",
"438 960 CURVE SMOOTH",
"421 960 OFFCURVE",
"408 957 OFFCURVE",
"391 951 CURVE",
"397 929 LINE",
"410 933 OFFCURVE",
"421 935 OFFCURVE",
"434 935 CURVE SMOOTH",
"457 935 OFFCURVE",
"468 928 OFFCURVE",
"468 908 CURVE SMOOTH",
"468 887 OFFCURVE",
"454 880 OFFCURVE",
"406 880 CURVE",
"406 863 LINE",
"414 820 LINE"
);
}
);
width = 568;
}
);
leftKerningGroup = A;
note = Acircumflexhookabove;
rightKerningGroup = A;
unicode = 1EA8;
},
{
glyphname = Acircumflextilde;
lastChange = "2015-07-20 17:30:04 +0000";
layers = (
{
layerId = "F84B2E81-E30C-4BCF-B175-C3D49BDC99D5";
name = Light;
paths = (
{
closed = 1;
nodes = (
"97 67 OFFCURVE",
"122 153 OFFCURVE",
"143 221 CURVE",
"425 221 LINE",
"446 153 OFFCURVE",
"471 67 OFFCURVE",
"489 0 CURVE",
"521 6 LINE",
"465 205 OFFCURVE",
"397 429 OFFCURVE",
"330 610 CURVE",
"238 610 LINE",
"171 429 OFFCURVE",
"103 205 OFFCURVE",
"47 6 CURVE",
"79 0 LINE"
);
},
{
closed = 1;
nodes = (
"185 358 OFFCURVE",
"232 506 OFFCURVE",
"260 579 CURVE",
"308 579 LINE",
"336 506 OFFCURVE",
"383 358 OFFCURVE",
"415 251 CURVE",
"153 251 LINE"
);
},
{
closed = 1;
nodes = (
"279 823 LINE",
"285 823 LINE",
"382 716 LINE",
"404 721 LINE",
"301 852 LINE",
"263 852 LINE",
"160 721 LINE",
"182 716 LINE"
);
},
{
closed = 1;
nodes = (
"198 943 OFFCURVE",
"212 953 OFFCURVE",
"238 953 CURVE SMOOTH",
"274 953 OFFCURVE",
"285 920 OFFCURVE",
"329 920 CURVE SMOOTH",
"357 920 OFFCURVE",
"381 936 OFFCURVE",
"389 978 CURVE",
"370 983 LINE",
"363 956 OFFCURVE",
"349 946 OFFCURVE",
"323 946 CURVE SMOOTH",
"296 946 OFFCURVE",
"283 979 OFFCURVE",
"232 979 CURVE SMOOTH",
"204 979 OFFCURVE",
"180 963 OFFCURVE",
"172 921 CURVE",
"191 916 LINE"
);
}
);
width = 568;
}
);
leftKerningGroup = A;
note = Acircumflextilde;
rightKerningGroup = A;
unicode = 1EAA;
},
{
glyphname = Adieresis;
lastChange = "2015-07-20 17:30:56 +0000";
layers = (
{
layerId = "F84B2E81-E30C-4BCF-B175-C3D49BDC99D5";
name = Light;
paths = (
{
closed = 1;
nodes = (
"380 716 OFFCURVE",
"390 726 OFFCURVE",
"390 743 CURVE SMOOTH",
"390 761 OFFCURVE",
"380 770 OFFCURVE",
"363 770 CURVE SMOOTH",
"345 770 OFFCURVE",
"334 761 OFFCURVE",
"334 743 CURVE SMOOTH",
"334 726 OFFCURVE",
"345 716 OFFCURVE",
"363 716 CURVE SMOOTH"
);
},
{
closed = 1;
nodes = (
"222 716 OFFCURVE",
"232 726 OFFCURVE",
"232 743 CURVE SMOOTH",
"232 761 OFFCURVE",
"222 770 OFFCURVE",
"205 770 CURVE SMOOTH",
"188 770 OFFCURVE",
"177 761 OFFCURVE",
"177 743 CURVE SMOOTH",
"177 726 OFFCURVE",
"188 716 OFFCURVE",
"205 716 CURVE SMOOTH"
);
},
{
closed = 1;
nodes = (
"97 67 OFFCURVE",
"122 153 OFFCURVE",
"143 221 CURVE",
"425 221 LINE",
"446 153 OFFCURVE",
"471 67 OFFCURVE",
"489 0 CURVE",
"521 6 LINE",
"465 205 OFFCURVE",
"397 429 OFFCURVE",
"330 610 CURVE",
"238 610 LINE",
"171 429 OFFCURVE",
"103 205 OFFCURVE",
"47 6 CURVE",
"79 0 LINE"
);
},
{
closed = 1;
nodes = (
"185 358 OFFCURVE",
"232 506 OFFCURVE",
"260 579 CURVE",
"308 579 LINE",
"336 506 OFFCURVE",
"383 358 OFFCURVE",
"415 251 CURVE",
"153 251 LINE"
);
}
);
width = 568;
}
);
leftKerningGroup = A;
note = Adieresis;
rightKerningGroup = A;
unicode = 00C4;
},
{
glyphname = Adotbelow;
lastChange = "2015-07-20 17:30:04 +0000";
layers = (
{
layerId = "F84B2E81-E30C-4BCF-B175-C3D49BDC99D5";
name = Light;
paths = (
{
closed = 1;
nodes = (
"97 67 OFFCURVE",
"122 153 OFFCURVE",
"143 221 CURVE",
"425 221 LINE",
"446 153 OFFCURVE",
"471 67 OFFCURVE",
"489 0 CURVE",
"521 6 LINE",
"465 205 OFFCURVE",
"397 429 OFFCURVE",
"330 610 CURVE",
"238 610 LINE",
"171 429 OFFCURVE",
"103 205 OFFCURVE",
"47 6 CURVE",
"79 0 LINE"
);
},
{
closed = 1;
nodes = (
"308 -130 OFFCURVE",
"321 -118 OFFCURVE",
"321 -96 CURVE SMOOTH",
"321 -72 OFFCURVE",
"308 -60 OFFCURVE",
"285 -60 CURVE SMOOTH",
"262 -60 OFFCURVE",
"248 -72 OFFCURVE",
"248 -96 CURVE SMOOTH",
"248 -118 OFFCURVE",
"262 -130 OFFCURVE",
"285 -130 CURVE SMOOTH"
);
},
{
closed = 1;
nodes = (
"185 358 OFFCURVE",
"232 506 OFFCURVE",
"260 579 CURVE",
"308 579 LINE",
"336 506 OFFCURVE",
"383 358 OFFCURVE",
"415 251 CURVE",
"153 251 LINE"
);
}
);
width = 568;
}
);
leftKerningGroup = A;
note = Adotbelow;
rightKerningGroup = A;
unicode = 1EA0;
},
{
glyphname = Agrave;
lastChange = "2015-07-20 17:30:56 +0000";
layers = (
{
layerId = "F84B2E81-E30C-4BCF-B175-C3D49BDC99D5";
name = Light;
paths = (
{
closed = 1;
nodes = (
"294 725 LINE",
"210 864 LINE",
"165 859 LINE",
"275 721 LINE"
);
},
{
closed = 1;
nodes = (
"97 67 OFFCURVE",
"122 153 OFFCURVE",
"143 221 CURVE",
"425 221 LINE",
"446 153 OFFCURVE",
"471 67 OFFCURVE",
"489 0 CURVE",
"521 6 LINE",
"465 205 OFFCURVE",
"397 429 OFFCURVE",
"330 610 CURVE",
"238 610 LINE",
"171 429 OFFCURVE",
"103 205 OFFCURVE",
"47 6 CURVE",
"79 0 LINE"
);
},
{
closed = 1;
nodes = (
"185 358 OFFCURVE",
"232 506 OFFCURVE",
"260 579 CURVE",
"308 579 LINE",
"336 506 OFFCURVE",
"383 358 OFFCURVE",
"415 251 CURVE",
"153 251 LINE"
);
}
);
width = 568;
}
);
leftKerningGroup = A;
note = Agrave;
rightKerningGroup = A;
unicode = 00C0;
},
{
glyphname = Ahookabove;
lastChange = "2015-07-20 17:30:04 +0000";
layers = (
{
layerId = "F84B2E81-E30C-4BCF-B175-C3D49BDC99D5";
name = Light;
paths = (
{
closed = 1;
nodes = (
"97 67 OFFCURVE",
"122 153 OFFCURVE",
"143 221 CURVE",
"425 221 LINE",
"446 153 OFFCURVE",
"471 67 OFFCURVE",
"489 0 CURVE",
"521 6 LINE",
"465 205 OFFCURVE",
"397 429 OFFCURVE",
"330 610 CURVE",
"238 610 LINE",
"171 429 OFFCURVE",
"103 205 OFFCURVE",
"47 6 CURVE",
"79 0 LINE"
);
},
{
closed = 1;
nodes = (
"185 358 OFFCURVE",
"232 506 OFFCURVE",
"260 579 CURVE",
"308 579 LINE",
"336 506 OFFCURVE",
"383 358 OFFCURVE",
"415 251 CURVE",
"153 251 LINE"
);
},
{
closed = 1;
nodes = (
"294 721 LINE",
"294 760 LINE",
"344 764 OFFCURVE",
"382 780 OFFCURVE",
"382 834 CURVE SMOOTH",
"382 874 OFFCURVE",
"361 905 OFFCURVE",
"308 905 CURVE SMOOTH",
"283 905 OFFCURVE",
"268 902 OFFCURVE",
"246 894 CURVE",
"254 869 LINE",
"271 874 OFFCURVE",
"286 876 OFFCURVE",
"302 876 CURVE SMOOTH",
"339 876 OFFCURVE",
"352 860 OFFCURVE",
"352 834 CURVE SMOOTH",
"352 798 OFFCURVE",
"330 788 OFFCURVE",
"264 788 CURVE",
"264 770 LINE",
"274 721 LINE"
);
}
);
width = 568;
}
);
leftKerningGroup = A;
note = Ahookabove;
rightKerningGroup = A;
unicode = 1EA2;
},
{
glyphname = Amacron;
lastChange = "2015-07-20 17:30:56 +0000";
layers = (
{
layerId = "F84B2E81-E30C-4BCF-B175-C3D49BDC99D5";
name = Light;
paths = (
{
closed = 1;
nodes = (
"367 721 LINE",
"367 750 LINE",
"200 750 LINE",
"200 721 LINE"
);
},
{
closed = 1;
nodes = (
"97 67 OFFCURVE",
"122 153 OFFCURVE",
"143 221 CURVE",
"425 221 LINE",
"446 153 OFFCURVE",
"471 67 OFFCURVE",
"489 0 CURVE",
"521 6 LINE",
"465 205 OFFCURVE",
"397 429 OFFCURVE",
"330 610 CURVE",
"238 610 LINE",
"171 429 OFFCURVE",
"103 205 OFFCURVE",
"47 6 CURVE",
"79 0 LINE"
);
},
{
closed = 1;
nodes = (
"185 358 OFFCURVE",
"232 506 OFFCURVE",
"260 579 CURVE",
"308 579 LINE",
"336 506 OFFCURVE",
"383 358 OFFCURVE",
"415 251 CURVE",
"153 251 LINE"
);
}
);
width = 568;
}
);
leftKerningGroup = A;
note = Amacron;
rightKerningGroup = A;
unicode = 0100;
},
{
glyphname = Aogonek;
lastChange = "2015-07-20 17:30:04 +0000";
layers = (
{
layerId = "F84B2E81-E30C-4BCF-B175-C3D49BDC99D5";
name = Light;
paths = (
{
closed = 1;
nodes = (
"520 -161 OFFCURVE",
"535 -157 OFFCURVE",
"550 -150 CURVE",
"545 -127 LINE",
"530 -130 OFFCURVE",
"517 -132 OFFCURVE",
"504 -132 CURVE SMOOTH",
"489 -132 OFFCURVE",
"479 -131 OFFCURVE",
"464 -128 CURVE",
"457 -116 OFFCURVE",
"454 -101 OFFCURVE",
"454 -87 CURVE SMOOTH",
"454 -49 OFFCURVE",
"468 -23 OFFCURVE",
"513 4 CURVE",
"521 6 LINE",
"465 205 OFFCURVE",
"397 429 OFFCURVE",
"330 610 CURVE",
"238 610 LINE",
"171 429 OFFCURVE",
"103 205 OFFCURVE",
"47 6 CURVE",
"79 0 LINE",
"97 67 OFFCURVE",
"122 153 OFFCURVE",
"143 221 CURVE",
"425 221 LINE",
"443 156 OFFCURVE",
"467 74 OFFCURVE",
"487 8 CURVE",
"443 -12 OFFCURVE",
"424 -45 OFFCURVE",
"424 -86 CURVE SMOOTH",
"424 -130 OFFCURVE",
"447 -161 OFFCURVE",
"497 -161 CURVE SMOOTH"
);
},
{
closed = 1;
nodes = (
"185 358 OFFCURVE",
"232 506 OFFCURVE",
"260 579 CURVE",
"308 579 LINE",
"336 506 OFFCURVE",
"383 358 OFFCURVE",
"415 251 CURVE",
"153 251 LINE"
);
}
);
width = 576;
}
);
leftKerningGroup = A;
note = Aogonek;
rightKerningGroup = A;
unicode = 0104;
},
{
glyphname = Aring;
lastChange = "2015-07-20 17:30:56 +0000";
layers = (
{
layerId = "F84B2E81-E30C-4BCF-B175-C3D49BDC99D5";
name = Light;
paths = (
{
closed = 1;
nodes = (
"349 711 OFFCURVE",
"386 755 OFFCURVE",
"386 803 CURVE SMOOTH",
"386 855 OFFCURVE",
"358 880 OFFCURVE",
"293 880 CURVE SMOOTH",
"225 880 OFFCURVE",
"181 836 OFFCURVE",
"181 788 CURVE SMOOTH",
"181 738 OFFCURVE",
"213 711 OFFCURVE",
"274 711 CURVE SMOOTH"
);
},
{
closed = 1;
nodes = (
"231 736 OFFCURVE",
"209 755 OFFCURVE",
"209 791 CURVE SMOOTH",
"209 809 OFFCURVE",
"211 822 OFFCURVE",
"219 845 CURVE",
"244 853 OFFCURVE",
"263 855 OFFCURVE",
"289 855 CURVE SMOOTH",
"336 855 OFFCURVE",
"358 840 OFFCURVE",
"358 800 CURVE SMOOTH",
"358 782 OFFCURVE",
"355 766 OFFCURVE",
"348 746 CURVE",
"323 738 OFFCURVE",
"304 736 OFFCURVE",
"278 736 CURVE SMOOTH"
);
},
{
closed = 1;
nodes = (
"97 67 OFFCURVE",
"122 153 OFFCURVE",
"143 221 CURVE",
"425 221 LINE",
"446 153 OFFCURVE",
"471 67 OFFCURVE",
"489 0 CURVE",
"521 6 LINE",
"465 205 OFFCURVE",
"397 429 OFFCURVE",
"330 610 CURVE",
"238 610 LINE",
"171 429 OFFCURVE",
"103 205 OFFCURVE",
"47 6 CURVE",
"79 0 LINE"
);
},
{
closed = 1;
nodes = (
"185 358 OFFCURVE",
"232 506 OFFCURVE",
"260 579 CURVE",
"308 579 LINE",
"336 506 OFFCURVE",
"383 358 OFFCURVE",
"415 251 CURVE",
"153 251 LINE"
);
}
);
width = 568;
}
);
leftKerningGroup = A;
note = Aring;
rightKerningGroup = A;
unicode = 00C5;
},
{
glyphname = Aringacute;
lastChange = "2015-07-20 17:30:56 +0000";
layers = (
{
layerId = "F84B2E81-E30C-4BCF-B175-C3D49BDC99D5";
name = Light;
paths = (
{
closed = 1;
nodes = (
"350 707 OFFCURVE",
"387 751 OFFCURVE",
"387 799 CURVE SMOOTH",
"387 851 OFFCURVE",
"359 876 OFFCURVE",
"294 876 CURVE SMOOTH",
"226 876 OFFCURVE",
"182 832 OFFCURVE",
"182 784 CURVE SMOOTH",
"182 734 OFFCURVE",
"214 707 OFFCURVE",
"275 707 CURVE SMOOTH"
);
},
{
closed = 1;
nodes = (
"232 732 OFFCURVE",
"210 751 OFFCURVE",
"210 787 CURVE SMOOTH",
"210 805 OFFCURVE",
"212 818 OFFCURVE",
"220 841 CURVE",
"245 849 OFFCURVE",
"264 851 OFFCURVE",
"290 851 CURVE SMOOTH",
"337 851 OFFCURVE",
"359 836 OFFCURVE",
"359 796 CURVE SMOOTH",
"359 778 OFFCURVE",
"356 762 OFFCURVE",
"349 742 CURVE",
"324 734 OFFCURVE",
"305 732 OFFCURVE",
"279 732 CURVE SMOOTH"
);
},
{
closed = 1;
nodes = (
"407 1083 LINE",
"362 1088 LINE",
"278 949 LINE",
"297 945 LINE"
);
},
{
closed = 1;
nodes = (
"97 67 OFFCURVE",
"122 153 OFFCURVE",
"143 221 CURVE",
"425 221 LINE",
"446 153 OFFCURVE",
"471 67 OFFCURVE",
"489 0 CURVE",
"521 6 LINE",
"465 205 OFFCURVE",
"397 429 OFFCURVE",
"330 610 CURVE",
"238 610 LINE",
"171 429 OFFCURVE",
"103 205 OFFCURVE",
"47 6 CURVE",
"79 0 LINE"
);
},
{
closed = 1;
nodes = (
"185 358 OFFCURVE",
"232 506 OFFCURVE",
"260 579 CURVE",
"308 579 LINE",
"336 506 OFFCURVE",
"383 358 OFFCURVE",
"415 251 CURVE",
"153 251 LINE"
);
}
);
width = 568;
}
);
leftKerningGroup = A;
note = Aringacute;
rightKerningGroup = A;
unicode = 01FA;
},
{
glyphname = Atilde;
lastChange = "2015-07-20 17:30:56 +0000";
layers = (
{
layerId = "F84B2E81-E30C-4BCF-B175-C3D49BDC99D5";
name = Light;
paths = (
{
closed = 1;
nodes = (
"381 716 OFFCURVE",
"406 749 OFFCURVE",
"409 796 CURVE",
"388 802 LINE",
"383 767 OFFCURVE",
"369 745 OFFCURVE",
"339 745 CURVE SMOOTH",
"297 745 OFFCURVE",
"270 803 OFFCURVE",
"222 803 CURVE SMOOTH",
"181 803 OFFCURVE",
"156 770 OFFCURVE",
"153 723 CURVE",
"174 717 LINE",
"179 752 OFFCURVE",
"193 774 OFFCURVE",
"223 774 CURVE SMOOTH",
"260 774 OFFCURVE",
"290 716 OFFCURVE",
"340 716 CURVE SMOOTH"
);
},
{
closed = 1;
nodes = (
"97 67 OFFCURVE",
"122 153 OFFCURVE",
"143 221 CURVE",
"425 221 LINE",
"446 153 OFFCURVE",
"471 67 OFFCURVE",
"489 0 CURVE",
"521 6 LINE",
"465 205 OFFCURVE",
"397 429 OFFCURVE",
"330 610 CURVE",
"238 610 LINE",
"171 429 OFFCURVE",
"103 205 OFFCURVE",
"47 6 CURVE",
"79 0 LINE"
);
},
{
closed = 1;
nodes = (
"185 358 OFFCURVE",
"232 506 OFFCURVE",
"260 579 CURVE",
"308 579 LINE",
"336 506 OFFCURVE",
"383 358 OFFCURVE",
"415 251 CURVE",
"153 251 LINE"
);
}
);
width = 568;
}
);
leftKerningGroup = A;
note = Atilde;
rightKerningGroup = A;
unicode = 00C3;
},
{
glyphname = AE;
lastChange = "2015-07-20 17:31:38 +0000";
layers = (
{
layerId = "F84B2E81-E30C-4BCF-B175-C3D49BDC99D5";
name = Light;
paths = (
{
closed = 1;
nodes = (
"754 -10 OFFCURVE",
"798 -5 OFFCURVE",
"846 5 CURVE",
"838 35 LINE",
"792 26 OFFCURVE",
"748 21 OFFCURVE",
"691 21 CURVE SMOOTH",
"625 21 OFFCURVE",
"582 25 OFFCURVE",
"526 37 CURVE",
"526 293 LINE",
"805 293 LINE",
"805 324 LINE",
"526 324 LINE",
"526 579 LINE",
"834 579 LINE",
"834 610 LINE",
"383 610 LINE",
"261 418 OFFCURVE",
"147 207 OFFCURVE",
"47 12 CURVE",
"80 0 LINE",
"113 68 OFFCURVE",
"160 157 OFFCURVE",
"197 223 CURVE",
"494 223 LINE",
"494 48 LINE SMOOTH",
"494 4 OFFCURVE",
"580 -10 OFFCURVE",
"688 -10 CURVE SMOOTH"
);
},
{
closed = 1;
nodes = (
"266 356 OFFCURVE",
"352 501 OFFCURVE",
"401 579 CURVE",
"494 579 LINE",
"494 254 LINE",
"213 254 LINE"
);
}
);
width = 936;
}
);
leftKerningGroup = A;
note = AE;
rightKerningGroup = E;
unicode = 00C6;
},
{
glyphname = AEacute;
lastChange = "2015-07-20 17:31:38 +0000";
layers = (
{
layerId = "F84B2E81-E30C-4BCF-B175-C3D49BDC99D5";
name = Light;
paths = (
{
closed = 1;
nodes = (
"754 -10 OFFCURVE",
"798 -5 OFFCURVE",
"846 5 CURVE",
"838 35 LINE",
"792 26 OFFCURVE",
"748 21 OFFCURVE",
"691 21 CURVE SMOOTH",
"625 21 OFFCURVE",
"582 25 OFFCURVE",
"526 37 CURVE",
"526 293 LINE",
"805 293 LINE",
"805 324 LINE",
"526 324 LINE",
"526 579 LINE",
"834 579 LINE",
"834 610 LINE",
"383 610 LINE",
"261 418 OFFCURVE",
"147 207 OFFCURVE",
"47 12 CURVE",
"80 0 LINE",
"113 68 OFFCURVE",
"160 157 OFFCURVE",
"197 223 CURVE",
"494 223 LINE",
"494 48 LINE SMOOTH",
"494 4 OFFCURVE",
"580 -10 OFFCURVE",
"688 -10 CURVE SMOOTH"
);
},
{
closed = 1;
nodes = (
"266 356 OFFCURVE",
"352 501 OFFCURVE",
"401 579 CURVE",
"494 579 LINE",
"494 254 LINE",
"213 254 LINE"
);
},
{
closed = 1;
nodes = (
"661 855 LINE",
"616 860 LINE",
"532 721 LINE",
"551 717 LINE"
);
}
);
width = 936;
}
);
leftKerningGroup = A;
note = AEacute;
rightKerningGroup = E;
unicode = 01FC;
},
{
glyphname = B;
lastChange = "2015-07-20 14:16:51 +0000";
layers = (
{
layerId = "F84B2E81-E30C-4BCF-B175-C3D49BDC99D5";
name = Light;
paths = (
{
closed = 1;
nodes = (
"244 0 LINE SMOOTH",
"417 0 OFFCURVE",
"463 66 OFFCURVE",
"463 168 CURVE SMOOTH",
"463 236 OFFCURVE",
"424 283 OFFCURVE",
"350 308 CURVE",
"350 312 LINE",
"404 348 OFFCURVE",
"433 397 OFFCURVE",
"433 460 CURVE SMOOTH",
"433 556 OFFCURVE",
"377 620 OFFCURVE",
"241 620 CURVE SMOOTH",
"201 620 OFFCURVE",
"143 614 OFFCURVE",
"90 601 CURVE",
"90 0 LINE"
);
},
{
closed = 1;
nodes = (
"121 297 LINE",
"271 297 LINE SMOOTH",
"374 297 OFFCURVE",
"431 240 OFFCURVE",
"431 167 CURVE SMOOTH",
"431 83 OFFCURVE",
"402 30 OFFCURVE",
"242 30 CURVE SMOOTH",
"121 30 LINE"
);
},
{
closed = 1;
nodes = (
"121 577 LINE",
"157 584 OFFCURVE",
"199 589 OFFCURVE",
"235 589 CURVE SMOOTH",
"343 589 OFFCURVE",
"401 549 OFFCURVE",
"401 459 CURVE SMOOTH",
"401 404 OFFCURVE",
"382 365 OFFCURVE",
"337 328 CURVE",
"121 328 LINE"
);
}
);
width = 521;
}
);
note = B;
unicode = 0042;
},
{
glyphname = C;
lastChange = "2015-07-20 19:09:42 +0000";
layers = (
{
layerId = "F84B2E81-E30C-4BCF-B175-C3D49BDC99D5";
name = Light;
paths = (
{
closed = 1;
nodes = (
"390 -10 OFFCURVE",
"445 7 OFFCURVE",
"488 37 CURVE",
"472 61 LINE",
"428 35 OFFCURVE",
"382 21 OFFCURVE",
"315 21 CURVE SMOOTH",
"166 21 OFFCURVE",
"94 114 OFFCURVE",
"94 295 CURVE SMOOTH",
"94 409 OFFCURVE",
"122 494 OFFCURVE",
"181 567 CURVE",
"227 583 OFFCURVE",
"267 589 OFFCURVE",
"311 589 CURVE SMOOTH",
"360 589 OFFCURVE",
"391 584 OFFCURVE",
"426 576 CURVE",
"437 490 LINE",
"453 490 LINE",
"457 504 OFFCURVE",
"460 534 OFFCURVE",
"460 554 CURVE SMOOTH",
"460 585 LINE",
"424 604 OFFCURVE",
"381 620 OFFCURVE",
"312 620 CURVE SMOOTH",
"133 620 OFFCURVE",
"62 473 OFFCURVE",
"62 295 CURVE SMOOTH",
"62 102 OFFCURVE",
"143 -10 OFFCURVE",
"313 -10 CURVE SMOOTH"
);
}
);
width = 539;
}
);
leftKerningGroup = C;
note = C;
rightKerningGroup = C;
unicode = 0043;
},
{
glyphname = Cacute;
lastChange = "2015-07-20 19:09:42 +0000";
layers = (
{
layerId = "F84B2E81-E30C-4BCF-B175-C3D49BDC99D5";
name = Light;
paths = (
{
closed = 1;
nodes = (
"390 -10 OFFCURVE",
"445 7 OFFCURVE",
"488 37 CURVE",
"472 61 LINE",
"428 35 OFFCURVE",
"382 21 OFFCURVE",
"315 21 CURVE SMOOTH",
"166 21 OFFCURVE",
"94 114 OFFCURVE",
"94 295 CURVE SMOOTH",
"94 409 OFFCURVE",
"122 494 OFFCURVE",
"181 567 CURVE",
"227 583 OFFCURVE",
"267 589 OFFCURVE",
"311 589 CURVE SMOOTH",
"360 589 OFFCURVE",
"391 584 OFFCURVE",
"426 576 CURVE",
"437 490 LINE",
"453 490 LINE",
"457 504 OFFCURVE",
"460 534 OFFCURVE",
"460 554 CURVE SMOOTH",
"460 585 LINE",
"424 604 OFFCURVE",
"381 620 OFFCURVE",
"312 620 CURVE SMOOTH",
"133 620 OFFCURVE",
"62 473 OFFCURVE",
"62 295 CURVE SMOOTH",
"62 102 OFFCURVE",
"143 -10 OFFCURVE",
"313 -10 CURVE SMOOTH"
);
},
{
closed = 1;
nodes = (
"416 854 LINE",
"371 859 LINE",
"287 720 LINE",
"306 716 LINE"
);
}
);
width = 539;
}
);
leftKerningGroup = C;
note = Cacute;
rightKerningGroup = C;
unicode = 0106;
},
{
glyphname = Ccaron;
lastChange = "2015-07-20 19:09:42 +0000";
layers = (
{
layerId = "F84B2E81-E30C-4BCF-B175-C3D49BDC99D5";
name = Light;
paths = (
{
closed = 1;
nodes = (
"390 -10 OFFCURVE",
"445 7 OFFCURVE",
"488 37 CURVE",
"472 61 LINE",
"428 35 OFFCURVE",
"382 21 OFFCURVE",
"315 21 CURVE SMOOTH",
"166 21 OFFCURVE",
"94 114 OFFCURVE",
"94 295 CURVE SMOOTH",
"94 409 OFFCURVE",
"122 494 OFFCURVE",
"181 567 CURVE",
"227 583 OFFCURVE",
"267 589 OFFCURVE",
"311 589 CURVE SMOOTH",
"360 589 OFFCURVE",
"391 584 OFFCURVE",
"426 576 CURVE",
"437 490 LINE",
"453 490 LINE",
"457 504 OFFCURVE",
"460 534 OFFCURVE",
"460 554 CURVE SMOOTH",
"460 585 LINE",
"424 604 OFFCURVE",
"381 620 OFFCURVE",
"312 620 CURVE SMOOTH",
"133 620 OFFCURVE",
"62 473 OFFCURVE",
"62 295 CURVE SMOOTH",
"62 102 OFFCURVE",
"143 -10 OFFCURVE",
"313 -10 CURVE SMOOTH"
);
},
{
closed = 1;
nodes = (
"323 721 LINE",
"426 852 LINE",
"404 857 LINE",
"307 750 LINE",
"301 750 LINE",
"204 857 LINE",
"182 852 LINE",
"285 721 LINE"
);
}
);
width = 539;
}
);
leftKerningGroup = C;
note = Ccaron;
rightKerningGroup = C;
unicode = 010C;
},
{
glyphname = Ccedilla;
lastChange = "2015-07-20 19:09:42 +0000";
layers = (
{
layerId = "F84B2E81-E30C-4BCF-B175-C3D49BDC99D5";
name = Light;
paths = (
{
closed = 1;
nodes = (
"350 -216 OFFCURVE",
"386 -191 OFFCURVE",
"386 -133 CURVE SMOOTH",
"386 -87 OFFCURVE",
"365 -62 OFFCURVE",
"316 -62 CURVE SMOOTH",
"295 -62 OFFCURVE",
"277 -65 OFFCURVE",
"263 -71 CURVE",
"310 -10 LINE",
"311 -10 OFFCURVE",
"312 -10 OFFCURVE",
"313 -10 CURVE SMOOTH",
"390 -10 OFFCURVE",
"445 7 OFFCURVE",
"488 37 CURVE",
"472 61 LINE",
"428 35 OFFCURVE",
"382 21 OFFCURVE",
"315 21 CURVE SMOOTH",
"166 21 OFFCURVE",
"94 114 OFFCURVE",
"94 295 CURVE SMOOTH",
"94 409 OFFCURVE",
"122 494 OFFCURVE",
"181 567 CURVE",
"227 583 OFFCURVE",
"267 589 OFFCURVE",
"311 589 CURVE SMOOTH",
"360 589 OFFCURVE",
"391 584 OFFCURVE",
"426 576 CURVE",
"437 490 LINE",
"453 490 LINE",
"457 504 OFFCURVE",
"460 534 OFFCURVE",
"460 554 CURVE SMOOTH",
"460 585 LINE",
"424 604 OFFCURVE",
"381 620 OFFCURVE",
"312 620 CURVE SMOOTH",
"133 620 OFFCURVE",
"62 473 OFFCURVE",
"62 295 CURVE SMOOTH",
"62 112 OFFCURVE",
"134 2 OFFCURVE",
"286 -9 CURVE",
"234 -70 LINE",
"261 -97 LINE",
"277 -92 OFFCURVE",
"290 -91 OFFCURVE",
"309 -91 CURVE SMOOTH",
"345 -91 OFFCURVE",
"356 -107 OFFCURVE",
"356 -138 CURVE SMOOTH",
"356 -153 OFFCURVE",
"353 -170 OFFCURVE",
"349 -180 CURVE",
"334 -185 OFFCURVE",
"320 -187 OFFCURVE",
"295 -187 CURVE SMOOTH",
"268 -187 OFFCURVE",
"245 -183 OFFCURVE",
"222 -175 CURVE",
"212 -201 LINE",
"242 -213 OFFCURVE",
"264 -216 OFFCURVE",
"289 -216 CURVE SMOOTH"
);
}
);
width = 539;
}
);
leftKerningGroup = C;
note = Ccedilla;
rightKerningGroup = C;
unicode = 00C7;
},
{
glyphname = Ccircumflex;
lastChange = "2015-07-20 19:09:42 +0000";
layers = (
{
layerId = "F84B2E81-E30C-4BCF-B175-C3D49BDC99D5";
name = Light;
paths = (
{
closed = 1;
nodes = (
"390 -10 OFFCURVE",
"445 7 OFFCURVE",
"488 37 CURVE",
"472 61 LINE",
"428 35 OFFCURVE",
"382 21 OFFCURVE",
"315 21 CURVE SMOOTH",
"166 21 OFFCURVE",
"94 114 OFFCURVE",
"94 295 CURVE SMOOTH",
"94 409 OFFCURVE",
"122 494 OFFCURVE",
"181 567 CURVE",
"227 583 OFFCURVE",
"267 589 OFFCURVE",
"311 589 CURVE SMOOTH",
"360 589 OFFCURVE",
"391 584 OFFCURVE",
"426 576 CURVE",
"437 490 LINE",
"453 490 LINE",
"457 504 OFFCURVE",
"460 534 OFFCURVE",
"460 554 CURVE SMOOTH",
"460 585 LINE",
"424 604 OFFCURVE",
"381 620 OFFCURVE",
"312 620 CURVE SMOOTH",
"133 620 OFFCURVE",
"62 473 OFFCURVE",
"62 295 CURVE SMOOTH",
"62 102 OFFCURVE",
"143 -10 OFFCURVE",
"313 -10 CURVE SMOOTH"
);
},
{
closed = 1;
nodes = (
"291 823 LINE",
"297 823 LINE",
"394 716 LINE",
"416 721 LINE",
"313 852 LINE",
"275 852 LINE",
"172 721 LINE",
"194 716 LINE"
);
}
);
width = 539;
}
);
leftKerningGroup = C;
note = Ccircumflex;
rightKerningGroup = C;
unicode = 0108;
},
{
glyphname = Cdotaccent;
lastChange = "2015-07-20 19:09:42 +0000";
layers = (
{
layerId = "F84B2E81-E30C-4BCF-B175-C3D49BDC99D5";
name = Light;
paths = (
{
closed = 1;
nodes = (
"390 -10 OFFCURVE",
"445 7 OFFCURVE",
"488 37 CURVE",
"472 61 LINE",
"428 35 OFFCURVE",
"382 21 OFFCURVE",
"315 21 CURVE SMOOTH",
"166 21 OFFCURVE",
"94 114 OFFCURVE",
"94 295 CURVE SMOOTH",
"94 409 OFFCURVE",
"122 494 OFFCURVE",
"181 567 CURVE",
"227 583 OFFCURVE",
"267 589 OFFCURVE",
"311 589 CURVE SMOOTH",
"360 589 OFFCURVE",
"391 584 OFFCURVE",
"426 576 CURVE",
"437 490 LINE",
"453 490 LINE",
"457 504 OFFCURVE",
"460 534 OFFCURVE",
"460 554 CURVE SMOOTH",
"460 585 LINE",
"424 604 OFFCURVE",
"381 620 OFFCURVE",
"312 620 CURVE SMOOTH",
"133 620 OFFCURVE",
"62 473 OFFCURVE",
"62 295 CURVE SMOOTH",
"62 102 OFFCURVE",
"143 -10 OFFCURVE",
"313 -10 CURVE SMOOTH"
);
},
{
closed = 1;
nodes = (
"339 716 OFFCURVE",
"352 728 OFFCURVE",
"352 750 CURVE SMOOTH",
"352 774 OFFCURVE",
"339 786 OFFCURVE",
"316 786 CURVE SMOOTH",
"293 786 OFFCURVE",
"279 774 OFFCURVE",
"279 750 CURVE SMOOTH",
"279 728 OFFCURVE",
"293 716 OFFCURVE",
"316 716 CURVE SMOOTH"
);
}
);
width = 539;
}
);
leftKerningGroup = C;
note = Cdotaccent;
rightKerningGroup = C;
unicode = 010A;
},
{
glyphname = D;
lastChange = "2015-07-20 17:31:55 +0000";
layers = (
{
layerId = "F84B2E81-E30C-4BCF-B175-C3D49BDC99D5";
name = Light;
paths = (
{
closed = 1;
nodes = (
"270 0 LINE SMOOTH",
"453 0 OFFCURVE",
"502 159 OFFCURVE",
"502 318 CURVE SMOOTH",
"502 519 OFFCURVE",
"424 620 OFFCURVE",
"245 620 CURVE SMOOTH",
"186 620 OFFCURVE",
"140 614 OFFCURVE",
"90 604 CURVE",
"90 0 LINE"
);
},
{
closed = 1;
nodes = (
"122 579 LINE",
"168 586 OFFCURVE",
"201 589 OFFCURVE",
"241 589 CURVE SMOOTH",
"400 589 OFFCURVE",
"470 505 OFFCURVE",
"470 315 CURVE SMOOTH",
"470 193 OFFCURVE",
"441 103 OFFCURVE",
"384 48 CURVE",
"346 35 OFFCURVE",
"316 31 OFFCURVE",
"266 31 CURVE SMOOTH",
"122 31 LINE"
);
}
);
width = 556;
}
);
note = D;
rightKerningGroup = D;
unicode = 0044;
},
{
glyphname = Eth;
lastChange = "2015-07-20 17:31:55 +0000";
layers = (
{
layerId = "F84B2E81-E30C-4BCF-B175-C3D49BDC99D5";
name = Light;
paths = (
{
closed = 1;
nodes = (
"327 0 LINE SMOOTH",
"510 0 OFFCURVE",
"559 159 OFFCURVE",
"559 318 CURVE SMOOTH",
"559 519 OFFCURVE",
"481 620 OFFCURVE",
"302 620 CURVE SMOOTH",
"243 620 OFFCURVE",
"197 614 OFFCURVE",
"147 604 CURVE",
"147 338 LINE",
"45 338 LINE",
"45 308 LINE",
"147 308 LINE",
"147 0 LINE"
);
},
{
closed = 1;
nodes = (
"179 308 LINE",
"300 308 LINE",
"300 338 LINE",
"179 338 LINE",
"179 579 LINE",
"225 586 OFFCURVE",
"258 589 OFFCURVE",
"298 589 CURVE SMOOTH",
"457 589 OFFCURVE",
"527 505 OFFCURVE",
"527 315 CURVE SMOOTH",
"527 193 OFFCURVE",
"498 103 OFFCURVE",
"441 48 CURVE",
"403 35 OFFCURVE",
"373 31 OFFCURVE",
"323 31 CURVE SMOOTH",
"179 31 LINE"
);
}
);
width = 613;
}
);
note = Eth;
rightKerningGroup = D;
unicode = 00D0;
},
{
glyphname = Dcaron;
lastChange = "2015-07-20 17:31:55 +0000";
layers = (
{
layerId = "F84B2E81-E30C-4BCF-B175-C3D49BDC99D5";
name = Light;
paths = (
{
closed = 1;
nodes = (
"270 0 LINE SMOOTH",
"453 0 OFFCURVE",
"502 159 OFFCURVE",
"502 318 CURVE SMOOTH",
"502 519 OFFCURVE",
"424 620 OFFCURVE",
"245 620 CURVE SMOOTH",
"186 620 OFFCURVE",
"140 614 OFFCURVE",
"90 604 CURVE",
"90 0 LINE"
);
},
{
closed = 1;
nodes = (
"122 579 LINE",
"168 586 OFFCURVE",
"201 589 OFFCURVE",
"241 589 CURVE SMOOTH",
"400 589 OFFCURVE",
"470 505 OFFCURVE",
"470 315 CURVE SMOOTH",
"470 193 OFFCURVE",
"441 103 OFFCURVE",
"384 48 CURVE",
"346 35 OFFCURVE",
"316 31 OFFCURVE",
"266 31 CURVE SMOOTH",
"122 31 LINE"
);
},
{
closed = 1;
nodes = (
"294 721 LINE",
"397 852 LINE",
"375 857 LINE",
"278 750 LINE",
"272 750 LINE",
"175 857 LINE",
"153 852 LINE",
"256 721 LINE"
);
}
);
width = 556;
}
);
note = Dcaron;
rightKerningGroup = D;
unicode = 010E;
},
{
glyphname = Dcroat;
lastChange = "2015-07-20 17:31:55 +0000";
layers = (
{
layerId = "F84B2E81-E30C-4BCF-B175-C3D49BDC99D5";
name = Light;
paths = (
{
closed = 1;
nodes = (
"306 0 LINE SMOOTH",
"489 0 OFFCURVE",
"538 159 OFFCURVE",
"538 318 CURVE SMOOTH",
"538 519 OFFCURVE",
"460 620 OFFCURVE",
"281 620 CURVE SMOOTH",
"222 620 OFFCURVE",
"176 614 OFFCURVE",
"126 604 CURVE",
"126 323 LINE",
"45 323 LINE",
"45 293 LINE",
"126 293 LINE",
"126 0 LINE"
);
},
{
closed = 1;
nodes = (
"158 293 LINE",
"257 293 LINE",
"257 323 LINE",
"158 323 LINE",
"158 579 LINE",
"204 586 OFFCURVE",
"237 589 OFFCURVE",
"277 589 CURVE SMOOTH",
"436 589 OFFCURVE",
"506 505 OFFCURVE",
"506 315 CURVE SMOOTH",
"506 193 OFFCURVE",
"477 103 OFFCURVE",
"420 48 CURVE",
"382 35 OFFCURVE",
"352 31 OFFCURVE",
"302 31 CURVE SMOOTH",
"158 31 LINE"
);
}
);
width = 592;
}
);
note = Dcroat;
rightKerningGroup = D;
unicode = 0110;
},
{
glyphname = Ddotbelow;
lastChange = "2015-07-20 17:31:55 +0000";
layers = (
{
layerId = "F84B2E81-E30C-4BCF-B175-C3D49BDC99D5";
name = Light;
paths = (
{
closed = 1;
nodes = (
"270 0 LINE SMOOTH",
"453 0 OFFCURVE",
"502 159 OFFCURVE",
"502 318 CURVE SMOOTH",
"502 519 OFFCURVE",
"424 620 OFFCURVE",
"245 620 CURVE SMOOTH",
"186 620 OFFCURVE",
"140 614 OFFCURVE",
"90 604 CURVE",
"90 0 LINE"
);
},
{
closed = 1;
nodes = (
"300 -130 OFFCURVE",
"313 -118 OFFCURVE",
"313 -96 CURVE SMOOTH",
"313 -72 OFFCURVE",
"300 -60 OFFCURVE",
"277 -60 CURVE SMOOTH",
"254 -60 OFFCURVE",
"240 -72 OFFCURVE",
"240 -96 CURVE SMOOTH",
"240 -118 OFFCURVE",
"254 -130 OFFCURVE",
"277 -130 CURVE SMOOTH"
);
},
{
closed = 1;
nodes = (
"122 579 LINE",
"168 586 OFFCURVE",
"201 589 OFFCURVE",
"241 589 CURVE SMOOTH",
"400 589 OFFCURVE",
"470 505 OFFCURVE",
"470 315 CURVE SMOOTH",
"470 193 OFFCURVE",
"441 103 OFFCURVE",
"384 48 CURVE",
"346 35 OFFCURVE",
"316 31 OFFCURVE",
"266 31 CURVE SMOOTH",
"122 31 LINE"
);
}
);
width = 556;
}
);
note = Ddotbelow;
rightKerningGroup = D;
unicode = 1E0C;
},
{
glyphname = Dlinebelow;
lastChange = "2015-07-20 17:31:55 +0000";
layers = (
{
layerId = "F84B2E81-E30C-4BCF-B175-C3D49BDC99D5";
name = Light;
paths = (
{
closed = 1;
nodes = (
"270 0 LINE SMOOTH",
"453 0 OFFCURVE",
"502 159 OFFCURVE",
"502 318 CURVE SMOOTH",
"502 519 OFFCURVE",
"424 620 OFFCURVE",
"245 620 CURVE SMOOTH",
"186 620 OFFCURVE",
"140 614 OFFCURVE",
"90 604 CURVE",
"90 0 LINE"
);
},
{
closed = 1;
nodes = (
"388 -105 LINE",
"388 -73 LINE",
"90 -73 LINE",
"90 -105 LINE"
);
},
{
closed = 1;
nodes = (
"122 579 LINE",
"168 586 OFFCURVE",
"201 589 OFFCURVE",
"241 589 CURVE SMOOTH",
"400 589 OFFCURVE",
"470 505 OFFCURVE",
"470 315 CURVE SMOOTH",
"470 193 OFFCURVE",
"441 103 OFFCURVE",
"384 48 CURVE",
"346 35 OFFCURVE",
"316 31 OFFCURVE",
"266 31 CURVE SMOOTH",
"122 31 LINE"
);
}
);
width = 556;
}
);
note = Dlinebelow;
rightKerningGroup = D;
unicode = 1E0E;
},
{
glyphname = E;
lastChange = "2015-07-20 17:32:19 +0000";
layers = (
{
layerId = "F84B2E81-E30C-4BCF-B175-C3D49BDC99D5";
name = Light;
paths = (
{
closed = 1;
nodes = (
"350 -10 OFFCURVE",
"394 -5 OFFCURVE",
"442 5 CURVE",
"434 34 LINE",
"388 25 OFFCURVE",
"344 20 OFFCURVE",
"287 20 CURVE SMOOTH",
"221 20 OFFCURVE",
"178 24 OFFCURVE",
"122 36 CURVE",
"122 293 LINE",
"401 293 LINE",
"401 324 LINE",
"122 324 LINE",
"122 579 LINE",
"430 579 LINE",
"430 610 LINE",
"90 610 LINE",
"90 48 LINE SMOOTH",
"90 4 OFFCURVE",
"179 -10 OFFCURVE",
"284 -10 CURVE SMOOTH"
);
}
);
width = 513;
}
);
leftKerningGroup = E;
note = E;
rightKerningGroup = E;
unicode = 0045;
},
{
glyphname = Eacute;
lastChange = "2015-07-20 17:32:07 +0000";
layers = (
{
layerId = "F84B2E81-E30C-4BCF-B175-C3D49BDC99D5";
name = Light;
paths = (
{
closed = 1;
nodes = (
"350 -10 OFFCURVE",
"394 -5 OFFCURVE",
"442 5 CURVE",
"434 34 LINE",
"388 25 OFFCURVE",
"344 20 OFFCURVE",
"287 20 CURVE SMOOTH",
"221 20 OFFCURVE",
"178 24 OFFCURVE",
"122 36 CURVE",
"122 293 LINE",
"401 293 LINE",
"401 324 LINE",
"122 324 LINE",
"122 579 LINE",
"430 579 LINE",
"430 610 LINE",
"90 610 LINE",
"90 48 LINE SMOOTH",
"90 4 OFFCURVE",
"179 -10 OFFCURVE",
"284 -10 CURVE SMOOTH"
);
},
{
closed = 1;
nodes = (
"376 859 LINE",
"331 864 LINE",
"247 725 LINE",
"266 721 LINE"
);
}
);
width = 513;
}
);
leftKerningGroup = E;
note = Eacute;
rightKerningGroup = E;
unicode = 00C9;
},
{
glyphname = Ebreve;
lastChange = "2015-07-20 17:32:07 +0000";
layers = (
{
layerId = "F84B2E81-E30C-4BCF-B175-C3D49BDC99D5";
name = Light;
paths = (
{
closed = 1;
nodes = (
"350 -10 OFFCURVE",
"394 -5 OFFCURVE",
"442 5 CURVE",
"434 34 LINE",
"388 25 OFFCURVE",
"344 20 OFFCURVE",
"287 20 CURVE SMOOTH",
"221 20 OFFCURVE",
"178 24 OFFCURVE",
"122 36 CURVE",
"122 293 LINE",
"401 293 LINE",
"401 324 LINE",
"122 324 LINE",
"122 579 LINE",
"430 579 LINE",
"430 610 LINE",
"90 610 LINE",
"90 48 LINE SMOOTH",
"90 4 OFFCURVE",
"179 -10 OFFCURVE",
"284 -10 CURVE SMOOTH"
);
},
{
closed = 1;
nodes = (
"340 716 OFFCURVE",
"371 760 OFFCURVE",
"383 812 CURVE",
"350 818 LINE",
"341 776 OFFCURVE",
"323 745 OFFCURVE",
"266 745 CURVE SMOOTH",
"209 745 OFFCURVE",
"191 776 OFFCURVE",
"182 818 CURVE",
"149 812 LINE",
"161 760 OFFCURVE",
"192 716 OFFCURVE",
"266 716 CURVE SMOOTH"
);
}
);
width = 513;
}
);
leftKerningGroup = E;
note = Ebreve;
rightKerningGroup = E;
unicode = 0114;
},
{
glyphname = Ecaron;
lastChange = "2015-07-20 17:32:07 +0000";
layers = (
{
layerId = "F84B2E81-E30C-4BCF-B175-C3D49BDC99D5";
name = Light;
paths = (
{
closed = 1;
nodes = (
"350 -10 OFFCURVE",
"394 -5 OFFCURVE",
"442 5 CURVE",
"434 34 LINE",
"388 25 OFFCURVE",
"344 20 OFFCURVE",
"287 20 CURVE SMOOTH",
"221 20 OFFCURVE",
"178 24 OFFCURVE",
"122 36 CURVE",
"122 293 LINE",
"401 293 LINE",
"401 324 LINE",
"122 324 LINE",
"122 579 LINE",
"430 579 LINE",
"430 610 LINE",
"90 610 LINE",
"90 48 LINE SMOOTH",
"90 4 OFFCURVE",
"179 -10 OFFCURVE",
"284 -10 CURVE SMOOTH"
);
},
{
closed = 1;
nodes = (
"275 721 LINE",
"378 852 LINE",
"356 857 LINE",
"259 750 LINE",
"253 750 LINE",
"156 857 LINE",
"134 852 LINE",
"237 721 LINE"
);
}
);
width = 513;
}
);
leftKerningGroup = E;
note = Ecaron;
rightKerningGroup = E;
unicode = 011A;
},
{
glyphname = Ecircumflex;
lastChange = "2015-07-20 17:32:07 +0000";
layers = (
{
layerId = "F84B2E81-E30C-4BCF-B175-C3D49BDC99D5";
name = Light;
paths = (
{
closed = 1;
nodes = (
"350 -10 OFFCURVE",
"394 -5 OFFCURVE",
"442 5 CURVE",
"434 34 LINE",
"388 25 OFFCURVE",
"344 20 OFFCURVE",
"287 20 CURVE SMOOTH",
"221 20 OFFCURVE",
"178 24 OFFCURVE",
"122 36 CURVE",
"122 293 LINE",
"401 293 LINE",
"401 324 LINE",
"122 324 LINE",
"122 579 LINE",
"430 579 LINE",
"430 610 LINE",
"90 610 LINE",
"90 48 LINE SMOOTH",
"90 4 OFFCURVE",
"179 -10 OFFCURVE",
"284 -10 CURVE SMOOTH"
);
},
{
closed = 1;
nodes = (
"253 823 LINE",
"259 823 LINE",
"356 716 LINE",
"378 721 LINE",
"275 852 LINE",
"237 852 LINE",
"134 721 LINE",
"156 716 LINE"
);
}
);
width = 513;
}
);
leftKerningGroup = E;
note = Ecircumflex;
rightKerningGroup = E;
unicode = 00CA;
},
{
glyphname = Ecircumflexacute;
lastChange = "2015-07-20 17:32:31 +0000";
layers = (
{
layerId = "F84B2E81-E30C-4BCF-B175-C3D49BDC99D5";
name = Light;
paths = (
{
closed = 1;
nodes = (
"350 -10 OFFCURVE",
"394 -5 OFFCURVE",
"442 5 CURVE",
"434 34 LINE",
"388 25 OFFCURVE",
"344 20 OFFCURVE",
"287 20 CURVE SMOOTH",
"221 20 OFFCURVE",
"178 24 OFFCURVE",
"122 36 CURVE",
"122 293 LINE",
"401 293 LINE",
"401 324 LINE",
"122 324 LINE",
"122 579 LINE",
"430 579 LINE",
"430 610 LINE",
"90 610 LINE",
"90 48 LINE SMOOTH",
"90 4 OFFCURVE",
"179 -10 OFFCURVE",
"284 -10 CURVE SMOOTH"
);
},
{
closed = 1;
nodes = (
"255 823 LINE",
"261 823 LINE",
"358 716 LINE",
"380 721 LINE",
"277 852 LINE",
"239 852 LINE",
"136 721 LINE",
"158 716 LINE"
);
},
{
closed = 1;
nodes = (
"490 903 LINE",
"453 910 LINE",
"391 808 LINE",
"410 804 LINE"
);
}
);
width = 513;
}
);
leftKerningGroup = E;
note = Ecircumflexacute;
rightKerningGroup = E;
unicode = 1EBE;
},
{
glyphname = Ecircumflexdotbelow;
lastChange = "2015-07-20 17:32:07 +0000";
layers = (
{
layerId = "F84B2E81-E30C-4BCF-B175-C3D49BDC99D5";
name = Light;
paths = (
{
closed = 1;
nodes = (
"350 -10 OFFCURVE",
"394 -5 OFFCURVE",
"442 5 CURVE",
"434 34 LINE",
"388 25 OFFCURVE",
"344 20 OFFCURVE",
"287 20 CURVE SMOOTH",
"221 20 OFFCURVE",
"178 24 OFFCURVE",
"122 36 CURVE",
"122 293 LINE",
"401 293 LINE",
"401 324 LINE",
"122 324 LINE",
"122 579 LINE",
"430 579 LINE",
"430 610 LINE",
"90 610 LINE",
"90 48 LINE SMOOTH",
"90 4 OFFCURVE",
"179 -10 OFFCURVE",
"284 -10 CURVE SMOOTH"
);
},
{
closed = 1;
nodes = (
"290 -142 OFFCURVE",
"303 -130 OFFCURVE",
"303 -108 CURVE SMOOTH",
"303 -84 OFFCURVE",
"290 -72 OFFCURVE",
"267 -72 CURVE SMOOTH",
"244 -72 OFFCURVE",
"230 -84 OFFCURVE",
"230 -108 CURVE SMOOTH",
"230 -130 OFFCURVE",
"244 -142 OFFCURVE",
"267 -142 CURVE SMOOTH"
);
},
{
closed = 1;
nodes = (
"259 823 LINE",
"265 823 LINE",
"362 716 LINE",
"384 721 LINE",
"281 852 LINE",
"243 852 LINE",
"140 721 LINE",
"162 716 LINE"
);
}
);
width = 513;
}
);
leftKerningGroup = E;
note = Ecircumflexdotbelow;
rightKerningGroup = E;
unicode = 1EC6;
},
{
glyphname = Ecircumflexgrave;
lastChange = "2015-07-20 17:32:07 +0000";
layers = (
{
layerId = "F84B2E81-E30C-4BCF-B175-C3D49BDC99D5";
name = Light;
paths = (
{
closed = 1;
nodes = (
"350 -10 OFFCURVE",
"394 -5 OFFCURVE",
"442 5 CURVE",
"434 34 LINE",
"388 25 OFFCURVE",
"344 20 OFFCURVE",
"287 20 CURVE SMOOTH",
"221 20 OFFCURVE",
"178 24 OFFCURVE",
"122 36 CURVE",
"122 293 LINE",
"401 293 LINE",
"401 324 LINE",
"122 324 LINE",
"122 579 LINE",
"430 579 LINE",
"430 610 LINE",
"90 610 LINE",
"90 48 LINE SMOOTH",
"90 4 OFFCURVE",
"179 -10 OFFCURVE",
"284 -10 CURVE SMOOTH"
);
},
{
closed = 1;
nodes = (
"132 813 LINE",
"70 915 LINE",
"33 908 LINE",
"113 809 LINE"
);
},
{
closed = 1;
nodes = (
"262 828 LINE",
"268 828 LINE",
"365 721 LINE",
"387 726 LINE",
"284 857 LINE",
"246 857 LINE",
"143 726 LINE",
"165 721 LINE"
);
}
);
width = 513;
}
);
leftKerningGroup = E;
note = Ecircumflexgrave;
rightKerningGroup = E;
unicode = 1EC0;
},
{
glyphname = Ecircumflexhookabove;
lastChange = "2015-07-20 17:32:07 +0000";
layers = (
{
layerId = "F84B2E81-E30C-4BCF-B175-C3D49BDC99D5";
name = Light;
paths = (
{
closed = 1;
nodes = (
"350 -10 OFFCURVE",
"394 -5 OFFCURVE",
"442 5 CURVE",
"434 34 LINE",
"388 25 OFFCURVE",
"344 20 OFFCURVE",
"287 20 CURVE SMOOTH",
"221 20 OFFCURVE",
"178 24 OFFCURVE",
"122 36 CURVE",
"122 293 LINE",
"401 293 LINE",
"401 324 LINE",
"122 324 LINE",
"122 579 LINE",
"430 579 LINE",
"430 610 LINE",
"90 610 LINE",
"90 48 LINE SMOOTH",
"90 4 OFFCURVE",
"179 -10 OFFCURVE",
"284 -10 CURVE SMOOTH"
);
},
{
closed = 1;
nodes = (
"253 823 LINE",
"259 823 LINE",
"356 716 LINE",
"378 721 LINE",
"275 852 LINE",
"237 852 LINE",
"134 721 LINE",
"156 716 LINE"
);
},
{
closed = 1;
nodes = (
"407 820 LINE",
"407 858 LINE",
"446 860 OFFCURVE",
"469 876 OFFCURVE",
"469 908 CURVE SMOOTH",
"469 939 OFFCURVE",
"450 960 OFFCURVE",
"413 960 CURVE SMOOTH",
"396 960 OFFCURVE",
"383 957 OFFCURVE",
"366 951 CURVE",
"372 929 LINE",
"385 933 OFFCURVE",
"396 935 OFFCURVE",
"409 935 CURVE SMOOTH",
"432 935 OFFCURVE",
"443 928 OFFCURVE",
"443 908 CURVE SMOOTH",
"443 887 OFFCURVE",
"429 880 OFFCURVE",
"381 880 CURVE",
"381 863 LINE",
"389 820 LINE"
);
}
);
width = 513;
}
);
leftKerningGroup = E;
note = Ecircumflexhookabove;
rightKerningGroup = E;
unicode = 1EC2;
},
{
glyphname = Ecircumflextilde;
lastChange = "2015-07-20 17:32:07 +0000";
layers = (
{
layerId = "F84B2E81-E30C-4BCF-B175-C3D49BDC99D5";
name = Light;
paths = (
{
closed = 1;
nodes = (
"350 -10 OFFCURVE",
"394 -5 OFFCURVE",
"442 5 CURVE",
"434 34 LINE",
"388 25 OFFCURVE",
"344 20 OFFCURVE",
"287 20 CURVE SMOOTH",
"221 20 OFFCURVE",
"178 24 OFFCURVE",
"122 36 CURVE",
"122 293 LINE",
"401 293 LINE",
"401 324 LINE",
"122 324 LINE",
"122 579 LINE",
"430 579 LINE",
"430 610 LINE",
"90 610 LINE",
"90 48 LINE SMOOTH",
"90 4 OFFCURVE",
"179 -10 OFFCURVE",
"284 -10 CURVE SMOOTH"
);
},
{
closed = 1;
nodes = (
"258 823 LINE",
"264 823 LINE",
"361 716 LINE",
"383 721 LINE",
"280 852 LINE",
"242 852 LINE",
"139 721 LINE",
"161 716 LINE"
);
},
{
closed = 1;
nodes = (
"177 943 OFFCURVE",
"191 953 OFFCURVE",
"217 953 CURVE SMOOTH",
"253 953 OFFCURVE",
"264 920 OFFCURVE",
"308 920 CURVE SMOOTH",
"336 920 OFFCURVE",
"360 936 OFFCURVE",
"368 978 CURVE",
"349 983 LINE",
"342 956 OFFCURVE",
"328 946 OFFCURVE",
"302 946 CURVE SMOOTH",
"275 946 OFFCURVE",
"262 979 OFFCURVE",
"211 979 CURVE SMOOTH",
"183 979 OFFCURVE",
"159 963 OFFCURVE",
"151 921 CURVE",
"170 916 LINE"
);
}
);
width = 513;
}
);
leftKerningGroup = E;
note = Ecircumflextilde;
rightKerningGroup = E;
unicode = 1EC4;
},
{
glyphname = Edieresis;
lastChange = "2015-07-20 17:32:07 +0000";
layers = (
{
layerId = "F84B2E81-E30C-4BCF-B175-C3D49BDC99D5";
name = Light;
paths = (
{
closed = 1;
nodes = (
"350 -10 OFFCURVE",
"394 -5 OFFCURVE",
"442 5 CURVE",
"434 34 LINE",
"388 25 OFFCURVE",
"344 20 OFFCURVE",
"287 20 CURVE SMOOTH",
"221 20 OFFCURVE",
"178 24 OFFCURVE",
"122 36 CURVE",
"122 293 LINE",
"401 293 LINE",
"401 324 LINE",
"122 324 LINE",
"122 579 LINE",
"430 579 LINE",
"430 610 LINE",
"90 610 LINE",
"90 48 LINE SMOOTH",
"90 4 OFFCURVE",
"179 -10 OFFCURVE",
"284 -10 CURVE SMOOTH"
);
},
{
closed = 1;
nodes = (
"200 716 OFFCURVE",
"210 726 OFFCURVE",
"210 743 CURVE SMOOTH",
"210 761 OFFCURVE",
"200 770 OFFCURVE",
"183 770 CURVE SMOOTH",
"166 770 OFFCURVE",
"155 761 OFFCURVE",
"155 743 CURVE SMOOTH",
"155 726 OFFCURVE",
"166 716 OFFCURVE",
"183 716 CURVE SMOOTH"
);
},
{
closed = 1;
nodes = (
"358 716 OFFCURVE",
"368 726 OFFCURVE",
"368 743 CURVE SMOOTH",
"368 761 OFFCURVE",
"358 770 OFFCURVE",
"341 770 CURVE SMOOTH",
"323 770 OFFCURVE",
"312 761 OFFCURVE",
"312 743 CURVE SMOOTH",
"312 726 OFFCURVE",
"323 716 OFFCURVE",
"341 716 CURVE SMOOTH"
);
}
);
width = 513;
}
);
leftKerningGroup = E;
note = Edieresis;
rightKerningGroup = E;
unicode = 00CB;
},
{
glyphname = Edotaccent;
lastChange = "2015-07-20 17:32:07 +0000";
layers = (
{
layerId = "F84B2E81-E30C-4BCF-B175-C3D49BDC99D5";
name = Light;
paths = (
{
closed = 1;
nodes = (
"350 -10 OFFCURVE",
"394 -5 OFFCURVE",
"442 5 CURVE",
"434 34 LINE",
"388 25 OFFCURVE",
"344 20 OFFCURVE",
"287 20 CURVE SMOOTH",
"221 20 OFFCURVE",
"178 24 OFFCURVE",
"122 36 CURVE",
"122 293 LINE",
"401 293 LINE",
"401 324 LINE",
"122 324 LINE",
"122 579 LINE",
"430 579 LINE",
"430 610 LINE",
"90 610 LINE",
"90 48 LINE SMOOTH",
"90 4 OFFCURVE",
"179 -10 OFFCURVE",
"284 -10 CURVE SMOOTH"
);
},
{
closed = 1;
nodes = (
"290 716 OFFCURVE",
"303 728 OFFCURVE",
"303 750 CURVE SMOOTH",
"303 774 OFFCURVE",
"290 786 OFFCURVE",
"267 786 CURVE SMOOTH",
"244 786 OFFCURVE",
"230 774 OFFCURVE",
"230 750 CURVE SMOOTH",
"230 728 OFFCURVE",
"244 716 OFFCURVE",
"267 716 CURVE SMOOTH"
);
}
);
width = 513;
}
);
leftKerningGroup = E;
note = Edotaccent;
rightKerningGroup = E;
unicode = 0116;
},
{
glyphname = Edotbelow;
lastChange = "2015-07-20 17:32:07 +0000";
layers = (
{
layerId = "F84B2E81-E30C-4BCF-B175-C3D49BDC99D5";
name = Light;
paths = (
{
closed = 1;
nodes = (
"350 -10 OFFCURVE",
"394 -5 OFFCURVE",
"442 5 CURVE",
"434 34 LINE",
"388 25 OFFCURVE",
"344 20 OFFCURVE",
"287 20 CURVE SMOOTH",
"221 20 OFFCURVE",
"178 24 OFFCURVE",
"122 36 CURVE",
"122 293 LINE",
"401 293 LINE",
"401 324 LINE",
"122 324 LINE",
"122 579 LINE",
"430 579 LINE",
"430 610 LINE",
"90 610 LINE",
"90 48 LINE SMOOTH",
"90 4 OFFCURVE",
"179 -10 OFFCURVE",
"284 -10 CURVE SMOOTH"
);
},
{
closed = 1;
nodes = (
"300 -130 OFFCURVE",
"313 -118 OFFCURVE",
"313 -96 CURVE SMOOTH",
"313 -72 OFFCURVE",
"300 -60 OFFCURVE",
"277 -60 CURVE SMOOTH",
"254 -60 OFFCURVE",
"240 -72 OFFCURVE",
"240 -96 CURVE SMOOTH",
"240 -118 OFFCURVE",
"254 -130 OFFCURVE",
"277 -130 CURVE SMOOTH"
);
}
);
width = 513;
}
);
leftKerningGroup = E;
note = Edotbelow;
rightKerningGroup = E;
unicode = 1EB8;
},
{
glyphname = Egrave;
lastChange = "2015-07-20 17:32:07 +0000";
layers = (
{
layerId = "F84B2E81-E30C-4BCF-B175-C3D49BDC99D5";
name = Light;
paths = (
{
closed = 1;
nodes = (
"350 -10 OFFCURVE",
"394 -5 OFFCURVE",
"442 5 CURVE",
"434 34 LINE",
"388 25 OFFCURVE",
"344 20 OFFCURVE",
"287 20 CURVE SMOOTH",
"221 20 OFFCURVE",
"178 24 OFFCURVE",
"122 36 CURVE",
"122 293 LINE",
"401 293 LINE",
"401 324 LINE",
"122 324 LINE",
"122 579 LINE",
"430 579 LINE",
"430 610 LINE",
"90 610 LINE",
"90 48 LINE SMOOTH",
"90 4 OFFCURVE",
"179 -10 OFFCURVE",
"284 -10 CURVE SMOOTH"
);
},
{
closed = 1;
nodes = (
"287 720 LINE",
"203 859 LINE",
"158 854 LINE",
"268 716 LINE"
);
}
);
width = 513;
}
);
leftKerningGroup = E;
note = Egrave;
rightKerningGroup = E;
unicode = 00C8;
},
{
glyphname = Ehookabove;
lastChange = "2015-07-20 17:32:07 +0000";
layers = (
{
layerId = "F84B2E81-E30C-4BCF-B175-C3D49BDC99D5";
name = Light;
paths = (
{
closed = 1;
nodes = (
"350 -10 OFFCURVE",
"394 -5 OFFCURVE",
"442 5 CURVE",
"434 34 LINE",
"388 25 OFFCURVE",
"344 20 OFFCURVE",
"287 20 CURVE SMOOTH",
"221 20 OFFCURVE",
"178 24 OFFCURVE",
"122 36 CURVE",
"122 293 LINE",
"401 293 LINE",
"401 324 LINE",
"122 324 LINE",
"122 579 LINE",
"430 579 LINE",
"430 610 LINE",
"90 610 LINE",
"90 48 LINE SMOOTH",
"90 4 OFFCURVE",
"179 -10 OFFCURVE",
"284 -10 CURVE SMOOTH"
);
},
{
closed = 1;
nodes = (
"266 721 LINE",
"266 760 LINE",
"316 764 OFFCURVE",
"354 780 OFFCURVE",
"354 834 CURVE SMOOTH",
"354 874 OFFCURVE",
"333 905 OFFCURVE",
"280 905 CURVE SMOOTH",
"255 905 OFFCURVE",
"240 902 OFFCURVE",
"218 894 CURVE",
"226 869 LINE",
"243 874 OFFCURVE",
"258 876 OFFCURVE",
"274 876 CURVE SMOOTH",
"311 876 OFFCURVE",
"324 860 OFFCURVE",
"324 834 CURVE SMOOTH",
"324 798 OFFCURVE",
"302 788 OFFCURVE",
"236 788 CURVE",
"236 770 LINE",
"246 721 LINE"
);
}
);
width = 513;
}
);
leftKerningGroup = E;
note = Ehookabove;
rightKerningGroup = E;
unicode = 1EBA;
},
{
glyphname = Emacron;
lastChange = "2015-07-20 17:32:07 +0000";
layers = (
{
layerId = "F84B2E81-E30C-4BCF-B175-C3D49BDC99D5";
name = Light;
paths = (
{
closed = 1;
nodes = (
"350 -10 OFFCURVE",
"394 -5 OFFCURVE",
"442 5 CURVE",
"434 34 LINE",
"388 25 OFFCURVE",
"344 20 OFFCURVE",
"287 20 CURVE SMOOTH",
"221 20 OFFCURVE",
"178 24 OFFCURVE",
"122 36 CURVE",
"122 293 LINE",
"401 293 LINE",
"401 324 LINE",
"122 324 LINE",
"122 579 LINE",
"430 579 LINE",
"430 610 LINE",
"90 610 LINE",
"90 48 LINE SMOOTH",
"90 4 OFFCURVE",
"179 -10 OFFCURVE",
"284 -10 CURVE SMOOTH"
);
},
{
closed = 1;
nodes = (
"388 721 LINE",
"388 750 LINE",
"132 750 LINE",
"132 721 LINE"
);
}
);
width = 513;
}
);
leftKerningGroup = E;
note = Emacron;
rightKerningGroup = E;
unicode = 0112;
},
{
glyphname = Eogonek;
lastChange = "2015-07-20 17:32:07 +0000";
layers = (
{
layerId = "F84B2E81-E30C-4BCF-B175-C3D49BDC99D5";
name = Light;
paths = (
{
closed = 1;
nodes = (
"412 -167 OFFCURVE",
"427 -163 OFFCURVE",
"442 -156 CURVE",
"437 -133 LINE",
"422 -136 OFFCURVE",
"409 -138 OFFCURVE",
"396 -138 CURVE SMOOTH",
"381 -138 OFFCURVE",
"371 -137 OFFCURVE",
"356 -134 CURVE",
"349 -122 OFFCURVE",
"346 -107 OFFCURVE",
"346 -93 CURVE SMOOTH",
"346 -57 OFFCURVE",
"358 -30 OFFCURVE",
"404 -2 CURVE",
"417 0 OFFCURVE",
"429 2 OFFCURVE",
"442 5 CURVE",
"434 34 LINE",
"388 25 OFFCURVE",
"344 20 OFFCURVE",
"287 20 CURVE SMOOTH",
"221 20 OFFCURVE",
"178 24 OFFCURVE",
"122 36 CURVE",
"122 293 LINE",
"401 293 LINE",
"401 324 LINE",
"122 324 LINE",
"122 579 LINE",
"430 579 LINE",
"430 610 LINE",
"90 610 LINE",
"90 48 LINE SMOOTH",
"90 4 OFFCURVE",
"179 -10 OFFCURVE",
"284 -10 CURVE SMOOTH",
"313 -10 OFFCURVE",
"338 -9 OFFCURVE",
"361 -7 CURVE",
"329 -28 OFFCURVE",
"316 -57 OFFCURVE",
"316 -92 CURVE SMOOTH",
"316 -136 OFFCURVE",
"339 -167 OFFCURVE",
"389 -167 CURVE SMOOTH"
);
}
);
width = 513;
}
);
leftKerningGroup = E;
note = Eogonek;
rightKerningGroup = E;
unicode = 0118;
},
{
glyphname = Etilde;
lastChange = "2015-07-20 17:32:07 +0000";
layers = (
{
layerId = "F84B2E81-E30C-4BCF-B175-C3D49BDC99D5";
name = Light;
paths = (
{
closed = 1;
nodes = (
"350 -10 OFFCURVE",
"394 -5 OFFCURVE",
"442 5 CURVE",
"434 34 LINE",
"388 25 OFFCURVE",
"344 20 OFFCURVE",
"287 20 CURVE SMOOTH",
"221 20 OFFCURVE",
"178 24 OFFCURVE",
"122 36 CURVE",
"122 293 LINE",
"401 293 LINE",
"401 324 LINE",
"122 324 LINE",
"122 579 LINE",
"430 579 LINE",
"430 610 LINE",
"90 610 LINE",
"90 48 LINE SMOOTH",
"90 4 OFFCURVE",
"179 -10 OFFCURVE",
"284 -10 CURVE SMOOTH"
);
},
{
closed = 1;
nodes = (
"366 716 OFFCURVE",
"391 749 OFFCURVE",
"394 796 CURVE",
"373 802 LINE",
"368 767 OFFCURVE",
"354 745 OFFCURVE",
"324 745 CURVE SMOOTH",
"282 745 OFFCURVE",
"255 803 OFFCURVE",
"207 803 CURVE SMOOTH",
"166 803 OFFCURVE",
"141 770 OFFCURVE",
"138 723 CURVE",
"159 717 LINE",
"164 752 OFFCURVE",
"178 774 OFFCURVE",
"208 774 CURVE SMOOTH",
"245 774 OFFCURVE",
"275 716 OFFCURVE",
"325 716 CURVE SMOOTH"
);
}
);
width = 513;
}
);
leftKerningGroup = E;
note = Etilde;
rightKerningGroup = E;
unicode = 1EBC;
},
{
glyphname = F;
lastChange = "2015-07-20 14:16:49 +0000";
layers = (
{
layerId = "F84B2E81-E30C-4BCF-B175-C3D49BDC99D5";
name = Light;
paths = (
{
closed = 1;
nodes = (
"123 0 LINE",
"123 295 LINE",
"389 295 LINE",
"389 323 LINE",
"123 323 LINE",
"123 585 LINE",
"440 585 LINE",
"440 616 LINE",
"91 616 LINE",
"91 0 LINE"
);
}
);
width = 480;
}
);
note = F;
unicode = 0046;
},
{
glyphname = G;
lastChange = "2015-07-21 07:58:04 +0000";
layers = (
{
layerId = "F84B2E81-E30C-4BCF-B175-C3D49BDC99D5";
name = Light;
paths = (
{
closed = 1;
nodes = (
"427 -10 OFFCURVE",
"497 29 OFFCURVE",
"497 88 CURVE SMOOTH",
"497 285 LINE",
"465 309 LINE",
"326 309 LINE",
"326 278 LINE",
"465 278 LINE",
"465 52 LINE",
"423 32 OFFCURVE",
"386 21 OFFCURVE",
"315 21 CURVE SMOOTH",
"174 21 OFFCURVE",
"94 109 OFFCURVE",
"94 295 CURVE SMOOTH",
"94 409 OFFCURVE",
"122 494 OFFCURVE",
"181 567 CURVE",
"227 583 OFFCURVE",
"276 589 OFFCURVE",
"320 589 CURVE SMOOTH",
"369 589 OFFCURVE",
"415 584 OFFCURVE",
"450 576 CURVE",
"461 490 LINE",
"477 490 LINE",
"481 504 OFFCURVE",
"484 534 OFFCURVE",
"484 554 CURVE SMOOTH",
"484 585 LINE",
"448 604 OFFCURVE",
"392 620 OFFCURVE",
"323 620 CURVE SMOOTH",
"135 620 OFFCURVE",
"62 473 OFFCURVE",
"62 295 CURVE SMOOTH",
"62 98 OFFCURVE",
"151 -10 OFFCURVE",
"313 -10 CURVE SMOOTH"
);
}
);
width = 573;
}
);
note = G;
unicode = 0047;
},
{
glyphname = Gbreve;
lastChange = "2015-07-20 14:16:51 +0000";
layers = (
{
layerId = "F84B2E81-E30C-4BCF-B175-C3D49BDC99D5";
name = Light;
paths = (
{
closed = 1;
nodes = (
"427 -10 OFFCURVE",
"497 29 OFFCURVE",
"497 88 CURVE SMOOTH",
"497 285 LINE",
"465 309 LINE",
"326 309 LINE",
"326 278 LINE",
"465 278 LINE",
"465 52 LINE",
"423 32 OFFCURVE",
"386 21 OFFCURVE",
"315 21 CURVE SMOOTH",
"174 21 OFFCURVE",
"94 109 OFFCURVE",
"94 295 CURVE SMOOTH",
"94 409 OFFCURVE",
"122 494 OFFCURVE",
"181 567 CURVE",
"227 583 OFFCURVE",
"276 589 OFFCURVE",
"320 589 CURVE SMOOTH",
"369 589 OFFCURVE",
"415 584 OFFCURVE",
"450 576 CURVE",
"461 490 LINE",
"477 490 LINE",
"481 504 OFFCURVE",
"484 534 OFFCURVE",
"484 554 CURVE SMOOTH",
"484 585 LINE",
"448 604 OFFCURVE",
"392 620 OFFCURVE",
"323 620 CURVE SMOOTH",
"135 620 OFFCURVE",
"62 473 OFFCURVE",
"62 295 CURVE SMOOTH",
"62 98 OFFCURVE",
"151 -10 OFFCURVE",
"313 -10 CURVE SMOOTH"
);
},
{
closed = 1;
nodes = (
"385 716 OFFCURVE",
"416 760 OFFCURVE",
"428 812 CURVE",
"395 818 LINE",
"386 776 OFFCURVE",
"368 745 OFFCURVE",
"311 745 CURVE SMOOTH",
"254 745 OFFCURVE",
"236 776 OFFCURVE",
"227 818 CURVE",
"194 812 LINE",
"206 760 OFFCURVE",
"237 716 OFFCURVE",
"311 716 CURVE SMOOTH"
);
}
);
width = 573;
}
);
note = Gbreve;
unicode = 011E;
},
{
glyphname = Gcaron;
lastChange = "2015-07-20 14:16:50 +0000";
layers = (
{
layerId = "F84B2E81-E30C-4BCF-B175-C3D49BDC99D5";
name = Light;
paths = (
{
closed = 1;
nodes = (
"427 -10 OFFCURVE",
"497 29 OFFCURVE",
"497 88 CURVE SMOOTH",
"497 285 LINE",
"465 309 LINE",
"326 309 LINE",
"326 278 LINE",
"465 278 LINE",
"465 52 LINE",
"423 32 OFFCURVE",
"386 21 OFFCURVE",
"315 21 CURVE SMOOTH",
"174 21 OFFCURVE",
"94 109 OFFCURVE",
"94 295 CURVE SMOOTH",
"94 409 OFFCURVE",
"122 494 OFFCURVE",
"181 567 CURVE",
"227 583 OFFCURVE",
"276 589 OFFCURVE",
"320 589 CURVE SMOOTH",
"369 589 OFFCURVE",
"415 584 OFFCURVE",
"450 576 CURVE",
"461 490 LINE",
"477 490 LINE",
"481 504 OFFCURVE",
"484 534 OFFCURVE",
"484 554 CURVE SMOOTH",
"484 585 LINE",
"448 604 OFFCURVE",
"392 620 OFFCURVE",
"323 620 CURVE SMOOTH",
"135 620 OFFCURVE",
"62 473 OFFCURVE",
"62 295 CURVE SMOOTH",
"62 98 OFFCURVE",
"151 -10 OFFCURVE",
"313 -10 CURVE SMOOTH"
);
},
{
closed = 1;
nodes = (
"330 721 LINE",
"433 852 LINE",
"411 857 LINE",
"314 750 LINE",
"308 750 LINE",
"211 857 LINE",
"189 852 LINE",
"292 721 LINE"
);
}
);
width = 573;
}
);
note = Gcaron;
unicode = 01E6;
},
{
glyphname = Gcircumflex;
lastChange = "2015-07-20 14:16:50 +0000";
layers = (
{
layerId = "F84B2E81-E30C-4BCF-B175-C3D49BDC99D5";
name = Light;
paths = (
{
closed = 1;
nodes = (
"427 -10 OFFCURVE",
"497 29 OFFCURVE",
"497 88 CURVE SMOOTH",
"497 285 LINE",
"465 309 LINE",
"326 309 LINE",
"326 278 LINE",
"465 278 LINE",
"465 52 LINE",
"423 32 OFFCURVE",
"386 21 OFFCURVE",
"315 21 CURVE SMOOTH",
"174 21 OFFCURVE",
"94 109 OFFCURVE",
"94 295 CURVE SMOOTH",
"94 409 OFFCURVE",
"122 494 OFFCURVE",
"181 567 CURVE",
"227 583 OFFCURVE",
"276 589 OFFCURVE",
"320 589 CURVE SMOOTH",
"369 589 OFFCURVE",
"415 584 OFFCURVE",
"450 576 CURVE",
"461 490 LINE",
"477 490 LINE",
"481 504 OFFCURVE",
"484 534 OFFCURVE",
"484 554 CURVE SMOOTH",
"484 585 LINE",
"448 604 OFFCURVE",
"392 620 OFFCURVE",
"323 620 CURVE SMOOTH",
"135 620 OFFCURVE",
"62 473 OFFCURVE",
"62 295 CURVE SMOOTH",
"62 98 OFFCURVE",
"151 -10 OFFCURVE",
"313 -10 CURVE SMOOTH"
);
},
{
closed = 1;
nodes = (
"298 823 LINE",
"304 823 LINE",
"401 716 LINE",
"423 721 LINE",
"320 852 LINE",
"282 852 LINE",
"179 721 LINE",
"201 716 LINE"
);
}
);
width = 573;
}
);
note = Gcircumflex;
unicode = 011C;
},
{
glyphname = Gcommaaccent;
lastChange = "2015-07-20 14:16:50 +0000";
layers = (
{
layerId = "F84B2E81-E30C-4BCF-B175-C3D49BDC99D5";
name = Light;
paths = (
{
closed = 1;
nodes = (
"427 -10 OFFCURVE",
"497 29 OFFCURVE",
"497 88 CURVE SMOOTH",
"497 285 LINE",
"465 309 LINE",
"326 309 LINE",
"326 278 LINE",
"465 278 LINE",
"465 52 LINE",
"423 32 OFFCURVE",
"386 21 OFFCURVE",
"315 21 CURVE SMOOTH",
"174 21 OFFCURVE",
"94 109 OFFCURVE",
"94 295 CURVE SMOOTH",
"94 409 OFFCURVE",
"122 494 OFFCURVE",
"181 567 CURVE",
"227 583 OFFCURVE",
"276 589 OFFCURVE",
"320 589 CURVE SMOOTH",
"369 589 OFFCURVE",
"415 584 OFFCURVE",
"450 576 CURVE",
"461 490 LINE",
"477 490 LINE",
"481 504 OFFCURVE",
"484 534 OFFCURVE",
"484 554 CURVE SMOOTH",
"484 585 LINE",
"448 604 OFFCURVE",
"392 620 OFFCURVE",
"323 620 CURVE SMOOTH",
"135 620 OFFCURVE",
"62 473 OFFCURVE",
"62 295 CURVE SMOOTH",
"62 98 OFFCURVE",
"151 -10 OFFCURVE",
"313 -10 CURVE SMOOTH"
);
},
{
closed = 1;
nodes = (
"348 -201 OFFCURVE",
"363 -160 OFFCURVE",
"363 -113 CURVE SMOOTH",
"363 -75 OFFCURVE",
"345 -55 OFFCURVE",
"310 -55 CURVE SMOOTH",
"297 -55 OFFCURVE",
"286 -57 OFFCURVE",
"277 -60 CURVE",
"277 -84 LINE",
"333 -84 LINE",
"333 -152 OFFCURVE",
"320 -192 OFFCURVE",
"296 -234 CURVE",
"318 -239 LINE"
);
}
);
width = 573;
}
);
note = Gcommaaccent;
unicode = 0122;
},
{
glyphname = Gdotaccent;
lastChange = "2015-07-20 14:16:51 +0000";
layers = (
{
layerId = "F84B2E81-E30C-4BCF-B175-C3D49BDC99D5";
name = Light;
paths = (
{
closed = 1;
nodes = (
"427 -10 OFFCURVE",
"497 29 OFFCURVE",
"497 88 CURVE SMOOTH",
"497 285 LINE",
"465 309 LINE",
"326 309 LINE",
"326 278 LINE",
"465 278 LINE",
"465 52 LINE",
"423 32 OFFCURVE",
"386 21 OFFCURVE",
"315 21 CURVE SMOOTH",
"174 21 OFFCURVE",
"94 109 OFFCURVE",
"94 295 CURVE SMOOTH",
"94 409 OFFCURVE",
"122 494 OFFCURVE",
"181 567 CURVE",
"227 583 OFFCURVE",
"276 589 OFFCURVE",
"320 589 CURVE SMOOTH",
"369 589 OFFCURVE",
"415 584 OFFCURVE",
"450 576 CURVE",
"461 490 LINE",
"477 490 LINE",
"481 504 OFFCURVE",
"484 534 OFFCURVE",
"484 554 CURVE SMOOTH",
"484 585 LINE",
"448 604 OFFCURVE",
"392 620 OFFCURVE",
"323 620 CURVE SMOOTH",
"135 620 OFFCURVE",
"62 473 OFFCURVE",
"62 295 CURVE SMOOTH",
"62 98 OFFCURVE",
"151 -10 OFFCURVE",
"313 -10 CURVE SMOOTH"
);
},
{
closed = 1;
nodes = (
"337 716 OFFCURVE",
"350 728 OFFCURVE",
"350 750 CURVE SMOOTH",
"350 774 OFFCURVE",
"337 786 OFFCURVE",
"314 786 CURVE SMOOTH",
"291 786 OFFCURVE",
"277 774 OFFCURVE",
"277 750 CURVE SMOOTH",
"277 728 OFFCURVE",
"291 716 OFFCURVE",
"314 716 CURVE SMOOTH"
);
}
);
width = 573;
}
);
note = Gdotaccent;
unicode = 0120;
},
{
glyphname = Gmacron;
lastChange = "2015-07-20 14:16:50 +0000";
layers = (
{
layerId = "F84B2E81-E30C-4BCF-B175-C3D49BDC99D5";
name = Light;
paths = (
{
closed = 1;
nodes = (
"427 -10 OFFCURVE",
"497 29 OFFCURVE",
"497 88 CURVE SMOOTH",
"497 285 LINE",
"465 309 LINE",
"326 309 LINE",
"326 278 LINE",
"465 278 LINE",
"465 52 LINE",
"423 32 OFFCURVE",
"386 21 OFFCURVE",
"315 21 CURVE SMOOTH",
"174 21 OFFCURVE",
"94 109 OFFCURVE",
"94 295 CURVE SMOOTH",
"94 409 OFFCURVE",
"122 494 OFFCURVE",
"181 567 CURVE",
"227 583 OFFCURVE",
"276 589 OFFCURVE",
"320 589 CURVE SMOOTH",
"369 589 OFFCURVE",
"415 584 OFFCURVE",
"450 576 CURVE",
"461 490 LINE",
"477 490 LINE",
"481 504 OFFCURVE",
"484 534 OFFCURVE",
"484 554 CURVE SMOOTH",
"484 585 LINE",
"448 604 OFFCURVE",
"392 620 OFFCURVE",
"323 620 CURVE SMOOTH",
"135 620 OFFCURVE",
"62 473 OFFCURVE",
"62 295 CURVE SMOOTH",
"62 98 OFFCURVE",
"151 -10 OFFCURVE",
"313 -10 CURVE SMOOTH"
);
},
{
closed = 1;
nodes = (
"439 721 LINE",
"439 750 LINE",
"183 750 LINE",
"183 721 LINE"
);
}
);
width = 573;
}
);
note = Gmacron;
unicode = 1E20;
},
{
glyphname = H;
lastChange = "2015-07-20 17:33:00 +0000";
layers = (
{
layerId = "F84B2E81-E30C-4BCF-B175-C3D49BDC99D5";
name = Light;
paths = (
{
closed = 1;
nodes = (
"122 0 LINE",
"122 280 LINE",
"456 280 LINE",
"456 0 LINE",
"488 0 LINE",
"488 610 LINE",
"456 610 LINE",
"456 311 LINE",
"122 311 LINE",
"122 610 LINE",
"90 610 LINE",
"90 0 LINE"
);
}
);
width = 578;
}
);
note = H;
unicode = 0048;
},
{
glyphname = Hbar;
lastChange = "2015-07-20 14:16:50 +0000";
layers = (
{
layerId = "F84B2E81-E30C-4BCF-B175-C3D49BDC99D5";
name = Light;
paths = (
{
closed = 1;
nodes = (
"163 0 LINE",
"163 280 LINE",
"497 280 LINE",
"497 0 LINE",
"529 0 LINE",
"529 454 LINE",
"594 454 LINE",
"594 484 LINE",
"529 484 LINE",
"529 610 LINE",
"497 610 LINE",
"497 484 LINE",
"163 484 LINE",
"163 610 LINE",
"131 610 LINE",
"131 484 LINE",
"65 484 LINE",
"65 454 LINE",
"131 454 LINE",
"131 0 LINE"
);
},
{
closed = 1;
nodes = (
"163 454 LINE",
"497 454 LINE",
"497 311 LINE",
"163 311 LINE"
);
}
);
width = 659;
}
);
note = Hbar;
unicode = 0126;
},
{
glyphname = Hbrevebelow;
lastChange = "2015-07-20 14:16:50 +0000";
layers = (
{
layerId = "F84B2E81-E30C-4BCF-B175-C3D49BDC99D5";
name = Light;
paths = (
{
closed = 1;
nodes = (
"122 0 LINE",
"122 280 LINE",
"456 280 LINE",
"456 0 LINE",
"488 0 LINE",
"488 610 LINE",
"456 610 LINE",
"456 311 LINE",
"122 311 LINE",
"122 610 LINE",
"90 610 LINE",
"90 0 LINE"
);
},
{
closed = 1;
nodes = (
"363 -142 OFFCURVE",
"394 -98 OFFCURVE",
"406 -46 CURVE",
"373 -40 LINE",
"364 -82 OFFCURVE",
"346 -113 OFFCURVE",
"289 -113 CURVE SMOOTH",
"232 -113 OFFCURVE",
"214 -82 OFFCURVE",
"205 -40 CURVE",
"172 -46 LINE",
"184 -98 OFFCURVE",
"215 -142 OFFCURVE",
"289 -142 CURVE SMOOTH"
);
}
);
width = 578;
}
);
note = Hbrevebelow;
unicode = 1E2A;
},
{
glyphname = Hcircumflex;
lastChange = "2015-07-20 14:16:51 +0000";
layers = (
{
layerId = "F84B2E81-E30C-4BCF-B175-C3D49BDC99D5";
name = Light;
paths = (
{
closed = 1;
nodes = (
"122 0 LINE",
"122 280 LINE",
"456 280 LINE",
"456 0 LINE",
"488 0 LINE",
"488 610 LINE",
"456 610 LINE",
"456 311 LINE",
"122 311 LINE",
"122 610 LINE",
"90 610 LINE",
"90 0 LINE"
);
},
{
closed = 1;
nodes = (
"286 823 LINE",
"292 823 LINE",
"389 716 LINE",
"411 721 LINE",
"308 852 LINE",
"270 852 LINE",
"167 721 LINE",
"189 716 LINE"
);
}
);
width = 578;
}
);
note = Hcircumflex;
unicode = 0124;
},
{
glyphname = Hdotbelow;
lastChange = "2015-07-20 14:16:51 +0000";
layers = (
{
layerId = "F84B2E81-E30C-4BCF-B175-C3D49BDC99D5";
name = Light;
paths = (
{
closed = 1;
nodes = (
"122 0 LINE",
"122 280 LINE",
"456 280 LINE",
"456 0 LINE",
"488 0 LINE",
"488 610 LINE",
"456 610 LINE",
"456 311 LINE",
"122 311 LINE",
"122 610 LINE",
"90 610 LINE",
"90 0 LINE"
);
},
{
closed = 1;
nodes = (
"313 -130 OFFCURVE",
"326 -118 OFFCURVE",
"326 -96 CURVE SMOOTH",
"326 -72 OFFCURVE",
"313 -60 OFFCURVE",
"290 -60 CURVE SMOOTH",
"267 -60 OFFCURVE",
"253 -72 OFFCURVE",
"253 -96 CURVE SMOOTH",
"253 -118 OFFCURVE",
"267 -130 OFFCURVE",
"290 -130 CURVE SMOOTH"
);
}
);
width = 578;
}
);
note = Hdotbelow;
unicode = 1E24;
},
{
glyphname = I;
lastChange = "2015-07-20 14:16:49 +0000";
layers = (
{
layerId = "F84B2E81-E30C-4BCF-B175-C3D49BDC99D5";
name = Light;
paths = (
{
closed = 1;
nodes = (
"125 0 LINE",
"125 610 LINE",
"93 610 LINE",
"93 0 LINE"
);
}
);
width = 218;
}
);
note = I;
unicode = 0049;
},
{
glyphname = IJ;
lastChange = "2015-07-20 14:16:51 +0000";
layers = (
{
layerId = "F84B2E81-E30C-4BCF-B175-C3D49BDC99D5";
name = Light;
paths = (
{
closed = 1;
nodes = (
"497 -10 OFFCURVE",
"549 24 OFFCURVE",
"549 108 CURVE SMOOTH",
"549 616 LINE",
"517 616 LINE",
"517 110 LINE SMOOTH",
"517 81 OFFCURVE",
"514 64 OFFCURVE",
"507 45 CURVE",
"482 31 OFFCURVE",
"445 21 OFFCURVE",
"396 21 CURVE SMOOTH",
"352 21 OFFCURVE",
"309 29 OFFCURVE",
"273 42 CURVE",
"263 12 LINE",
"301 -1 OFFCURVE",
"348 -10 OFFCURVE",
"391 -10 CURVE SMOOTH"
);
},
{
closed = 1;
nodes = (
"125 0 LINE",
"125 610 LINE",
"93 610 LINE",
"93 0 LINE"
);
}
);
width = 637;
}
);
note = IJ;
unicode = 0132;
},
{
glyphname = Iacute;
lastChange = "2015-07-20 14:16:51 +0000";
layers = (
{
layerId = "F84B2E81-E30C-4BCF-B175-C3D49BDC99D5";
name = Light;
paths = (
{
closed = 1;
nodes = (
"125 0 LINE",
"125 610 LINE",
"93 610 LINE",
"93 0 LINE"
);
},
{
closed = 1;
nodes = (
"225 854 LINE",
"180 859 LINE",
"96 720 LINE",
"115 716 LINE"
);
}
);
width = 218;
}
);
note = Iacute;
unicode = 00CD;
},
{
glyphname = Ibreve;
lastChange = "2015-07-20 14:16:50 +0000";
layers = (
{
layerId = "F84B2E81-E30C-4BCF-B175-C3D49BDC99D5";
name = Light;
paths = (
{
closed = 1;
nodes = (
"183 716 OFFCURVE",
"214 760 OFFCURVE",
"226 812 CURVE",
"193 818 LINE",
"184 776 OFFCURVE",
"166 745 OFFCURVE",
"109 745 CURVE SMOOTH",
"52 745 OFFCURVE",
"34 776 OFFCURVE",
"25 818 CURVE",
"-8 812 LINE",
"4 760 OFFCURVE",
"35 716 OFFCURVE",
"109 716 CURVE SMOOTH"
);
},
{
closed = 1;
nodes = (
"125 0 LINE",
"125 610 LINE",
"93 610 LINE",
"93 0 LINE"
);
}
);
width = 218;
}
);
note = Ibreve;
unicode = 012C;
},
{
glyphname = Icaron;
lastChange = "2015-07-20 14:16:50 +0000";
layers = (
{
layerId = "F84B2E81-E30C-4BCF-B175-C3D49BDC99D5";
name = Light;
paths = (
{
closed = 1;
nodes = (
"128 721 LINE",
"231 852 LINE",
"209 857 LINE",
"112 750 LINE",
"106 750 LINE",
"9 857 LINE",
"-13 852 LINE",
"90 721 LINE"
);
},
{
closed = 1;
nodes = (
"125 0 LINE",
"125 610 LINE",
"93 610 LINE",
"93 0 LINE"
);
}
);
width = 218;
}
);
note = Icaron;
unicode = 01CF;
},
{
glyphname = Icircumflex;
lastChange = "2015-07-20 14:16:51 +0000";
layers = (
{
layerId = "F84B2E81-E30C-4BCF-B175-C3D49BDC99D5";
name = Light;
paths = (
{
closed = 1;
nodes = (
"106 823 LINE",
"112 823 LINE",
"209 716 LINE",
"231 721 LINE",
"128 852 LINE",
"90 852 LINE",
"-13 721 LINE",
"9 716 LINE"
);
},
{
closed = 1;
nodes = (
"125 0 LINE",
"125 610 LINE",
"93 610 LINE",
"93 0 LINE"
);
}
);
width = 218;
}
);
note = Icircumflex;
unicode = 00CE;
},
{
glyphname = Idieresis;
lastChange = "2015-07-20 14:16:51 +0000";
layers = (
{
layerId = "F84B2E81-E30C-4BCF-B175-C3D49BDC99D5";
name = Light;
paths = (
{
closed = 1;
nodes = (
"125 0 LINE",
"125 610 LINE",
"93 610 LINE",
"93 0 LINE"
);
},
{
closed = 1;
nodes = (
"47 716 OFFCURVE",
"57 726 OFFCURVE",
"57 743 CURVE SMOOTH",
"57 761 OFFCURVE",
"47 770 OFFCURVE",
"30 770 CURVE SMOOTH",
"13 770 OFFCURVE",
"2 761 OFFCURVE",
"2 743 CURVE SMOOTH",
"2 726 OFFCURVE",
"13 716 OFFCURVE",
"30 716 CURVE SMOOTH"
);
},
{
closed = 1;
nodes = (
"205 716 OFFCURVE",
"215 726 OFFCURVE",
"215 743 CURVE SMOOTH",
"215 761 OFFCURVE",
"205 770 OFFCURVE",
"188 770 CURVE SMOOTH",
"170 770 OFFCURVE",
"159 761 OFFCURVE",
"159 743 CURVE SMOOTH",
"159 726 OFFCURVE",
"170 716 OFFCURVE",
"188 716 CURVE SMOOTH"
);
}
);
width = 218;
}
);
note = Idieresis;
unicode = 00CF;
},
{
glyphname = Idotaccent;
lastChange = "2015-07-20 14:16:51 +0000";
layers = (
{
layerId = "F84B2E81-E30C-4BCF-B175-C3D49BDC99D5";
name = Light;
paths = (
{
closed = 1;
nodes = (
"125 0 LINE",
"125 610 LINE",
"93 610 LINE",
"93 0 LINE"
);
},
{
closed = 1;
nodes = (
"132 716 OFFCURVE",
"145 728 OFFCURVE",
"145 750 CURVE SMOOTH",
"145 774 OFFCURVE",
"132 786 OFFCURVE",
"109 786 CURVE SMOOTH",
"86 786 OFFCURVE",
"72 774 OFFCURVE",
"72 750 CURVE SMOOTH",
"72 728 OFFCURVE",
"86 716 OFFCURVE",
"109 716 CURVE SMOOTH"
);
}
);
width = 218;
}
);
note = Idotaccent;
unicode = 0130;
},
{
glyphname = Idotbelow;
lastChange = "2015-07-20 14:16:51 +0000";
layers = (
{
layerId = "F84B2E81-E30C-4BCF-B175-C3D49BDC99D5";
name = Light;
paths = (
{
closed = 1;
nodes = (
"125 0 LINE",
"125 610 LINE",
"93 610 LINE",
"93 0 LINE"
);
},
{
closed = 1;
nodes = (
"132 -142 OFFCURVE",
"145 -130 OFFCURVE",
"145 -108 CURVE SMOOTH",
"145 -84 OFFCURVE",
"132 -72 OFFCURVE",
"109 -72 CURVE SMOOTH",
"86 -72 OFFCURVE",
"72 -84 OFFCURVE",
"72 -108 CURVE SMOOTH",
"72 -130 OFFCURVE",
"86 -142 OFFCURVE",
"109 -142 CURVE SMOOTH"
);
}
);
width = 218;
}
);
note = Idotbelow;
unicode = 1ECA;
},
{
glyphname = Igrave;
lastChange = "2015-07-20 14:16:50 +0000";
layers = (
{
layerId = "F84B2E81-E30C-4BCF-B175-C3D49BDC99D5";
name = Light;
paths = (
{
closed = 1;
nodes = (
"125 0 LINE",
"125 610 LINE",
"93 610 LINE",
"93 0 LINE"
);
},
{
closed = 1;
nodes = (
"124 720 LINE",
"40 859 LINE",
"-5 854 LINE",
"105 716 LINE"
);
}
);
width = 218;
}
);
note = Igrave;
unicode = 00CC;
},
{
glyphname = Ihookabove;
lastChange = "2015-07-20 14:16:50 +0000";
layers = (
{
layerId = "F84B2E81-E30C-4BCF-B175-C3D49BDC99D5";
name = Light;
paths = (
{
closed = 1;
nodes = (
"117 721 LINE",
"117 760 LINE",
"167 764 OFFCURVE",
"205 780 OFFCURVE",
"205 834 CURVE SMOOTH",
"205 874 OFFCURVE",
"184 905 OFFCURVE",
"131 905 CURVE SMOOTH",
"106 905 OFFCURVE",
"91 902 OFFCURVE",
"69 894 CURVE",
"77 869 LINE",
"94 874 OFFCURVE",
"109 876 OFFCURVE",
"125 876 CURVE SMOOTH",
"162 876 OFFCURVE",
"175 860 OFFCURVE",
"175 834 CURVE SMOOTH",
"175 798 OFFCURVE",
"153 788 OFFCURVE",
"87 788 CURVE",
"87 770 LINE",
"97 721 LINE"
);
},
{
closed = 1;
nodes = (
"125 0 LINE",
"125 610 LINE",
"93 610 LINE",
"93 0 LINE"
);
}
);
width = 218;
}
);
note = Ihookabove;
unicode = 1EC8;
},
{
glyphname = Imacron;
lastChange = "2015-07-20 14:16:50 +0000";
layers = (
{
layerId = "F84B2E81-E30C-4BCF-B175-C3D49BDC99D5";
name = Light;
paths = (
{
closed = 1;
nodes = (
"125 0 LINE",
"125 610 LINE",
"93 610 LINE",
"93 0 LINE"
);
},
{
closed = 1;
nodes = (
"237 721 LINE",
"237 750 LINE",
"-19 750 LINE",
"-19 721 LINE"
);
}
);
width = 218;
}
);
note = Imacron;
unicode = 012A;
},
{
glyphname = Iogonek;
lastChange = "2015-07-20 14:16:51 +0000";
layers = (
{
layerId = "F84B2E81-E30C-4BCF-B175-C3D49BDC99D5";
name = Light;
paths = (
{
closed = 1;
nodes = (
"132 -165 OFFCURVE",
"147 -161 OFFCURVE",
"162 -154 CURVE",
"157 -131 LINE",
"142 -134 OFFCURVE",
"129 -136 OFFCURVE",
"116 -136 CURVE SMOOTH",
"101 -136 OFFCURVE",
"91 -135 OFFCURVE",
"76 -132 CURVE",
"69 -120 OFFCURVE",
"66 -105 OFFCURVE",
"66 -91 CURVE SMOOTH",
"66 -50 OFFCURVE",
"81 -24 OFFCURVE",
"125 -7 CURVE",
"108 0 LINE",
"61 -20 OFFCURVE",
"36 -48 OFFCURVE",
"36 -90 CURVE SMOOTH",
"36 -134 OFFCURVE",
"59 -165 OFFCURVE",
"109 -165 CURVE SMOOTH"
);
},
{
closed = 1;
nodes = (
"125 -7 LINE",
"125 610 LINE",
"93 610 LINE",
"93 -7 LINE"
);
}
);
width = 218;
}
);
note = Iogonek;
unicode = 012E;
},
{
glyphname = Itilde;
lastChange = "2015-07-20 14:16:51 +0000";
layers = (
{
layerId = "F84B2E81-E30C-4BCF-B175-C3D49BDC99D5";
name = Light;
paths = (
{
closed = 1;
nodes = (
"209 717 OFFCURVE",
"234 750 OFFCURVE",
"237 797 CURVE",
"216 803 LINE",
"211 768 OFFCURVE",
"197 746 OFFCURVE",
"167 746 CURVE SMOOTH",
"125 746 OFFCURVE",
"98 804 OFFCURVE",
"50 804 CURVE SMOOTH",
"9 804 OFFCURVE",
"-16 771 OFFCURVE",
"-19 724 CURVE",
"2 718 LINE",
"7 753 OFFCURVE",
"21 775 OFFCURVE",
"51 775 CURVE SMOOTH",
"88 775 OFFCURVE",
"118 717 OFFCURVE",
"168 717 CURVE SMOOTH"
);
},
{
closed = 1;
nodes = (
"125 0 LINE",
"125 610 LINE",
"93 610 LINE",
"93 0 LINE"
);
}
);
width = 218;
}
);
note = Itilde;
unicode = 0128;
},
{
glyphname = J;
lastChange = "2015-07-20 19:00:47 +0000";
layers = (
{
layerId = "F84B2E81-E30C-4BCF-B175-C3D49BDC99D5";
name = Light;
paths = (
{
closed = 1;
nodes = (
"266 -10 OFFCURVE",
"318 24 OFFCURVE",
"318 108 CURVE SMOOTH",
"318 616 LINE",
"286 616 LINE",
"286 110 LINE SMOOTH",
"286 81 OFFCURVE",
"283 64 OFFCURVE",
"276 45 CURVE",
"251 31 OFFCURVE",
"214 21 OFFCURVE",
"165 21 CURVE SMOOTH",
"121 21 OFFCURVE",
"78 29 OFFCURVE",
"42 42 CURVE",
"32 12 LINE",
"70 -1 OFFCURVE",
"117 -10 OFFCURVE",
"160 -10 CURVE SMOOTH"
);
}
);
width = 406;
}
);
note = J;
unicode = 004A;
},
{
glyphname = Jcircumflex;
lastChange = "2015-07-20 14:16:50 +0000";
layers = (
{
layerId = "F84B2E81-E30C-4BCF-B175-C3D49BDC99D5";
name = Light;
paths = (
{
closed = 1;
nodes = (
"266 -10 OFFCURVE",
"318 24 OFFCURVE",
"318 108 CURVE SMOOTH",
"318 616 LINE",
"286 616 LINE",
"286 110 LINE SMOOTH",
"286 81 OFFCURVE",
"283 64 OFFCURVE",
"276 45 CURVE",
"251 31 OFFCURVE",
"214 21 OFFCURVE",
"165 21 CURVE SMOOTH",
"121 21 OFFCURVE",
"78 29 OFFCURVE",
"42 42 CURVE",
"32 12 LINE",
"70 -1 OFFCURVE",
"117 -10 OFFCURVE",
"160 -10 CURVE SMOOTH"
);
},
{
closed = 1;
nodes = (
"299 823 LINE",
"305 823 LINE",
"402 716 LINE",
"424 721 LINE",
"321 852 LINE",
"283 852 LINE",
"180 721 LINE",
"202 716 LINE"
);
}
);
width = 406;
}
);
note = Jcircumflex;
unicode = 0134;
},
{
glyphname = K;
lastChange = "2015-07-20 14:16:49 +0000";
layers = (
{
layerId = "F84B2E81-E30C-4BCF-B175-C3D49BDC99D5";
name = Light;
paths = (
{
closed = 1;
nodes = (
"519 -5 OFFCURVE",
"529 -3 OFFCURVE",
"541 1 CURVE",
"541 20 LINE",
"493 27 LINE",
"400 232 LINE SMOOTH",
"379 277 OFFCURVE",
"361 297 OFFCURVE",
"315 317 CURVE",
"315 323 LINE",
"364 352 OFFCURVE",
"372 373 OFFCURVE",
"396 415 CURVE SMOOTH",
"431 477 OFFCURVE",
"458 532 OFFCURVE",
"487 598 CURVE",
"458 610 LINE",
"430 545 OFFCURVE",
"402 486 OFFCURVE",
"369 425 CURVE SMOOTH",
"344 378 OFFCURVE",
"319 333 OFFCURVE",
"243 333 CURVE SMOOTH",
"122 333 LINE",
"122 610 LINE",
"91 610 LINE",
"91 0 LINE",
"122 0 LINE",
"122 303 LINE",
"248 303 LINE SMOOTH",
"320 303 OFFCURVE",
"349 268 OFFCURVE",
"375 211 CURVE SMOOTH",
"458 27 LINE SMOOTH",
"468 6 OFFCURVE",
"481 -5 OFFCURVE",
"507 -5 CURVE SMOOTH"
);
}
);
width = 573;
}
);
note = K;
unicode = 004B;
},
{
glyphname = Kcommaaccent;
lastChange = "2015-07-20 14:16:50 +0000";
layers = (
{
layerId = "F84B2E81-E30C-4BCF-B175-C3D49BDC99D5";
name = Light;
paths = (
{
closed = 1;
nodes = (
"519 -5 OFFCURVE",
"529 -3 OFFCURVE",
"541 1 CURVE",
"541 20 LINE",
"493 27 LINE",
"400 232 LINE SMOOTH",
"379 277 OFFCURVE",
"361 297 OFFCURVE",
"315 317 CURVE",
"315 323 LINE",
"364 352 OFFCURVE",
"372 373 OFFCURVE",
"396 415 CURVE SMOOTH",
"431 477 OFFCURVE",
"458 532 OFFCURVE",
"487 598 CURVE",
"458 610 LINE",
"430 545 OFFCURVE",
"402 486 OFFCURVE",
"369 425 CURVE SMOOTH",
"344 378 OFFCURVE",
"319 333 OFFCURVE",
"243 333 CURVE SMOOTH",
"122 333 LINE",
"122 610 LINE",
"91 610 LINE",
"91 0 LINE",
"122 0 LINE",
"122 303 LINE",
"248 303 LINE SMOOTH",
"320 303 OFFCURVE",
"349 268 OFFCURVE",
"375 211 CURVE SMOOTH",
"458 27 LINE SMOOTH",
"468 6 OFFCURVE",
"481 -5 OFFCURVE",
"507 -5 CURVE SMOOTH"
);
},
{
closed = 1;
nodes = (
"299 -186 OFFCURVE",
"314 -145 OFFCURVE",
"314 -98 CURVE SMOOTH",
"314 -60 OFFCURVE",
"296 -40 OFFCURVE",
"261 -40 CURVE SMOOTH",
"248 -40 OFFCURVE",
"237 -42 OFFCURVE",
"228 -45 CURVE",
"228 -69 LINE",
"284 -69 LINE",
"284 -137 OFFCURVE",
"271 -177 OFFCURVE",
"247 -219 CURVE",
"269 -224 LINE"
);
}
);
width = 573;
}
);
note = Kcommaaccent;
unicode = 0136;
},
{
glyphname = L;
lastChange = "2015-07-20 14:16:49 +0000";
layers = (
{
layerId = "F84B2E81-E30C-4BCF-B175-C3D49BDC99D5";
name = Light;
paths = (
{
closed = 1;
nodes = (
"417 0 LINE",
"417 31 LINE",
"123 31 LINE",
"123 610 LINE",
"91 610 LINE",
"91 0 LINE"
);
}
);
width = 454;
}
);
note = L;
unicode = 004C;
},
{
glyphname = Lacute;
lastChange = "2015-07-20 14:16:50 +0000";
layers = (
{
layerId = "F84B2E81-E30C-4BCF-B175-C3D49BDC99D5";
name = Light;
paths = (
{
closed = 1;
nodes = (
"417 0 LINE",
"417 31 LINE",
"123 31 LINE",
"123 610 LINE",
"91 610 LINE",
"91 0 LINE"
);
},
{
closed = 1;
nodes = (
"221 854 LINE",
"176 859 LINE",
"92 720 LINE",
"111 716 LINE"
);
}
);
width = 454;
}
);
note = Lacute;
unicode = 0139;
},
{
glyphname = Lcaron;
lastChange = "2015-07-20 14:16:50 +0000";
layers = (
{
layerId = "F84B2E81-E30C-4BCF-B175-C3D49BDC99D5";
name = Light;
paths = (
{
closed = 1;
nodes = (
"417 0 LINE",
"417 31 LINE",
"123 31 LINE",
"123 610 LINE",
"91 610 LINE",
"91 0 LINE"
);
},
{
closed = 1;
nodes = (
"296 464 OFFCURVE",
"311 505 OFFCURVE",
"311 552 CURVE SMOOTH",
"311 590 OFFCURVE",
"293 610 OFFCURVE",
"258 610 CURVE SMOOTH",
"245 610 OFFCURVE",
"234 608 OFFCURVE",
"225 605 CURVE",
"225 581 LINE",
"281 581 LINE",
"281 513 OFFCURVE",
"268 473 OFFCURVE",
"244 431 CURVE",
"266 426 LINE"
);
}
);
width = 454;
}
);
note = Lcaron;
unicode = 013D;
},
{
glyphname = Lcommaaccent;
lastChange = "2015-07-20 14:16:50 +0000";
layers = (
{
layerId = "F84B2E81-E30C-4BCF-B175-C3D49BDC99D5";
name = Light;
paths = (
{
closed = 1;
nodes = (
"417 0 LINE",
"417 31 LINE",
"123 31 LINE",
"123 610 LINE",
"91 610 LINE",
"91 0 LINE"
);
},
{
closed = 1;
nodes = (
"279 -186 OFFCURVE",
"294 -145 OFFCURVE",
"294 -98 CURVE SMOOTH",
"294 -60 OFFCURVE",
"276 -40 OFFCURVE",
"241 -40 CURVE SMOOTH",
"228 -40 OFFCURVE",
"217 -42 OFFCURVE",
"208 -45 CURVE",
"208 -69 LINE",
"264 -69 LINE",
"264 -137 OFFCURVE",
"251 -177 OFFCURVE",
"227 -219 CURVE",
"249 -224 LINE"
);
}
);
width = 454;
}
);
note = Lcommaaccent;
unicode = 013B;
},
{
glyphname = Ldot;
lastChange = "2015-07-20 14:16:51 +0000";
layers = (
{
layerId = "F84B2E81-E30C-4BCF-B175-C3D49BDC99D5";
name = Light;
paths = (
{
closed = 1;
nodes = (
"417 0 LINE",
"417 31 LINE",
"123 31 LINE",
"123 610 LINE",
"91 610 LINE",
"91 0 LINE"
);
},
{
closed = 1;
nodes = (
"287 265 OFFCURVE",
"300 277 OFFCURVE",
"300 299 CURVE SMOOTH",
"300 323 OFFCURVE",
"287 335 OFFCURVE",
"264 335 CURVE SMOOTH",
"241 335 OFFCURVE",
"227 323 OFFCURVE",
"227 299 CURVE SMOOTH",
"227 277 OFFCURVE",
"241 265 OFFCURVE",
"264 265 CURVE SMOOTH"
);
}
);
width = 454;
}
);
note = Ldot;
unicode = 013F;
},
{
glyphname = Ldotbelow;
lastChange = "2015-07-20 14:16:50 +0000";
layers = (
{
layerId = "F84B2E81-E30C-4BCF-B175-C3D49BDC99D5";
name = Light;
paths = (
{
closed = 1;
nodes = (
"417 0 LINE",
"417 31 LINE",
"123 31 LINE",
"123 610 LINE",
"91 610 LINE",
"91 0 LINE"
);
},
{
closed = 1;
nodes = (
"271 -130 OFFCURVE",
"284 -118 OFFCURVE",
"284 -96 CURVE SMOOTH",
"284 -72 OFFCURVE",
"271 -60 OFFCURVE",
"248 -60 CURVE SMOOTH",
"225 -60 OFFCURVE",
"211 -72 OFFCURVE",
"211 -96 CURVE SMOOTH",
"211 -118 OFFCURVE",
"225 -130 OFFCURVE",
"248 -130 CURVE SMOOTH"
);
}
);
width = 454;
}
);
note = Ldotbelow;
unicode = 1E36;
},
{
glyphname = Ldotbelowmacron;
lastChange = "2015-07-20 14:16:51 +0000";
layers = (
{
layerId = "F84B2E81-E30C-4BCF-B175-C3D49BDC99D5";
name = Light;
paths = (
{
closed = 1;
nodes = (
"442 0 LINE",
"442 31 LINE",
"148 31 LINE",
"148 610 LINE",
"116 610 LINE",
"116 0 LINE"
);
},
{
closed = 1;
nodes = (
"296 -130 OFFCURVE",
"309 -118 OFFCURVE",
"309 -96 CURVE SMOOTH",
"309 -72 OFFCURVE",
"296 -60 OFFCURVE",
"273 -60 CURVE SMOOTH",
"250 -60 OFFCURVE",
"236 -72 OFFCURVE",
"236 -96 CURVE SMOOTH",
"236 -118 OFFCURVE",
"250 -130 OFFCURVE",
"273 -130 CURVE SMOOTH"
);
},
{
closed = 1;
nodes = (
"266 721 LINE",
"266 750 LINE",
"10 750 LINE",
"10 721 LINE"
);
}
);
width = 479;
}
);
note = Ldotbelowmacron;
unicode = 1E38;
},
{
glyphname = Llinebelow;
lastChange = "2015-07-20 14:16:51 +0000";
layers = (
{
layerId = "F84B2E81-E30C-4BCF-B175-C3D49BDC99D5";
name = Light;
paths = (
{
closed = 1;
nodes = (
"417 0 LINE",
"417 31 LINE",
"123 31 LINE",
"123 610 LINE",
"91 610 LINE",
"91 0 LINE"
);
},
{
closed = 1;
nodes = (
"389 -105 LINE",
"389 -73 LINE",
"91 -73 LINE",
"91 -105 LINE"
);
}
);
width = 454;
}
);
note = Llinebelow;
unicode = 1E3A;
},
{
glyphname = Lslash;
lastChange = "2015-07-20 14:16:49 +0000";
layers = (
{
layerId = "F84B2E81-E30C-4BCF-B175-C3D49BDC99D5";
name = Light;
paths = (
{
closed = 1;
nodes = (
"425 0 LINE",
"425 31 LINE",
"151 31 LINE",
"151 290 LINE",
"278 332 LINE",
"269 360 LINE",
"151 321 LINE",
"151 610 LINE",
"119 610 LINE",
"119 310 LINE",
"15 276 LINE",
"24 248 LINE",
"119 279 LINE",
"119 0 LINE"
);
}
);
width = 462;
}
);
note = Lslash;
unicode = 0141;
},
{
glyphname = M;
lastChange = "2015-07-20 14:16:49 +0000";
layers = (
{
layerId = "F84B2E81-E30C-4BCF-B175-C3D49BDC99D5";
name = Light;
paths = (
{
closed = 1;
nodes = (
"112 0 LINE",
"129 320 LINE",
"137 544 LINE",
"143 545 LINE",
"316 196 LINE",
"350 196 LINE",
"523 545 LINE",
"529 544 LINE",
"537 320 LINE",
"554 0 LINE",
"586 0 LINE",
"553 610 LINE",
"524 610 LINE",
"336 229 LINE",
"330 229 LINE",
"142 610 LINE",
"113 610 LINE",
"80 0 LINE"
);
}
);
width = 666;
}
);
note = M;
unicode = 004D;
},
{
glyphname = Mdotbelow;
lastChange = "2015-07-20 17:33:34 +0000";
layers = (
{
layerId = "F84B2E81-E30C-4BCF-B175-C3D49BDC99D5";
name = Light;
paths = (
{
closed = 1;
nodes = (
"112 0 LINE",
"129 320 LINE",
"137 544 LINE",
"143 545 LINE",
"316 196 LINE",
"350 196 LINE",
"523 545 LINE",
"529 544 LINE",
"537 320 LINE",
"554 0 LINE",
"586 0 LINE",
"553 610 LINE",
"524 610 LINE",
"336 229 LINE",
"330 229 LINE",
"142 610 LINE",
"113 610 LINE",
"80 0 LINE"
);
},
{
closed = 1;
nodes = (
"357 -130 OFFCURVE",
"370 -118 OFFCURVE",
"370 -96 CURVE SMOOTH",
"370 -72 OFFCURVE",
"357 -60 OFFCURVE",
"334 -60 CURVE SMOOTH",
"311 -60 OFFCURVE",
"297 -72 OFFCURVE",
"297 -96 CURVE SMOOTH",
"297 -118 OFFCURVE",
"311 -130 OFFCURVE",
"334 -130 CURVE SMOOTH"
);
}
);
width = 666;
}
);
note = Mdotbelow;
unicode = 1E42;
},
{
glyphname = N;
lastChange = "2015-07-20 17:33:45 +0000";
layers = (
{
layerId = "F84B2E81-E30C-4BCF-B175-C3D49BDC99D5";
name = Light;
paths = (
{
closed = 1;
nodes = (
"121 0 LINE",
"121 322 LINE",
"115 559 LINE",
"121 561 LINE",
"477 0 LINE",
"513 0 LINE",
"513 610 LINE",
"482 610 LINE",
"482 288 LINE",
"488 51 LINE",
"482 49 LINE",
"126 610 LINE",
"90 610 LINE",
"90 0 LINE"
);
}
);
width = 603;
}
);
note = N;
unicode = 004E;
},
{
glyphname = Nacute;
lastChange = "2015-07-20 14:16:50 +0000";
layers = (
{
layerId = "F84B2E81-E30C-4BCF-B175-C3D49BDC99D5";
name = Light;
paths = (
{
closed = 1;
nodes = (
"121 0 LINE",
"121 322 LINE",
"115 559 LINE",
"121 561 LINE",
"477 0 LINE",
"513 0 LINE",
"513 610 LINE",
"482 610 LINE",
"482 288 LINE",
"488 51 LINE",
"482 49 LINE",
"126 610 LINE",
"90 610 LINE",
"90 0 LINE"
);
},
{
closed = 1;
nodes = (
"418 855 LINE",
"373 860 LINE",
"289 721 LINE",
"308 717 LINE"
);
}
);
width = 603;
}
);
note = Nacute;
unicode = 0143;
},
{
glyphname = Ncaron;
lastChange = "2015-07-20 14:16:50 +0000";
layers = (
{
layerId = "F84B2E81-E30C-4BCF-B175-C3D49BDC99D5";
name = Light;
paths = (
{
closed = 1;
nodes = (
"121 0 LINE",
"121 322 LINE",
"115 559 LINE",
"121 561 LINE",
"477 0 LINE",
"513 0 LINE",
"513 610 LINE",
"482 610 LINE",
"482 288 LINE",
"488 51 LINE",
"482 49 LINE",
"126 610 LINE",
"90 610 LINE",
"90 0 LINE"
);
},
{
closed = 1;
nodes = (
"336 721 LINE",
"439 852 LINE",
"417 857 LINE",
"320 750 LINE",
"314 750 LINE",
"217 857 LINE",
"195 852 LINE",
"298 721 LINE"
);
}
);
width = 603;
}
);
note = Ncaron;
unicode = 0147;
},
{
glyphname = Ncommaaccent;
lastChange = "2015-07-20 14:16:51 +0000";
layers = (
{
layerId = "F84B2E81-E30C-4BCF-B175-C3D49BDC99D5";
name = Light;
paths = (
{
closed = 1;
nodes = (
"121 0 LINE",
"121 322 LINE",
"115 559 LINE",
"121 561 LINE",
"477 0 LINE",
"513 0 LINE",
"513 610 LINE",
"482 610 LINE",
"482 288 LINE",
"488 51 LINE",
"482 49 LINE",
"126 610 LINE",
"90 610 LINE",
"90 0 LINE"
);
},
{
closed = 1;
nodes = (
"344 -186 OFFCURVE",
"359 -145 OFFCURVE",
"359 -98 CURVE SMOOTH",
"359 -60 OFFCURVE",
"341 -40 OFFCURVE",
"306 -40 CURVE SMOOTH",
"293 -40 OFFCURVE",
"282 -42 OFFCURVE",
"273 -45 CURVE",
"273 -69 LINE",
"329 -69 LINE",
"329 -137 OFFCURVE",
"316 -177 OFFCURVE",
"292 -219 CURVE",
"314 -224 LINE"
);
}
);
width = 603;
}
);
note = Ncommaaccent;
unicode = 0145;
},
{
glyphname = Ndotaccent;
lastChange = "2015-07-20 14:16:51 +0000";
layers = (
{
layerId = "F84B2E81-E30C-4BCF-B175-C3D49BDC99D5";
name = Light;
paths = (
{
closed = 1;
nodes = (
"121 0 LINE",
"121 322 LINE",
"115 559 LINE",
"121 561 LINE",
"477 0 LINE",
"513 0 LINE",
"513 610 LINE",
"482 610 LINE",
"482 288 LINE",
"488 51 LINE",
"482 49 LINE",
"126 610 LINE",
"90 610 LINE",
"90 0 LINE"
);
},
{
closed = 1;
nodes = (
"335 716 OFFCURVE",
"348 728 OFFCURVE",
"348 750 CURVE SMOOTH",
"348 774 OFFCURVE",
"335 786 OFFCURVE",
"312 786 CURVE SMOOTH",
"289 786 OFFCURVE",
"275 774 OFFCURVE",
"275 750 CURVE SMOOTH",
"275 728 OFFCURVE",
"289 716 OFFCURVE",
"312 716 CURVE SMOOTH"
);
}
);
width = 603;
}
);
note = Ndotaccent;
unicode = 1E44;
},
{
glyphname = Ndotbelow;
lastChange = "2015-07-20 14:16:51 +0000";
layers = (
{
layerId = "F84B2E81-E30C-4BCF-B175-C3D49BDC99D5";
name = Light;
paths = (
{
closed = 1;
nodes = (
"121 0 LINE",
"121 322 LINE",
"115 559 LINE",
"121 561 LINE",
"477 0 LINE",
"513 0 LINE",
"513 610 LINE",
"482 610 LINE",
"482 288 LINE",
"488 51 LINE",
"482 49 LINE",
"126 610 LINE",
"90 610 LINE",
"90 0 LINE"
);
},
{
closed = 1;
nodes = (
"325 -130 OFFCURVE",
"338 -118 OFFCURVE",
"338 -96 CURVE SMOOTH",
"338 -72 OFFCURVE",
"325 -60 OFFCURVE",
"302 -60 CURVE SMOOTH",
"279 -60 OFFCURVE",
"265 -72 OFFCURVE",
"265 -96 CURVE SMOOTH",
"265 -118 OFFCURVE",
"279 -130 OFFCURVE",
"302 -130 CURVE SMOOTH"
);
}
);
width = 603;
}
);
note = Ndotbelow;
unicode = 1E46;
},
{
glyphname = Eng;
lastChange = "2015-07-20 14:16:50 +0000";
layers = (
{
layerId = "F84B2E81-E30C-4BCF-B175-C3D49BDC99D5";
name = Light;
paths = (
{
closed = 1;
nodes = (
"478 -168 OFFCURVE",
"513 -122 OFFCURVE",
"513 -36 CURVE SMOOTH",
"513 610 LINE",
"482 610 LINE",
"482 288 LINE",
"488 51 LINE",
"482 49 LINE",
"126 610 LINE",
"90 610 LINE",
"90 0 LINE",
"121 0 LINE",
"121 322 LINE",
"115 559 LINE",
"121 561 LINE",
"481 0 LINE",
"481 -64 LINE SMOOTH",
"481 -88 OFFCURVE",
"479 -103 OFFCURVE",
"473 -121 CURVE",
"441 -144 OFFCURVE",
"402 -161 OFFCURVE",
"357 -174 CURVE",
"373 -209 LINE"
);
}
);
width = 603;
}
);
note = Eng;
unicode = 014A;
},
{
glyphname = Nlinebelow;
lastChange = "2015-07-20 17:34:08 +0000";
layers = (
{
layerId = "F84B2E81-E30C-4BCF-B175-C3D49BDC99D5";
name = Light;
paths = (
{
closed = 1;
nodes = (
"121 0 LINE",
"121 322 LINE",
"115 559 LINE",
"121 561 LINE",
"477 0 LINE",
"513 0 LINE",
"513 610 LINE",
"482 610 LINE",
"482 288 LINE",
"488 51 LINE",
"482 49 LINE",
"126 610 LINE",
"90 610 LINE",
"90 0 LINE"
);
},
{
closed = 1;
nodes = (
"454 -105 LINE",
"454 -73 LINE",
"156 -73 LINE",
"156 -105 LINE"
);
}
);
width = 603;
}
);
note = Nlinebelow;
unicode = 1E48;
},
{
glyphname = Ntilde;
lastChange = "2015-07-20 14:16:51 +0000";
layers = (
{
layerId = "F84B2E81-E30C-4BCF-B175-C3D49BDC99D5";
name = Light;
paths = (
{
closed = 1;
nodes = (
"121 0 LINE",
"121 322 LINE",
"115 559 LINE",
"121 561 LINE",
"477 0 LINE",
"513 0 LINE",
"513 610 LINE",
"482 610 LINE",
"482 288 LINE",
"488 51 LINE",
"482 49 LINE",
"126 610 LINE",
"90 610 LINE",
"90 0 LINE"
);
},
{
closed = 1;
nodes = (
"403 721 OFFCURVE",
"428 754 OFFCURVE",
"431 801 CURVE",
"410 807 LINE",
"405 772 OFFCURVE",
"391 750 OFFCURVE",
"361 750 CURVE SMOOTH",
"319 750 OFFCURVE",
"292 808 OFFCURVE",
"244 808 CURVE SMOOTH",
"203 808 OFFCURVE",
"178 775 OFFCURVE",
"175 728 CURVE",
"196 722 LINE",
"201 757 OFFCURVE",
"215 779 OFFCURVE",
"245 779 CURVE SMOOTH",
"282 779 OFFCURVE",
"312 721 OFFCURVE",
"362 721 CURVE SMOOTH"
);
}
);
width = 603;
}
);
note = Ntilde;
unicode = 00D1;
},
{
glyphname = O;
lastChange = "2015-07-20 19:00:57 +0000";
layers = (
{
layerId = "F84B2E81-E30C-4BCF-B175-C3D49BDC99D5";
name = Light;
paths = (
{
closed = 1;
nodes = (
"476 -10 OFFCURVE",
"530 124 OFFCURVE",
"530 312 CURVE SMOOTH",
"530 512 OFFCURVE",
"467 620 OFFCURVE",
"309 620 CURVE SMOOTH",
"118 620 OFFCURVE",
"64 486 OFFCURVE",
"64 298 CURVE SMOOTH",
"64 98 OFFCURVE",
"127 -10 OFFCURVE",
"285 -10 CURVE SMOOTH"
);
},
{
closed = 1;
nodes = (
"143 21 OFFCURVE",
"96 117 OFFCURVE",
"96 305 CURVE SMOOTH",
"96 411 OFFCURVE",
"118 496 OFFCURVE",
"161 557 CURVE",
"196 578 OFFCURVE",
"248 589 OFFCURVE",
"294 589 CURVE SMOOTH",
"451 589 OFFCURVE",
"498 493 OFFCURVE",
"498 305 CURVE SMOOTH",
"498 199 OFFCURVE",
"476 114 OFFCURVE",
"433 53 CURVE",
"398 32 OFFCURVE",
"346 21 OFFCURVE",
"300 21 CURVE SMOOTH"
);
}
);
width = 594;
}
);
leftKerningGroup = O;
note = O;
rightKerningGroup = O;
unicode = 004F;
},
{
glyphname = Oacute;
lastChange = "2015-07-20 17:36:21 +0000";
layers = (
{
layerId = "F84B2E81-E30C-4BCF-B175-C3D49BDC99D5";
name = Light;
paths = (
{
closed = 1;
nodes = (
"476 -10 OFFCURVE",
"530 124 OFFCURVE",
"530 312 CURVE SMOOTH",
"530 512 OFFCURVE",
"467 620 OFFCURVE",
"309 620 CURVE SMOOTH",
"118 620 OFFCURVE",
"64 486 OFFCURVE",
"64 298 CURVE SMOOTH",
"64 98 OFFCURVE",
"127 -10 OFFCURVE",
"285 -10 CURVE SMOOTH"
);
},
{
closed = 1;
nodes = (
"143 21 OFFCURVE",
"96 117 OFFCURVE",
"96 305 CURVE SMOOTH",
"96 411 OFFCURVE",
"118 496 OFFCURVE",
"161 557 CURVE",
"196 578 OFFCURVE",
"248 589 OFFCURVE",
"294 589 CURVE SMOOTH",
"451 589 OFFCURVE",
"498 493 OFFCURVE",
"498 305 CURVE SMOOTH",
"498 199 OFFCURVE",
"476 114 OFFCURVE",
"433 53 CURVE",
"398 32 OFFCURVE",
"346 21 OFFCURVE",
"300 21 CURVE SMOOTH"
);
},
{
closed = 1;
nodes = (
"419 854 LINE",
"374 859 LINE",
"290 720 LINE",
"309 716 LINE"
);
}
);
width = 594;
}
);
leftKerningGroup = O;
note = Oacute;
rightKerningGroup = O;
unicode = 00D3;
},
{
glyphname = Obreve;
lastChange = "2015-07-20 17:36:21 +0000";
layers = (
{
layerId = "F84B2E81-E30C-4BCF-B175-C3D49BDC99D5";
name = Light;
paths = (
{
closed = 1;
nodes = (
"476 -10 OFFCURVE",
"530 124 OFFCURVE",
"530 312 CURVE SMOOTH",
"530 512 OFFCURVE",
"467 620 OFFCURVE",
"309 620 CURVE SMOOTH",
"118 620 OFFCURVE",
"64 486 OFFCURVE",
"64 298 CURVE SMOOTH",
"64 98 OFFCURVE",
"127 -10 OFFCURVE",
"285 -10 CURVE SMOOTH"
);
},
{
closed = 1;
nodes = (
"143 21 OFFCURVE",
"96 117 OFFCURVE",
"96 305 CURVE SMOOTH",
"96 411 OFFCURVE",
"118 496 OFFCURVE",
"161 557 CURVE",
"196 578 OFFCURVE",
"248 589 OFFCURVE",
"294 589 CURVE SMOOTH",
"451 589 OFFCURVE",
"498 493 OFFCURVE",
"498 305 CURVE SMOOTH",
"498 199 OFFCURVE",
"476 114 OFFCURVE",
"433 53 CURVE",
"398 32 OFFCURVE",
"346 21 OFFCURVE",
"300 21 CURVE SMOOTH"
);
},
{
closed = 1;
nodes = (
"371 716 OFFCURVE",
"402 760 OFFCURVE",
"414 812 CURVE",
"381 818 LINE",
"372 776 OFFCURVE",
"354 745 OFFCURVE",
"297 745 CURVE SMOOTH",
"240 745 OFFCURVE",
"222 776 OFFCURVE",
"213 818 CURVE",
"180 812 LINE",
"192 760 OFFCURVE",
"223 716 OFFCURVE",
"297 716 CURVE SMOOTH"
);
}
);
width = 594;
}
);
leftKerningGroup = O;
note = Obreve;
rightKerningGroup = O;
unicode = 014E;
},
{
glyphname = Ocaron;
lastChange = "2015-07-20 17:36:21 +0000";
layers = (
{
layerId = "F84B2E81-E30C-4BCF-B175-C3D49BDC99D5";
name = Light;
paths = (
{
closed = 1;
nodes = (
"476 -10 OFFCURVE",
"530 124 OFFCURVE",
"530 312 CURVE SMOOTH",
"530 512 OFFCURVE",
"467 620 OFFCURVE",
"309 620 CURVE SMOOTH",
"118 620 OFFCURVE",
"64 486 OFFCURVE",
"64 298 CURVE SMOOTH",
"64 98 OFFCURVE",
"127 -10 OFFCURVE",
"285 -10 CURVE SMOOTH"
);
},
{
closed = 1;
nodes = (
"143 21 OFFCURVE",
"96 117 OFFCURVE",
"96 305 CURVE SMOOTH",
"96 411 OFFCURVE",
"118 496 OFFCURVE",
"161 557 CURVE",
"196 578 OFFCURVE",
"248 589 OFFCURVE",
"294 589 CURVE SMOOTH",
"451 589 OFFCURVE",
"498 493 OFFCURVE",
"498 305 CURVE SMOOTH",
"498 199 OFFCURVE",
"476 114 OFFCURVE",
"433 53 CURVE",
"398 32 OFFCURVE",
"346 21 OFFCURVE",
"300 21 CURVE SMOOTH"
);
},
{
closed = 1;
nodes = (
"321 721 LINE",
"424 852 LINE",
"402 857 LINE",
"305 750 LINE",
"299 750 LINE",
"202 857 LINE",
"180 852 LINE",
"283 721 LINE"
);
}
);
width = 594;
}
);
leftKerningGroup = O;
note = Ocaron;
rightKerningGroup = O;
unicode = 01D1;
},
{
glyphname = Ocircumflex;
lastChange = "2015-07-20 17:36:21 +0000";
layers = (
{
layerId = "F84B2E81-E30C-4BCF-B175-C3D49BDC99D5";
name = Light;
paths = (
{
closed = 1;
nodes = (
"476 -10 OFFCURVE",
"530 124 OFFCURVE",
"530 312 CURVE SMOOTH",
"530 512 OFFCURVE",
"467 620 OFFCURVE",
"309 620 CURVE SMOOTH",
"118 620 OFFCURVE",
"64 486 OFFCURVE",
"64 298 CURVE SMOOTH",
"64 98 OFFCURVE",
"127 -10 OFFCURVE",
"285 -10 CURVE SMOOTH"
);
},
{
closed = 1;
nodes = (
"143 21 OFFCURVE",
"96 117 OFFCURVE",
"96 305 CURVE SMOOTH",
"96 411 OFFCURVE",
"118 496 OFFCURVE",
"161 557 CURVE",
"196 578 OFFCURVE",
"248 589 OFFCURVE",
"294 589 CURVE SMOOTH",
"451 589 OFFCURVE",
"498 493 OFFCURVE",
"498 305 CURVE SMOOTH",
"498 199 OFFCURVE",
"476 114 OFFCURVE",
"433 53 CURVE",
"398 32 OFFCURVE",
"346 21 OFFCURVE",
"300 21 CURVE SMOOTH"
);
},
{
closed = 1;
nodes = (
"304 823 LINE",
"310 823 LINE",
"407 716 LINE",
"429 721 LINE",
"326 852 LINE",
"288 852 LINE",
"185 721 LINE",
"207 716 LINE"
);
}
);
width = 594;
}
);
leftKerningGroup = O;
note = Ocircumflex;
rightKerningGroup = O;
unicode = 00D4;
},
{
glyphname = Ocircumflexacute;
lastChange = "2015-07-20 17:36:21 +0000";
layers = (
{
layerId = "F84B2E81-E30C-4BCF-B175-C3D49BDC99D5";
name = Light;
paths = (
{
closed = 1;
nodes = (
"476 -10 OFFCURVE",
"530 124 OFFCURVE",
"530 312 CURVE SMOOTH",
"530 512 OFFCURVE",
"467 620 OFFCURVE",
"309 620 CURVE SMOOTH",
"118 620 OFFCURVE",
"64 486 OFFCURVE",
"64 298 CURVE SMOOTH",
"64 98 OFFCURVE",
"127 -10 OFFCURVE",
"285 -10 CURVE SMOOTH"
);
},
{
closed = 1;
nodes = (
"143 21 OFFCURVE",
"96 117 OFFCURVE",
"96 305 CURVE SMOOTH",
"96 411 OFFCURVE",
"118 496 OFFCURVE",
"161 557 CURVE",
"196 578 OFFCURVE",
"248 589 OFFCURVE",
"294 589 CURVE SMOOTH",
"451 589 OFFCURVE",
"498 493 OFFCURVE",
"498 305 CURVE SMOOTH",
"498 199 OFFCURVE",
"476 114 OFFCURVE",
"433 53 CURVE",
"398 32 OFFCURVE",
"346 21 OFFCURVE",
"300 21 CURVE SMOOTH"
);
},
{
closed = 1;
nodes = (
"298 823 LINE",
"304 823 LINE",
"401 716 LINE",
"423 721 LINE",
"320 852 LINE",
"282 852 LINE",
"179 721 LINE",
"201 716 LINE"
);
},
{
closed = 1;
nodes = (
"533 903 LINE",
"496 910 LINE",
"434 808 LINE",
"453 804 LINE"
);
}
);
width = 593;
}
);
leftKerningGroup = O;
note = Ocircumflexacute;
rightKerningGroup = O;
unicode = 1ED0;
},
{
glyphname = Ocircumflexdotbelow;
lastChange = "2015-07-20 17:36:21 +0000";
layers = (
{
layerId = "F84B2E81-E30C-4BCF-B175-C3D49BDC99D5";
name = Light;
paths = (
{
closed = 1;
nodes = (
"476 -10 OFFCURVE",
"530 124 OFFCURVE",
"530 312 CURVE SMOOTH",
"530 512 OFFCURVE",
"467 620 OFFCURVE",
"309 620 CURVE SMOOTH",
"118 620 OFFCURVE",
"64 486 OFFCURVE",
"64 298 CURVE SMOOTH",
"64 98 OFFCURVE",
"127 -10 OFFCURVE",
"285 -10 CURVE SMOOTH"
);
},
{
closed = 1;
nodes = (
"321 -142 OFFCURVE",
"334 -130 OFFCURVE",
"334 -108 CURVE SMOOTH",
"334 -84 OFFCURVE",
"321 -72 OFFCURVE",
"298 -72 CURVE SMOOTH",
"275 -72 OFFCURVE",
"261 -84 OFFCURVE",
"261 -108 CURVE SMOOTH",
"261 -130 OFFCURVE",
"275 -142 OFFCURVE",
"298 -142 CURVE SMOOTH"
);
},
{
closed = 1;
nodes = (
"143 21 OFFCURVE",
"96 117 OFFCURVE",
"96 305 CURVE SMOOTH",
"96 411 OFFCURVE",
"118 496 OFFCURVE",
"161 557 CURVE",
"196 578 OFFCURVE",
"248 589 OFFCURVE",
"294 589 CURVE SMOOTH",
"451 589 OFFCURVE",
"498 493 OFFCURVE",
"498 305 CURVE SMOOTH",
"498 199 OFFCURVE",
"476 114 OFFCURVE",
"433 53 CURVE",
"398 32 OFFCURVE",
"346 21 OFFCURVE",
"300 21 CURVE SMOOTH"
);
},
{
closed = 1;
nodes = (
"294 823 LINE",
"300 823 LINE",
"397 716 LINE",
"419 721 LINE",
"316 852 LINE",
"278 852 LINE",
"175 721 LINE",
"197 716 LINE"
);
}
);
width = 594;
}
);
leftKerningGroup = O;
note = Ocircumflexdotbelow;
rightKerningGroup = O;
unicode = 1ED8;
},
{
glyphname = Ocircumflexgrave;
lastChange = "2015-07-20 17:36:21 +0000";
layers = (
{
layerId = "F84B2E81-E30C-4BCF-B175-C3D49BDC99D5";
name = Light;
paths = (
{
closed = 1;
nodes = (
"476 -10 OFFCURVE",
"530 124 OFFCURVE",
"530 312 CURVE SMOOTH",
"530 512 OFFCURVE",
"467 620 OFFCURVE",
"309 620 CURVE SMOOTH",
"118 620 OFFCURVE",
"64 486 OFFCURVE",
"64 298 CURVE SMOOTH",
"64 98 OFFCURVE",
"127 -10 OFFCURVE",
"285 -10 CURVE SMOOTH"
);
},
{
closed = 1;
nodes = (
"143 21 OFFCURVE",
"96 117 OFFCURVE",
"96 305 CURVE SMOOTH",
"96 411 OFFCURVE",
"118 496 OFFCURVE",
"161 557 CURVE",
"196 578 OFFCURVE",
"248 589 OFFCURVE",
"294 589 CURVE SMOOTH",
"451 589 OFFCURVE",
"498 493 OFFCURVE",
"498 305 CURVE SMOOTH",
"498 199 OFFCURVE",
"476 114 OFFCURVE",
"433 53 CURVE",
"398 32 OFFCURVE",
"346 21 OFFCURVE",
"300 21 CURVE SMOOTH"
);
},
{
closed = 1;
nodes = (
"300 822 LINE",
"306 822 LINE",
"403 715 LINE",
"425 720 LINE",
"322 851 LINE",
"284 851 LINE",
"181 720 LINE",
"203 715 LINE"
);
},
{
closed = 1;
nodes = (
"166 807 LINE",
"104 909 LINE",
"67 902 LINE",
"147 803 LINE"
);
}
);
width = 594;
}
);
leftKerningGroup = O;
note = Ocircumflexgrave;
rightKerningGroup = O;
unicode = 1ED2;
},
{
glyphname = Ocircumflexhookabove;
lastChange = "2015-07-20 17:36:21 +0000";
layers = (
{
layerId = "F84B2E81-E30C-4BCF-B175-C3D49BDC99D5";
name = Light;
paths = (
{
closed = 1;
nodes = (
"476 -10 OFFCURVE",
"530 124 OFFCURVE",
"530 312 CURVE SMOOTH",
"530 512 OFFCURVE",
"467 620 OFFCURVE",
"309 620 CURVE SMOOTH",
"118 620 OFFCURVE",
"64 486 OFFCURVE",
"64 298 CURVE SMOOTH",
"64 98 OFFCURVE",
"127 -10 OFFCURVE",
"285 -10 CURVE SMOOTH"
);
},
{
closed = 1;
nodes = (
"143 21 OFFCURVE",
"96 117 OFFCURVE",
"96 305 CURVE SMOOTH",
"96 411 OFFCURVE",
"118 496 OFFCURVE",
"161 557 CURVE",
"196 578 OFFCURVE",
"248 589 OFFCURVE",
"294 589 CURVE SMOOTH",
"451 589 OFFCURVE",
"498 493 OFFCURVE",
"498 305 CURVE SMOOTH",
"498 199 OFFCURVE",
"476 114 OFFCURVE",
"433 53 CURVE",
"398 32 OFFCURVE",
"346 21 OFFCURVE",
"300 21 CURVE SMOOTH"
);
},
{
closed = 1;
nodes = (
"301 822 LINE",
"307 822 LINE",
"404 715 LINE",
"426 720 LINE",
"323 851 LINE",
"285 851 LINE",
"182 720 LINE",
"204 715 LINE"
);
},
{
closed = 1;
nodes = (
"455 819 LINE",
"455 857 LINE",
"494 859 OFFCURVE",
"517 875 OFFCURVE",
"517 907 CURVE SMOOTH",
"517 938 OFFCURVE",
"498 959 OFFCURVE",
"461 959 CURVE SMOOTH",
"444 959 OFFCURVE",
"431 956 OFFCURVE",
"414 950 CURVE",
"420 928 LINE",
"433 932 OFFCURVE",
"444 934 OFFCURVE",
"457 934 CURVE SMOOTH",
"480 934 OFFCURVE",
"491 927 OFFCURVE",
"491 907 CURVE SMOOTH",
"491 886 OFFCURVE",
"477 879 OFFCURVE",
"429 879 CURVE",
"429 862 LINE",
"437 819 LINE"
);
}
);
width = 594;
}
);
leftKerningGroup = O;
note = Ocircumflexhookabove;
rightKerningGroup = O;
unicode = 1ED4;
},
{
glyphname = Ocircumflextilde;
lastChange = "2015-07-20 17:36:21 +0000";
layers = (
{
layerId = "F84B2E81-E30C-4BCF-B175-C3D49BDC99D5";
name = Light;
paths = (
{
closed = 1;
nodes = (
"476 -10 OFFCURVE",
"530 124 OFFCURVE",
"530 312 CURVE SMOOTH",
"530 512 OFFCURVE",
"467 620 OFFCURVE",
"309 620 CURVE SMOOTH",
"118 620 OFFCURVE",
"64 486 OFFCURVE",
"64 298 CURVE SMOOTH",
"64 98 OFFCURVE",
"127 -10 OFFCURVE",
"285 -10 CURVE SMOOTH"
);
},
{
closed = 1;
nodes = (
"143 21 OFFCURVE",
"96 117 OFFCURVE",
"96 305 CURVE SMOOTH",
"96 411 OFFCURVE",
"118 496 OFFCURVE",
"161 557 CURVE",
"196 578 OFFCURVE",
"248 589 OFFCURVE",
"294 589 CURVE SMOOTH",
"451 589 OFFCURVE",
"498 493 OFFCURVE",
"498 305 CURVE SMOOTH",
"498 199 OFFCURVE",
"476 114 OFFCURVE",
"433 53 CURVE",
"398 32 OFFCURVE",
"346 21 OFFCURVE",
"300 21 CURVE SMOOTH"
);
},
{
closed = 1;
nodes = (
"307 823 LINE",
"313 823 LINE",
"410 716 LINE",
"432 721 LINE",
"329 852 LINE",
"291 852 LINE",
"188 721 LINE",
"210 716 LINE"
);
},
{
closed = 1;
nodes = (
"226 943 OFFCURVE",
"240 953 OFFCURVE",
"266 953 CURVE SMOOTH",
"302 953 OFFCURVE",
"313 920 OFFCURVE",
"357 920 CURVE SMOOTH",
"385 920 OFFCURVE",
"409 936 OFFCURVE",
"417 978 CURVE",
"398 983 LINE",
"391 956 OFFCURVE",
"377 946 OFFCURVE",
"351 946 CURVE SMOOTH",
"324 946 OFFCURVE",
"311 979 OFFCURVE",
"260 979 CURVE SMOOTH",
"232 979 OFFCURVE",
"208 963 OFFCURVE",
"200 921 CURVE",
"219 916 LINE"
);
}
);
width = 594;
}
);
leftKerningGroup = O;
note = Ocircumflextilde;
rightKerningGroup = O;
unicode = 1ED6;
},
{
glyphname = Odieresis;
lastChange = "2015-07-20 17:36:21 +0000";
layers = (
{
layerId = "F84B2E81-E30C-4BCF-B175-C3D49BDC99D5";
name = Light;
paths = (
{
closed = 1;
nodes = (
"476 -10 OFFCURVE",
"530 124 OFFCURVE",
"530 312 CURVE SMOOTH",
"530 512 OFFCURVE",
"467 620 OFFCURVE",
"309 620 CURVE SMOOTH",
"118 620 OFFCURVE",
"64 486 OFFCURVE",
"64 298 CURVE SMOOTH",
"64 98 OFFCURVE",
"127 -10 OFFCURVE",
"285 -10 CURVE SMOOTH"
);
},
{
closed = 1;
nodes = (
"143 21 OFFCURVE",
"96 117 OFFCURVE",
"96 305 CURVE SMOOTH",
"96 411 OFFCURVE",
"118 496 OFFCURVE",
"161 557 CURVE",
"196 578 OFFCURVE",
"248 589 OFFCURVE",
"294 589 CURVE SMOOTH",
"451 589 OFFCURVE",
"498 493 OFFCURVE",
"498 305 CURVE SMOOTH",
"498 199 OFFCURVE",
"476 114 OFFCURVE",
"433 53 CURVE",
"398 32 OFFCURVE",
"346 21 OFFCURVE",
"300 21 CURVE SMOOTH"
);
},
{
closed = 1;
nodes = (
"235 716 OFFCURVE",
"245 726 OFFCURVE",
"245 743 CURVE SMOOTH",
"245 761 OFFCURVE",
"235 770 OFFCURVE",
"218 770 CURVE SMOOTH",
"201 770 OFFCURVE",
"190 761 OFFCURVE",
"190 743 CURVE SMOOTH",
"190 726 OFFCURVE",
"201 716 OFFCURVE",
"218 716 CURVE SMOOTH"
);
},
{
closed = 1;
nodes = (
"393 716 OFFCURVE",
"403 726 OFFCURVE",
"403 743 CURVE SMOOTH",
"403 761 OFFCURVE",
"393 770 OFFCURVE",
"376 770 CURVE SMOOTH",
"358 770 OFFCURVE",
"347 761 OFFCURVE",
"347 743 CURVE SMOOTH",
"347 726 OFFCURVE",
"358 716 OFFCURVE",
"376 716 CURVE SMOOTH"
);
}
);
width = 594;
}
);
leftKerningGroup = O;
note = Odieresis;
rightKerningGroup = O;
unicode = 00D6;
},
{
glyphname = Odotbelow;
lastChange = "2015-07-20 17:36:21 +0000";
layers = (
{
layerId = "F84B2E81-E30C-4BCF-B175-C3D49BDC99D5";
name = Light;
paths = (
{
closed = 1;
nodes = (
"476 -10 OFFCURVE",
"530 124 OFFCURVE",
"530 312 CURVE SMOOTH",
"530 512 OFFCURVE",
"467 620 OFFCURVE",
"309 620 CURVE SMOOTH",
"118 620 OFFCURVE",
"64 486 OFFCURVE",
"64 298 CURVE SMOOTH",
"64 98 OFFCURVE",
"127 -10 OFFCURVE",
"285 -10 CURVE SMOOTH"
);
},
{
closed = 1;
nodes = (
"316 -142 OFFCURVE",
"329 -130 OFFCURVE",
"329 -108 CURVE SMOOTH",
"329 -84 OFFCURVE",
"316 -72 OFFCURVE",
"293 -72 CURVE SMOOTH",
"270 -72 OFFCURVE",
"256 -84 OFFCURVE",
"256 -108 CURVE SMOOTH",
"256 -130 OFFCURVE",
"270 -142 OFFCURVE",
"293 -142 CURVE SMOOTH"
);
},
{
closed = 1;
nodes = (
"143 21 OFFCURVE",
"96 117 OFFCURVE",
"96 305 CURVE SMOOTH",
"96 411 OFFCURVE",
"118 496 OFFCURVE",
"161 557 CURVE",
"196 578 OFFCURVE",
"248 589 OFFCURVE",
"294 589 CURVE SMOOTH",
"451 589 OFFCURVE",
"498 493 OFFCURVE",
"498 305 CURVE SMOOTH",
"498 199 OFFCURVE",
"476 114 OFFCURVE",
"433 53 CURVE",
"398 32 OFFCURVE",
"346 21 OFFCURVE",
"300 21 CURVE SMOOTH"
);
}
);
width = 594;
}
);
leftKerningGroup = O;
note = Odotbelow;
rightKerningGroup = O;
unicode = 1ECC;
},
{
glyphname = Ograve;
lastChange = "2015-07-20 17:36:21 +0000";
layers = (
{
layerId = "F84B2E81-E30C-4BCF-B175-C3D49BDC99D5";
name = Light;
paths = (
{
closed = 1;
nodes = (
"476 -10 OFFCURVE",
"530 124 OFFCURVE",
"530 312 CURVE SMOOTH",
"530 512 OFFCURVE",
"467 620 OFFCURVE",
"309 620 CURVE SMOOTH",
"118 620 OFFCURVE",
"64 486 OFFCURVE",
"64 298 CURVE SMOOTH",
"64 98 OFFCURVE",
"127 -10 OFFCURVE",
"285 -10 CURVE SMOOTH"
);
},
{
closed = 1;
nodes = (
"143 21 OFFCURVE",
"96 117 OFFCURVE",
"96 305 CURVE SMOOTH",
"96 411 OFFCURVE",
"118 496 OFFCURVE",
"161 557 CURVE",
"196 578 OFFCURVE",
"248 589 OFFCURVE",
"294 589 CURVE SMOOTH",
"451 589 OFFCURVE",
"498 493 OFFCURVE",
"498 305 CURVE SMOOTH",
"498 199 OFFCURVE",
"476 114 OFFCURVE",
"433 53 CURVE",
"398 32 OFFCURVE",
"346 21 OFFCURVE",
"300 21 CURVE SMOOTH"
);
},
{
closed = 1;
nodes = (
"331 719 LINE",
"247 858 LINE",
"202 853 LINE",
"312 715 LINE"
);
}
);
width = 594;
}
);
leftKerningGroup = O;
note = Ograve;
rightKerningGroup = O;
unicode = 00D2;
},
{
glyphname = Ohookabove;
lastChange = "2015-07-20 17:36:21 +0000";
layers = (
{
layerId = "F84B2E81-E30C-4BCF-B175-C3D49BDC99D5";
name = Light;
paths = (
{
closed = 1;
nodes = (
"476 -10 OFFCURVE",
"530 124 OFFCURVE",
"530 312 CURVE SMOOTH",
"530 512 OFFCURVE",
"467 620 OFFCURVE",
"309 620 CURVE SMOOTH",
"118 620 OFFCURVE",
"64 486 OFFCURVE",
"64 298 CURVE SMOOTH",
"64 98 OFFCURVE",
"127 -10 OFFCURVE",
"285 -10 CURVE SMOOTH"
);
},
{
closed = 1;
nodes = (
"143 21 OFFCURVE",
"96 117 OFFCURVE",
"96 305 CURVE SMOOTH",
"96 411 OFFCURVE",
"118 496 OFFCURVE",
"161 557 CURVE",
"196 578 OFFCURVE",
"248 589 OFFCURVE",
"294 589 CURVE SMOOTH",
"451 589 OFFCURVE",
"498 493 OFFCURVE",
"498 305 CURVE SMOOTH",
"498 199 OFFCURVE",
"476 114 OFFCURVE",
"433 53 CURVE",
"398 32 OFFCURVE",
"346 21 OFFCURVE",
"300 21 CURVE SMOOTH"
);
},
{
closed = 1;
nodes = (
"310 721 LINE",
"310 760 LINE",
"360 764 OFFCURVE",
"398 780 OFFCURVE",
"398 834 CURVE SMOOTH",
"398 874 OFFCURVE",
"377 905 OFFCURVE",
"324 905 CURVE SMOOTH",
"299 905 OFFCURVE",
"284 902 OFFCURVE",
"262 894 CURVE",
"270 869 LINE",
"287 874 OFFCURVE",
"302 876 OFFCURVE",
"318 876 CURVE SMOOTH",
"355 876 OFFCURVE",
"368 860 OFFCURVE",
"368 834 CURVE SMOOTH",
"368 798 OFFCURVE",
"346 788 OFFCURVE",
"280 788 CURVE",
"280 770 LINE",
"290 721 LINE"
);
}
);
width = 594;
}
);
leftKerningGroup = O;
note = Ohookabove;
rightKerningGroup = O;
unicode = 1ECE;
},
{
glyphname = Ohorn;
lastChange = "2015-07-20 17:36:30 +0000";
layers = (
{
layerId = "F84B2E81-E30C-4BCF-B175-C3D49BDC99D5";
name = Light;
paths = (
{
closed = 1;
nodes = (
"476 -10 OFFCURVE",
"530 124 OFFCURVE",
"530 312 CURVE SMOOTH",
"530 382 OFFCURVE",
"522 440 OFFCURVE",
"505 487 CURVE",
"569 538 OFFCURVE",
"595 619 OFFCURVE",
"599 716 CURVE",
"567 716 LINE",
"564 635 OFFCURVE",
"545 572 OFFCURVE",
"514 517 CURVE",
"493 517 LINE",
"459 584 OFFCURVE",
"399 620 OFFCURVE",
"309 620 CURVE SMOOTH",
"118 620 OFFCURVE",
"64 486 OFFCURVE",
"64 298 CURVE SMOOTH",
"64 98 OFFCURVE",
"127 -10 OFFCURVE",
"285 -10 CURVE SMOOTH"
);
},
{
closed = 1;
nodes = (
"143 21 OFFCURVE",
"96 117 OFFCURVE",
"96 305 CURVE SMOOTH",
"96 411 OFFCURVE",
"118 496 OFFCURVE",
"161 557 CURVE",
"196 578 OFFCURVE",
"248 589 OFFCURVE",
"294 589 CURVE SMOOTH",
"451 589 OFFCURVE",
"498 493 OFFCURVE",
"498 305 CURVE SMOOTH",
"498 199 OFFCURVE",
"476 114 OFFCURVE",
"433 53 CURVE",
"398 32 OFFCURVE",
"346 21 OFFCURVE",
"300 21 CURVE SMOOTH"
);
}
);
width = 624;
}
);
leftKerningGroup = O;
note = Ohorn;
unicode = 01A0;
},
{
glyphname = Ohornacute;
lastChange = "2015-07-20 17:36:30 +0000";
layers = (
{
layerId = "F84B2E81-E30C-4BCF-B175-C3D49BDC99D5";
name = Light;
paths = (
{
closed = 1;
nodes = (
"415 855 LINE",
"370 860 LINE",
"286 721 LINE",
"305 717 LINE"
);
},
{
closed = 1;
nodes = (
"476 -10 OFFCURVE",
"530 124 OFFCURVE",
"530 312 CURVE SMOOTH",
"530 382 OFFCURVE",
"522 440 OFFCURVE",
"505 487 CURVE",
"569 538 OFFCURVE",
"595 619 OFFCURVE",
"599 716 CURVE",
"567 716 LINE",
"564 635 OFFCURVE",
"545 572 OFFCURVE",
"514 517 CURVE",
"493 517 LINE",
"459 584 OFFCURVE",
"399 620 OFFCURVE",
"309 620 CURVE SMOOTH",
"118 620 OFFCURVE",
"64 486 OFFCURVE",
"64 298 CURVE SMOOTH",
"64 98 OFFCURVE",
"127 -10 OFFCURVE",
"285 -10 CURVE SMOOTH"
);
},
{
closed = 1;
nodes = (
"143 21 OFFCURVE",
"96 117 OFFCURVE",
"96 305 CURVE SMOOTH",
"96 411 OFFCURVE",
"118 496 OFFCURVE",
"161 557 CURVE",
"196 578 OFFCURVE",
"248 589 OFFCURVE",
"294 589 CURVE SMOOTH",
"451 589 OFFCURVE",
"498 493 OFFCURVE",
"498 305 CURVE SMOOTH",
"498 199 OFFCURVE",
"476 114 OFFCURVE",
"433 53 CURVE",
"398 32 OFFCURVE",
"346 21 OFFCURVE",
"300 21 CURVE SMOOTH"
);
}
);
width = 624;
}
);
leftKerningGroup = O;
note = Ohornacute;
unicode = 1EDA;
},
{
glyphname = Ohorndotbelow;
lastChange = "2015-07-20 17:36:30 +0000";
layers = (
{
layerId = "F84B2E81-E30C-4BCF-B175-C3D49BDC99D5";
name = Light;
paths = (
{
closed = 1;
nodes = (
"326 -142 OFFCURVE",
"339 -130 OFFCURVE",
"339 -108 CURVE SMOOTH",
"339 -84 OFFCURVE",
"326 -72 OFFCURVE",
"303 -72 CURVE SMOOTH",
"280 -72 OFFCURVE",
"266 -84 OFFCURVE",
"266 -108 CURVE SMOOTH",
"266 -130 OFFCURVE",
"280 -142 OFFCURVE",
"303 -142 CURVE SMOOTH"
);
},
{
closed = 1;
nodes = (
"476 -10 OFFCURVE",
"530 124 OFFCURVE",
"530 312 CURVE SMOOTH",
"530 382 OFFCURVE",
"522 440 OFFCURVE",
"505 487 CURVE",
"569 538 OFFCURVE",
"595 619 OFFCURVE",
"599 716 CURVE",
"567 716 LINE",
"564 635 OFFCURVE",
"545 572 OFFCURVE",
"514 517 CURVE",
"493 517 LINE",
"459 584 OFFCURVE",
"399 620 OFFCURVE",
"309 620 CURVE SMOOTH",
"118 620 OFFCURVE",
"64 486 OFFCURVE",
"64 298 CURVE SMOOTH",
"64 98 OFFCURVE",
"127 -10 OFFCURVE",
"285 -10 CURVE SMOOTH"
);
},
{
closed = 1;
nodes = (
"143 21 OFFCURVE",
"96 117 OFFCURVE",
"96 305 CURVE SMOOTH",
"96 411 OFFCURVE",
"118 496 OFFCURVE",
"161 557 CURVE",
"196 578 OFFCURVE",
"248 589 OFFCURVE",
"294 589 CURVE SMOOTH",
"451 589 OFFCURVE",
"498 493 OFFCURVE",
"498 305 CURVE SMOOTH",
"498 199 OFFCURVE",
"476 114 OFFCURVE",
"433 53 CURVE",
"398 32 OFFCURVE",
"346 21 OFFCURVE",
"300 21 CURVE SMOOTH"
);
}
);
width = 624;
}
);
leftKerningGroup = O;
note = Ohorndotbelow;
unicode = 1EE2;
},
{
glyphname = Ohorngrave;
lastChange = "2015-07-20 17:36:30 +0000";
layers = (
{
layerId = "F84B2E81-E30C-4BCF-B175-C3D49BDC99D5";
name = Light;
paths = (
{
closed = 1;
nodes = (
"334 721 LINE",
"250 860 LINE",
"205 855 LINE",
"315 717 LINE"
);
},
{
closed = 1;
nodes = (
"476 -10 OFFCURVE",
"530 124 OFFCURVE",
"530 312 CURVE SMOOTH",
"530 382 OFFCURVE",
"522 440 OFFCURVE",
"505 487 CURVE",
"569 538 OFFCURVE",
"595 619 OFFCURVE",
"599 716 CURVE",
"567 716 LINE",
"564 635 OFFCURVE",
"545 572 OFFCURVE",
"514 517 CURVE",
"493 517 LINE",
"459 584 OFFCURVE",
"399 620 OFFCURVE",
"309 620 CURVE SMOOTH",
"118 620 OFFCURVE",
"64 486 OFFCURVE",
"64 298 CURVE SMOOTH",
"64 98 OFFCURVE",
"127 -10 OFFCURVE",
"285 -10 CURVE SMOOTH"
);
},
{
closed = 1;
nodes = (
"143 21 OFFCURVE",
"96 117 OFFCURVE",
"96 305 CURVE SMOOTH",
"96 411 OFFCURVE",
"118 496 OFFCURVE",
"161 557 CURVE",
"196 578 OFFCURVE",
"248 589 OFFCURVE",
"294 589 CURVE SMOOTH",
"451 589 OFFCURVE",
"498 493 OFFCURVE",
"498 305 CURVE SMOOTH",
"498 199 OFFCURVE",
"476 114 OFFCURVE",
"433 53 CURVE",
"398 32 OFFCURVE",
"346 21 OFFCURVE",
"300 21 CURVE SMOOTH"
);
}
);
width = 624;
}
);
leftKerningGroup = O;
note = Ohorngrave;
unicode = 1EDC;
},
{
glyphname = Ohornhookabove;
lastChange = "2015-07-20 17:36:30 +0000";
layers = (
{
layerId = "F84B2E81-E30C-4BCF-B175-C3D49BDC99D5";
name = Light;
paths = (
{
closed = 1;
nodes = (
"312 721 LINE",
"312 760 LINE",
"362 764 OFFCURVE",
"400 780 OFFCURVE",
"400 834 CURVE SMOOTH",
"400 874 OFFCURVE",
"379 905 OFFCURVE",
"326 905 CURVE SMOOTH",
"301 905 OFFCURVE",
"286 902 OFFCURVE",
"264 894 CURVE",
"272 869 LINE",
"289 874 OFFCURVE",
"304 876 OFFCURVE",
"320 876 CURVE SMOOTH",
"357 876 OFFCURVE",
"370 860 OFFCURVE",
"370 834 CURVE SMOOTH",
"370 798 OFFCURVE",
"348 788 OFFCURVE",
"282 788 CURVE",
"282 770 LINE",
"292 721 LINE"
);
},
{
closed = 1;
nodes = (
"476 -10 OFFCURVE",
"530 124 OFFCURVE",
"530 312 CURVE SMOOTH",
"530 382 OFFCURVE",
"522 440 OFFCURVE",
"505 487 CURVE",
"569 538 OFFCURVE",
"595 619 OFFCURVE",
"599 716 CURVE",
"567 716 LINE",
"564 635 OFFCURVE",
"545 572 OFFCURVE",
"514 517 CURVE",
"493 517 LINE",
"459 584 OFFCURVE",
"399 620 OFFCURVE",
"309 620 CURVE SMOOTH",
"118 620 OFFCURVE",
"64 486 OFFCURVE",
"64 298 CURVE SMOOTH",
"64 98 OFFCURVE",
"127 -10 OFFCURVE",
"285 -10 CURVE SMOOTH"
);
},
{
closed = 1;
nodes = (
"143 21 OFFCURVE",
"96 117 OFFCURVE",
"96 305 CURVE SMOOTH",
"96 411 OFFCURVE",
"118 496 OFFCURVE",
"161 557 CURVE",
"196 578 OFFCURVE",
"248 589 OFFCURVE",
"294 589 CURVE SMOOTH",
"451 589 OFFCURVE",
"498 493 OFFCURVE",
"498 305 CURVE SMOOTH",
"498 199 OFFCURVE",
"476 114 OFFCURVE",
"433 53 CURVE",
"398 32 OFFCURVE",
"346 21 OFFCURVE",
"300 21 CURVE SMOOTH"
);
}
);
width = 624;
}
);
leftKerningGroup = O;
note = Ohornhookabove;
unicode = 1EDE;
},
{
glyphname = Ohorntilde;
lastChange = "2015-07-20 17:36:30 +0000";
layers = (
{
layerId = "F84B2E81-E30C-4BCF-B175-C3D49BDC99D5";
name = Light;
paths = (
{
closed = 1;
nodes = (
"404 716 OFFCURVE",
"429 749 OFFCURVE",
"432 796 CURVE",
"411 802 LINE",
"406 767 OFFCURVE",
"392 745 OFFCURVE",
"362 745 CURVE SMOOTH",
"320 745 OFFCURVE",
"293 803 OFFCURVE",
"245 803 CURVE SMOOTH",
"204 803 OFFCURVE",
"179 770 OFFCURVE",
"176 723 CURVE",
"197 717 LINE",
"202 752 OFFCURVE",
"216 774 OFFCURVE",
"246 774 CURVE SMOOTH",
"283 774 OFFCURVE",
"313 716 OFFCURVE",
"363 716 CURVE SMOOTH"
);
},
{
closed = 1;
nodes = (
"476 -10 OFFCURVE",
"530 124 OFFCURVE",
"530 312 CURVE SMOOTH",
"530 382 OFFCURVE",
"522 440 OFFCURVE",
"505 487 CURVE",
"569 538 OFFCURVE",
"595 619 OFFCURVE",
"599 716 CURVE",
"567 716 LINE",
"564 635 OFFCURVE",
"545 572 OFFCURVE",
"514 517 CURVE",
"493 517 LINE",
"459 584 OFFCURVE",
"399 620 OFFCURVE",
"309 620 CURVE SMOOTH",
"118 620 OFFCURVE",
"64 486 OFFCURVE",
"64 298 CURVE SMOOTH",
"64 98 OFFCURVE",
"127 -10 OFFCURVE",
"285 -10 CURVE SMOOTH"
);
},
{
closed = 1;
nodes = (
"143 21 OFFCURVE",
"96 117 OFFCURVE",
"96 305 CURVE SMOOTH",
"96 411 OFFCURVE",
"118 496 OFFCURVE",
"161 557 CURVE",
"196 578 OFFCURVE",
"248 589 OFFCURVE",
"294 589 CURVE SMOOTH",
"451 589 OFFCURVE",
"498 493 OFFCURVE",
"498 305 CURVE SMOOTH",
"498 199 OFFCURVE",
"476 114 OFFCURVE",
"433 53 CURVE",
"398 32 OFFCURVE",
"346 21 OFFCURVE",
"300 21 CURVE SMOOTH"
);
}
);
width = 624;
}
);
leftKerningGroup = O;
note = Ohorntilde;
unicode = 1EE0;
},
{
glyphname = Ohungarumlaut;
lastChange = "2015-07-20 17:36:21 +0000";
layers = (
{
layerId = "F84B2E81-E30C-4BCF-B175-C3D49BDC99D5";
name = Light;
paths = (
{
closed = 1;
nodes = (
"476 -10 OFFCURVE",
"530 124 OFFCURVE",
"530 312 CURVE SMOOTH",
"530 512 OFFCURVE",
"467 620 OFFCURVE",
"309 620 CURVE SMOOTH",
"118 620 OFFCURVE",
"64 486 OFFCURVE",
"64 298 CURVE SMOOTH",
"64 98 OFFCURVE",
"127 -10 OFFCURVE",
"285 -10 CURVE SMOOTH"
);
},
{
closed = 1;
nodes = (
"143 21 OFFCURVE",
"96 117 OFFCURVE",
"96 305 CURVE SMOOTH",
"96 411 OFFCURVE",
"118 496 OFFCURVE",
"161 557 CURVE",
"196 578 OFFCURVE",
"248 589 OFFCURVE",
"294 589 CURVE SMOOTH",
"451 589 OFFCURVE",
"498 493 OFFCURVE",
"498 305 CURVE SMOOTH",
"498 199 OFFCURVE",
"476 114 OFFCURVE",
"433 53 CURVE",
"398 32 OFFCURVE",
"346 21 OFFCURVE",
"300 21 CURVE SMOOTH"
);
},
{
closed = 1;
nodes = (
"252 754 OFFCURVE",
"267 795 OFFCURVE",
"267 842 CURVE SMOOTH",
"267 880 OFFCURVE",
"249 900 OFFCURVE",
"214 900 CURVE SMOOTH",
"201 900 OFFCURVE",
"190 898 OFFCURVE",
"181 895 CURVE",
"181 871 LINE",
"237 871 LINE",
"237 803 OFFCURVE",
"224 763 OFFCURVE",
"200 721 CURVE",
"222 716 LINE"
);
},
{
closed = 1;
nodes = (
"417 754 OFFCURVE",
"432 795 OFFCURVE",
"432 842 CURVE SMOOTH",
"432 880 OFFCURVE",
"414 900 OFFCURVE",
"379 900 CURVE SMOOTH",
"366 900 OFFCURVE",
"355 898 OFFCURVE",
"346 895 CURVE",
"346 871 LINE",
"402 871 LINE",
"402 803 OFFCURVE",
"389 763 OFFCURVE",
"365 721 CURVE",
"387 716 LINE"
);
}
);
width = 594;
}
);
leftKerningGroup = O;
note = Ohungarumlaut;
rightKerningGroup = O;
unicode = 0150;
},
{
glyphname = Omacron;
lastChange = "2015-07-20 17:36:21 +0000";
layers = (
{
layerId = "F84B2E81-E30C-4BCF-B175-C3D49BDC99D5";
name = Light;
paths = (
{
closed = 1;
nodes = (
"476 -10 OFFCURVE",
"530 124 OFFCURVE",
"530 312 CURVE SMOOTH",
"530 512 OFFCURVE",
"467 620 OFFCURVE",
"309 620 CURVE SMOOTH",
"118 620 OFFCURVE",
"64 486 OFFCURVE",
"64 298 CURVE SMOOTH",
"64 98 OFFCURVE",
"127 -10 OFFCURVE",
"285 -10 CURVE SMOOTH"
);
},
{
closed = 1;
nodes = (
"143 21 OFFCURVE",
"96 117 OFFCURVE",
"96 305 CURVE SMOOTH",
"96 411 OFFCURVE",
"118 496 OFFCURVE",
"161 557 CURVE",
"196 578 OFFCURVE",
"248 589 OFFCURVE",
"294 589 CURVE SMOOTH",
"451 589 OFFCURVE",
"498 493 OFFCURVE",
"498 305 CURVE SMOOTH",
"498 199 OFFCURVE",
"476 114 OFFCURVE",
"433 53 CURVE",
"398 32 OFFCURVE",
"346 21 OFFCURVE",
"300 21 CURVE SMOOTH"
);
},
{
closed = 1;
nodes = (
"429 721 LINE",
"429 750 LINE",
"173 750 LINE",
"173 721 LINE"
);
}
);
width = 594;
}
);
leftKerningGroup = O;
note = Omacron;
rightKerningGroup = O;
unicode = 014C;
},
{
glyphname = Oslash;
lastChange = "2015-07-20 17:36:21 +0000";
layers = (
{
layerId = "F84B2E81-E30C-4BCF-B175-C3D49BDC99D5";
name = Light;
paths = (
{
closed = 1;
nodes = (
"175 14 LINE",
"205 -1 OFFCURVE",
"241 -10 OFFCURVE",
"285 -10 CURVE SMOOTH",
"476 -10 OFFCURVE",
"530 124 OFFCURVE",
"530 312 CURVE SMOOTH",
"530 445 OFFCURVE",
"502 538 OFFCURVE",
"436 585 CURVE",
"474 667 LINE",
"446 674 LINE",
"411 599 LINE",
"383 613 OFFCURVE",
"349 620 OFFCURVE",
"309 620 CURVE SMOOTH",
"118 620 OFFCURVE",
"64 486 OFFCURVE",
"64 298 CURVE SMOOTH",
"64 169 OFFCURVE",
"90 79 OFFCURVE",
"150 30 CURVE",
"110 -58 LINE",
"138 -66 LINE"
);
},
{
closed = 1;
nodes = (
"114 107 OFFCURVE",
"96 188 OFFCURVE",
"96 305 CURVE SMOOTH",
"96 411 OFFCURVE",
"118 496 OFFCURVE",
"161 557 CURVE",
"196 578 OFFCURVE",
"248 589 OFFCURVE",
"294 589 CURVE SMOOTH",
"336 589 OFFCURVE",
"370 582 OFFCURVE",
"397 568 CURVE",
"165 62 LINE"
);
},
{
closed = 1;
nodes = (
"254 21 OFFCURVE",
"217 29 OFFCURVE",
"189 45 CURVE",
"422 553 LINE",
"478 510 OFFCURVE",
"498 426 OFFCURVE",
"498 305 CURVE SMOOTH",
"498 199 OFFCURVE",
"476 114 OFFCURVE",
"433 53 CURVE",
"398 32 OFFCURVE",
"346 21 OFFCURVE",
"300 21 CURVE SMOOTH"
);
}
);
width = 594;
}
);
leftKerningGroup = O;
note = Oslash;
rightKerningGroup = O;
unicode = 00D8;
},
{
glyphname = Oslashacute;
lastChange = "2015-07-20 17:36:21 +0000";
layers = (
{
layerId = "F84B2E81-E30C-4BCF-B175-C3D49BDC99D5";
name = Light;
paths = (
{
closed = 1;
nodes = (
"175 14 LINE",
"205 -1 OFFCURVE",
"241 -10 OFFCURVE",
"285 -10 CURVE SMOOTH",
"476 -10 OFFCURVE",
"530 124 OFFCURVE",
"530 312 CURVE SMOOTH",
"530 445 OFFCURVE",
"502 538 OFFCURVE",
"436 585 CURVE",
"474 667 LINE",
"446 674 LINE",
"411 599 LINE",
"383 613 OFFCURVE",
"349 620 OFFCURVE",
"309 620 CURVE SMOOTH",
"118 620 OFFCURVE",
"64 486 OFFCURVE",
"64 298 CURVE SMOOTH",
"64 169 OFFCURVE",
"90 79 OFFCURVE",
"150 30 CURVE",
"110 -58 LINE",
"138 -66 LINE"
);
},
{
closed = 1;
nodes = (
"114 107 OFFCURVE",
"96 188 OFFCURVE",
"96 305 CURVE SMOOTH",
"96 411 OFFCURVE",
"118 496 OFFCURVE",
"161 557 CURVE",
"196 578 OFFCURVE",
"248 589 OFFCURVE",
"294 589 CURVE SMOOTH",
"336 589 OFFCURVE",
"370 582 OFFCURVE",
"397 568 CURVE",
"165 62 LINE"
);
},
{
closed = 1;
nodes = (
"254 21 OFFCURVE",
"217 29 OFFCURVE",
"189 45 CURVE",
"422 553 LINE",
"478 510 OFFCURVE",
"498 426 OFFCURVE",
"498 305 CURVE SMOOTH",
"498 199 OFFCURVE",
"476 114 OFFCURVE",
"433 53 CURVE",
"398 32 OFFCURVE",
"346 21 OFFCURVE",
"300 21 CURVE SMOOTH"
);
},
{
closed = 1;
nodes = (
"403 855 LINE",
"358 860 LINE",
"274 721 LINE",
"293 717 LINE"
);
}
);
width = 594;
}
);
leftKerningGroup = O;
note = Oslashacute;
rightKerningGroup = O;
unicode = 01FE;
},
{
glyphname = Otilde;
lastChange = "2015-07-20 17:36:21 +0000";
layers = (
{
layerId = "F84B2E81-E30C-4BCF-B175-C3D49BDC99D5";
name = Light;
paths = (
{
closed = 1;
nodes = (
"476 -10 OFFCURVE",
"530 124 OFFCURVE",
"530 312 CURVE SMOOTH",
"530 512 OFFCURVE",
"467 620 OFFCURVE",
"309 620 CURVE SMOOTH",
"118 620 OFFCURVE",
"64 486 OFFCURVE",
"64 298 CURVE SMOOTH",
"64 98 OFFCURVE",
"127 -10 OFFCURVE",
"285 -10 CURVE SMOOTH"
);
},
{
closed = 1;
nodes = (
"143 21 OFFCURVE",
"96 117 OFFCURVE",
"96 305 CURVE SMOOTH",
"96 411 OFFCURVE",
"118 496 OFFCURVE",
"161 557 CURVE",
"196 578 OFFCURVE",
"248 589 OFFCURVE",
"294 589 CURVE SMOOTH",
"451 589 OFFCURVE",
"498 493 OFFCURVE",
"498 305 CURVE SMOOTH",
"498 199 OFFCURVE",
"476 114 OFFCURVE",
"433 53 CURVE",
"398 32 OFFCURVE",
"346 21 OFFCURVE",
"300 21 CURVE SMOOTH"
);
},
{
closed = 1;
nodes = (
"398 716 OFFCURVE",
"423 749 OFFCURVE",
"426 796 CURVE",
"405 802 LINE",
"400 767 OFFCURVE",
"386 745 OFFCURVE",
"356 745 CURVE SMOOTH",
"314 745 OFFCURVE",
"287 803 OFFCURVE",
"239 803 CURVE SMOOTH",
"198 803 OFFCURVE",
"173 770 OFFCURVE",
"170 723 CURVE",
"191 717 LINE",
"196 752 OFFCURVE",
"210 774 OFFCURVE",
"240 774 CURVE SMOOTH",
"277 774 OFFCURVE",
"307 716 OFFCURVE",
"357 716 CURVE SMOOTH"
);
}
);
width = 594;
}
);
leftKerningGroup = O;
note = Otilde;
rightKerningGroup = O;
unicode = 00D5;
},
{
glyphname = OE;
lastChange = "2015-07-20 17:36:30 +0000";
layers = (
{
layerId = "F84B2E81-E30C-4BCF-B175-C3D49BDC99D5";
name = Light;
paths = (
{
closed = 1;
nodes = (
"358 -10 OFFCURVE",
"414 2 OFFCURVE",
"452 26 CURVE",
"459 26 LINE",
"483 0 OFFCURVE",
"549 -10 OFFCURVE",
"637 -10 CURVE SMOOTH",
"703 -10 OFFCURVE",
"747 -5 OFFCURVE",
"795 5 CURVE",
"787 35 LINE",
"741 26 OFFCURVE",
"697 21 OFFCURVE",
"640 21 CURVE SMOOTH",
"574 21 OFFCURVE",
"531 25 OFFCURVE",
"475 37 CURVE",
"475 293 LINE",
"754 293 LINE",
"754 324 LINE",
"475 324 LINE",
"475 579 LINE",
"783 579 LINE",
"783 610 LINE",
"444 610 LINE",
"407 618 OFFCURVE",
"370 620 OFFCURVE",
"318 620 CURVE SMOOTH",
"127 620 OFFCURVE",
"64 491 OFFCURVE",
"64 298 CURVE SMOOTH",
"64 98 OFFCURVE",
"131 -10 OFFCURVE",
"289 -10 CURVE SMOOTH"
);
},
{
closed = 1;
nodes = (
"147 21 OFFCURVE",
"96 117 OFFCURVE",
"96 305 CURVE SMOOTH",
"96 411 OFFCURVE",
"118 496 OFFCURVE",
"161 557 CURVE",
"196 578 OFFCURVE",
"257 589 OFFCURVE",
"309 589 CURVE SMOOTH",
"373 589 OFFCURVE",
"406 586 OFFCURVE",
"443 578 CURVE",
"443 53 LINE",
"405 33 OFFCURVE",
"350 21 OFFCURVE",
"304 21 CURVE SMOOTH"
);
}
);
width = 870;
}
);
leftKerningGroup = O;
note = OE;
unicode = 0152;
},
{
glyphname = P;
lastChange = "2015-07-20 14:16:51 +0000";
layers = (
{
layerId = "F84B2E81-E30C-4BCF-B175-C3D49BDC99D5";
name = Light;
paths = (
{
closed = 1;
nodes = (
"123 0 LINE",
"123 218 LINE",
"259 218 LINE SMOOTH",
"413 218 OFFCURVE",
"459 290 OFFCURVE",
"459 419 CURVE SMOOTH",
"459 553 OFFCURVE",
"392 620 OFFCURVE",
"245 620 CURVE SMOOTH",
"189 620 OFFCURVE",
"141 610 OFFCURVE",
"91 597 CURVE",
"91 0 LINE"
);
},
{
closed = 1;
nodes = (
"123 575 LINE",
"164 586 OFFCURVE",
"211 589 OFFCURVE",
"243 589 CURVE SMOOTH",
"368 589 OFFCURVE",
"427 538 OFFCURVE",
"427 416 CURVE SMOOTH",
"427 353 OFFCURVE",
"414 303 OFFCURVE",
"386 267 CURVE",
"343 253 OFFCURVE",
"314 249 OFFCURVE",
"254 249 CURVE SMOOTH",
"123 249 LINE"
);
}
);
width = 502;
}
);
note = P;
unicode = 0050;
},
{
glyphname = Thorn;
lastChange = "2015-07-20 14:16:51 +0000";
layers = (
{
layerId = "F84B2E81-E30C-4BCF-B175-C3D49BDC99D5";
name = Light;
paths = (
{
closed = 1;
nodes = (
"122 0 LINE",
"122 160 LINE",
"248 160 LINE SMOOTH",
"362 160 OFFCURVE",
"414 219 OFFCURVE",
"414 322 CURVE SMOOTH",
"414 425 OFFCURVE",
"362 482 OFFCURVE",
"248 482 CURVE SMOOTH",
"122 482 LINE",
"122 616 LINE",
"90 616 LINE",
"90 0 LINE"
);
},
{
closed = 1;
nodes = (
"122 451 LINE",
"244 451 LINE SMOOTH",
"347 451 OFFCURVE",
"382 407 OFFCURVE",
"382 322 CURVE SMOOTH",
"382 237 OFFCURVE",
"347 191 OFFCURVE",
"244 191 CURVE SMOOTH",
"122 191 LINE"
);
}
);
width = 469;
}
);
note = Thorn;
unicode = 00DE;
},
{
glyphname = Q;
lastChange = "2015-07-21 07:57:55 +0000";
layers = (
{
layerId = "F84B2E81-E30C-4BCF-B175-C3D49BDC99D5";
name = Light;
paths = (
{
closed = 1;
nodes = (
"413 -137 OFFCURVE",
"442 -134 OFFCURVE",
"485 -125 CURVE",
"478 -97 LINE",
"433 -105 OFFCURVE",
"404 -107 OFFCURVE",
"360 -107 CURVE SMOOTH",
"329 -107 OFFCURVE",
"295 -103 OFFCURVE",
"264 -97 CURVE",
"264 -9 LINE",
"271 -10 OFFCURVE",
"278 -10 OFFCURVE",
"286 -10 CURVE SMOOTH",
"477 -10 OFFCURVE",
"533 124 OFFCURVE",
"533 312 CURVE SMOOTH",
"533 512 OFFCURVE",
"469 620 OFFCURVE",
"311 620 CURVE SMOOTH",
"120 620 OFFCURVE",
"64 486 OFFCURVE",
"64 298 CURVE SMOOTH",
"64 115 OFFCURVE",
"117 9 OFFCURVE",
"246 -7 CURVE",
"232 -87 LINE",
"232 -118 LINE",
"266 -129 OFFCURVE",
"317 -137 OFFCURVE",
"361 -137 CURVE SMOOTH"
);
},
{
closed = 1;
nodes = (
"144 21 OFFCURVE",
"96 107 OFFCURVE",
"96 305 CURVE SMOOTH",
"96 411 OFFCURVE",
"118 496 OFFCURVE",
"161 557 CURVE",
"196 578 OFFCURVE",
"250 589 OFFCURVE",
"296 589 CURVE SMOOTH",
"453 589 OFFCURVE",
"501 503 OFFCURVE",
"501 305 CURVE SMOOTH",
"501 199 OFFCURVE",
"479 114 OFFCURVE",
"436 53 CURVE",
"401 32 OFFCURVE",
"347 21 OFFCURVE",
"301 21 CURVE SMOOTH"
);
}
);
width = 599;
}
);
note = Q;
unicode = 0051;
},
{
glyphname = R;
lastChange = "2015-07-20 17:36:47 +0000";
layers = (
{
layerId = "F84B2E81-E30C-4BCF-B175-C3D49BDC99D5";
name = Light;
paths = (
{
closed = 1;
nodes = (
"509 -5 OFFCURVE",
"520 -3 OFFCURVE",
"531 1 CURVE",
"531 20 LINE",
"482 27 LINE",
"409 192 LINE SMOOTH",
"389 234 OFFCURVE",
"377 254 OFFCURVE",
"340 271 CURVE",
"340 277 LINE",
"402 314 OFFCURVE",
"440 365 OFFCURVE",
"440 443 CURVE SMOOTH",
"440 555 OFFCURVE",
"383 620 OFFCURVE",
"241 620 CURVE SMOOTH",
"201 620 OFFCURVE",
"143 614 OFFCURVE",
"90 601 CURVE",
"90 0 LINE",
"121 0 LINE",
"121 264 LINE",
"251 264 LINE SMOOTH",
"342 264 OFFCURVE",
"362 219 OFFCURVE",
"383 171 CURVE SMOOTH",
"447 27 LINE SMOOTH",
"457 6 OFFCURVE",
"470 -5 OFFCURVE",
"496 -5 CURVE SMOOTH"
);
},
{
closed = 1;
nodes = (
"121 577 LINE",
"157 584 OFFCURVE",
"199 589 OFFCURVE",
"235 589 CURVE SMOOTH",
"355 589 OFFCURVE",
"408 544 OFFCURVE",
"408 442 CURVE SMOOTH",
"408 369 OFFCURVE",
"378 332 OFFCURVE",
"325 295 CURVE",
"121 295 LINE"
);
}
);
width = 560;
}
);
leftKerningGroup = R;
note = R;
rightKerningGroup = R;
unicode = 0052;
},
{
glyphname = Racute;
lastChange = "2015-07-20 17:36:47 +0000";
layers = (
{
layerId = "F84B2E81-E30C-4BCF-B175-C3D49BDC99D5";
name = Light;
paths = (
{
closed = 1;
nodes = (
"509 -5 OFFCURVE",
"520 -3 OFFCURVE",
"531 1 CURVE",
"531 20 LINE",
"482 27 LINE",
"409 192 LINE SMOOTH",
"389 234 OFFCURVE",
"377 254 OFFCURVE",
"340 271 CURVE",
"340 277 LINE",
"402 314 OFFCURVE",
"440 365 OFFCURVE",
"440 443 CURVE SMOOTH",
"440 555 OFFCURVE",
"383 620 OFFCURVE",
"241 620 CURVE SMOOTH",
"201 620 OFFCURVE",
"143 614 OFFCURVE",
"90 601 CURVE",
"90 0 LINE",
"121 0 LINE",
"121 264 LINE",
"251 264 LINE SMOOTH",
"342 264 OFFCURVE",
"362 219 OFFCURVE",
"383 171 CURVE SMOOTH",
"447 27 LINE SMOOTH",
"457 6 OFFCURVE",
"470 -5 OFFCURVE",
"496 -5 CURVE SMOOTH"
);
},
{
closed = 1;
nodes = (
"121 577 LINE",
"157 584 OFFCURVE",
"199 589 OFFCURVE",
"235 589 CURVE SMOOTH",
"355 589 OFFCURVE",
"408 544 OFFCURVE",
"408 442 CURVE SMOOTH",
"408 369 OFFCURVE",
"378 332 OFFCURVE",
"325 295 CURVE",
"121 295 LINE"
);
},
{
closed = 1;
nodes = (
"367 854 LINE",
"322 859 LINE",
"238 720 LINE",
"257 716 LINE"
);
}
);
width = 560;
}
);
leftKerningGroup = R;
note = Racute;
rightKerningGroup = R;
unicode = 0154;
},
{
glyphname = Rcaron;
lastChange = "2015-07-20 17:36:47 +0000";
layers = (
{
layerId = "F84B2E81-E30C-4BCF-B175-C3D49BDC99D5";
name = Light;
paths = (
{
closed = 1;
nodes = (
"509 -5 OFFCURVE",
"520 -3 OFFCURVE",
"531 1 CURVE",
"531 20 LINE",
"482 27 LINE",
"409 192 LINE SMOOTH",
"389 234 OFFCURVE",
"377 254 OFFCURVE",
"340 271 CURVE",
"340 277 LINE",
"402 314 OFFCURVE",
"440 365 OFFCURVE",
"440 443 CURVE SMOOTH",
"440 555 OFFCURVE",
"383 620 OFFCURVE",
"241 620 CURVE SMOOTH",
"201 620 OFFCURVE",
"143 614 OFFCURVE",
"90 601 CURVE",
"90 0 LINE",
"121 0 LINE",
"121 264 LINE",
"251 264 LINE SMOOTH",
"342 264 OFFCURVE",
"362 219 OFFCURVE",
"383 171 CURVE SMOOTH",
"447 27 LINE SMOOTH",
"457 6 OFFCURVE",
"470 -5 OFFCURVE",
"496 -5 CURVE SMOOTH"
);
},
{
closed = 1;
nodes = (
"121 577 LINE",
"157 584 OFFCURVE",
"199 589 OFFCURVE",
"235 589 CURVE SMOOTH",
"355 589 OFFCURVE",
"408 544 OFFCURVE",
"408 442 CURVE SMOOTH",
"408 369 OFFCURVE",
"378 332 OFFCURVE",
"325 295 CURVE",
"121 295 LINE"
);
},
{
closed = 1;
nodes = (
"271 721 LINE",
"374 852 LINE",
"352 857 LINE",
"255 750 LINE",
"249 750 LINE",
"152 857 LINE",
"130 852 LINE",
"233 721 LINE"
);
}
);
width = 560;
}
);
leftKerningGroup = R;
note = Rcaron;
rightKerningGroup = R;
unicode = 0158;
},
{
glyphname = Rcommaaccent;
lastChange = "2015-07-20 17:36:47 +0000";
layers = (
{
layerId = "F84B2E81-E30C-4BCF-B175-C3D49BDC99D5";
name = Light;
paths = (
{
closed = 1;
nodes = (
"509 -5 OFFCURVE",
"520 -3 OFFCURVE",
"531 1 CURVE",
"531 20 LINE",
"482 27 LINE",
"409 192 LINE SMOOTH",
"389 234 OFFCURVE",
"377 254 OFFCURVE",
"340 271 CURVE",
"340 277 LINE",
"402 314 OFFCURVE",
"440 365 OFFCURVE",
"440 443 CURVE SMOOTH",
"440 555 OFFCURVE",
"383 620 OFFCURVE",
"241 620 CURVE SMOOTH",
"201 620 OFFCURVE",
"143 614 OFFCURVE",
"90 601 CURVE",
"90 0 LINE",
"121 0 LINE",
"121 264 LINE",
"251 264 LINE SMOOTH",
"342 264 OFFCURVE",
"362 219 OFFCURVE",
"383 171 CURVE SMOOTH",
"447 27 LINE SMOOTH",
"457 6 OFFCURVE",
"470 -5 OFFCURVE",
"496 -5 CURVE SMOOTH"
);
},
{
closed = 1;
nodes = (
"322 -186 OFFCURVE",
"337 -145 OFFCURVE",
"337 -98 CURVE SMOOTH",
"337 -60 OFFCURVE",
"319 -40 OFFCURVE",
"284 -40 CURVE SMOOTH",
"271 -40 OFFCURVE",
"260 -42 OFFCURVE",
"251 -45 CURVE",
"251 -69 LINE",
"307 -69 LINE",
"307 -137 OFFCURVE",
"294 -177 OFFCURVE",
"270 -219 CURVE",
"292 -224 LINE"
);
},
{
closed = 1;
nodes = (
"121 577 LINE",
"157 584 OFFCURVE",
"199 589 OFFCURVE",
"235 589 CURVE SMOOTH",
"355 589 OFFCURVE",
"408 544 OFFCURVE",
"408 442 CURVE SMOOTH",
"408 369 OFFCURVE",
"378 332 OFFCURVE",
"325 295 CURVE",
"121 295 LINE"
);
}
);
width = 560;
}
);
leftKerningGroup = R;
note = Rcommaaccent;
rightKerningGroup = R;
unicode = 0156;
},
{
glyphname = Rdotbelow;
lastChange = "2015-07-20 17:36:47 +0000";
layers = (
{
layerId = "F84B2E81-E30C-4BCF-B175-C3D49BDC99D5";
name = Light;
paths = (
{
closed = 1;
nodes = (
"509 -5 OFFCURVE",
"520 -3 OFFCURVE",
"531 1 CURVE",
"531 20 LINE",
"482 27 LINE",
"409 192 LINE SMOOTH",
"389 234 OFFCURVE",
"377 254 OFFCURVE",
"340 271 CURVE",
"340 277 LINE",
"402 314 OFFCURVE",
"440 365 OFFCURVE",
"440 443 CURVE SMOOTH",
"440 555 OFFCURVE",
"383 620 OFFCURVE",
"241 620 CURVE SMOOTH",
"201 620 OFFCURVE",
"143 614 OFFCURVE",
"90 601 CURVE",
"90 0 LINE",
"121 0 LINE",
"121 264 LINE",
"251 264 LINE SMOOTH",
"342 264 OFFCURVE",
"362 219 OFFCURVE",
"383 171 CURVE SMOOTH",
"447 27 LINE SMOOTH",
"457 6 OFFCURVE",
"470 -5 OFFCURVE",
"496 -5 CURVE SMOOTH"
);
},
{
closed = 1;
nodes = (
"311 -130 OFFCURVE",
"324 -118 OFFCURVE",
"324 -96 CURVE SMOOTH",
"324 -72 OFFCURVE",
"311 -60 OFFCURVE",
"288 -60 CURVE SMOOTH",
"265 -60 OFFCURVE",
"251 -72 OFFCURVE",
"251 -96 CURVE SMOOTH",
"251 -118 OFFCURVE",
"265 -130 OFFCURVE",
"288 -130 CURVE SMOOTH"
);
},
{
closed = 1;
nodes = (
"121 577 LINE",
"157 584 OFFCURVE",
"199 589 OFFCURVE",
"235 589 CURVE SMOOTH",
"355 589 OFFCURVE",
"408 544 OFFCURVE",
"408 442 CURVE SMOOTH",
"408 369 OFFCURVE",
"378 332 OFFCURVE",
"325 295 CURVE",
"121 295 LINE"
);
}
);
width = 560;
}
);
leftKerningGroup = R;
note = Rdotbelow;
rightKerningGroup = R;
unicode = 1E5A;
},
{
glyphname = Rdotbelowmacron;
lastChange = "2015-07-20 17:36:47 +0000";
layers = (
{
layerId = "F84B2E81-E30C-4BCF-B175-C3D49BDC99D5";
name = Light;
paths = (
{
closed = 1;
nodes = (
"509 -5 OFFCURVE",
"520 -3 OFFCURVE",
"531 1 CURVE",
"531 20 LINE",
"482 27 LINE",
"409 192 LINE SMOOTH",
"389 234 OFFCURVE",
"377 254 OFFCURVE",
"340 271 CURVE",
"340 277 LINE",
"402 314 OFFCURVE",
"440 365 OFFCURVE",
"440 443 CURVE SMOOTH",
"440 555 OFFCURVE",
"383 620 OFFCURVE",
"241 620 CURVE SMOOTH",
"201 620 OFFCURVE",
"143 614 OFFCURVE",
"90 601 CURVE",
"90 0 LINE",
"121 0 LINE",
"121 264 LINE",
"251 264 LINE SMOOTH",
"342 264 OFFCURVE",
"362 219 OFFCURVE",
"383 171 CURVE SMOOTH",
"447 27 LINE SMOOTH",
"457 6 OFFCURVE",
"470 -5 OFFCURVE",
"496 -5 CURVE SMOOTH"
);
},
{
closed = 1;
nodes = (
"311 -130 OFFCURVE",
"324 -118 OFFCURVE",
"324 -96 CURVE SMOOTH",
"324 -72 OFFCURVE",
"311 -60 OFFCURVE",
"288 -60 CURVE SMOOTH",
"265 -60 OFFCURVE",
"251 -72 OFFCURVE",
"251 -96 CURVE SMOOTH",
"251 -118 OFFCURVE",
"265 -130 OFFCURVE",
"288 -130 CURVE SMOOTH"
);
},
{
closed = 1;
nodes = (
"121 577 LINE",
"157 584 OFFCURVE",
"199 589 OFFCURVE",
"235 589 CURVE SMOOTH",
"355 589 OFFCURVE",
"408 544 OFFCURVE",
"408 442 CURVE SMOOTH",
"408 369 OFFCURVE",
"378 332 OFFCURVE",
"325 295 CURVE",
"121 295 LINE"
);
},
{
closed = 1;
nodes = (
"347 721 LINE",
"347 750 LINE",
"91 750 LINE",
"91 721 LINE"
);
}
);
width = 560;
}
);
leftKerningGroup = R;
note = Rdotbelowmacron;
rightKerningGroup = R;
unicode = 1E5C;
},
{
glyphname = Rlinebelow;
lastChange = "2015-07-20 17:36:47 +0000";
layers = (
{
layerId = "F84B2E81-E30C-4BCF-B175-C3D49BDC99D5";
name = Light;
paths = (
{
closed = 1;
nodes = (
"510 -5 OFFCURVE",
"521 -3 OFFCURVE",
"532 1 CURVE",
"532 20 LINE",
"483 27 LINE",
"410 192 LINE SMOOTH",
"390 234 OFFCURVE",
"378 254 OFFCURVE",
"341 271 CURVE",
"341 277 LINE",
"403 314 OFFCURVE",
"441 365 OFFCURVE",
"441 443 CURVE SMOOTH",
"441 555 OFFCURVE",
"384 620 OFFCURVE",
"242 620 CURVE SMOOTH",
"202 620 OFFCURVE",
"144 614 OFFCURVE",
"91 601 CURVE",
"91 0 LINE",
"122 0 LINE",
"122 264 LINE",
"252 264 LINE SMOOTH",
"343 264 OFFCURVE",
"363 219 OFFCURVE",
"384 171 CURVE SMOOTH",
"448 27 LINE SMOOTH",
"458 6 OFFCURVE",
"471 -5 OFFCURVE",
"497 -5 CURVE SMOOTH"
);
},
{
closed = 1;
nodes = (
"388 -105 LINE",
"388 -73 LINE",
"90 -73 LINE",
"90 -105 LINE"
);
},
{
closed = 1;
nodes = (
"122 577 LINE",
"158 584 OFFCURVE",
"200 589 OFFCURVE",
"236 589 CURVE SMOOTH",
"356 589 OFFCURVE",
"409 544 OFFCURVE",
"409 442 CURVE SMOOTH",
"409 369 OFFCURVE",
"379 332 OFFCURVE",
"326 295 CURVE",
"122 295 LINE"
);
}
);
width = 561;
}
);
leftKerningGroup = R;
note = Rlinebelow;
rightKerningGroup = R;
unicode = 1E5E;
},
{
glyphname = S;
lastChange = "2015-07-20 17:37:12 +0000";
layers = (
{
layerId = "F84B2E81-E30C-4BCF-B175-C3D49BDC99D5";
name = Light;
paths = (
{
closed = 1;
nodes = (
"402 -10 OFFCURVE",
"434 78 OFFCURVE",
"434 169 CURVE SMOOTH",
"434 251 OFFCURVE",
"389 290 OFFCURVE",
"267 321 CURVE SMOOTH",
"160 348 OFFCURVE",
"104 375 OFFCURVE",
"104 460 CURVE SMOOTH",
"104 546 OFFCURVE",
"147 590 OFFCURVE",
"256 590 CURVE SMOOTH",
"296 590 OFFCURVE",
"340 586 OFFCURVE",
"378 581 CURVE",
"384 488 LINE",
"404 488 LINE",
"411 512 OFFCURVE",
"416 541 OFFCURVE",
"416 566 CURVE SMOOTH",
"416 588 LINE",
"377 608 OFFCURVE",
"332 620 OFFCURVE",
"262 620 CURVE SMOOTH",
"109 620 OFFCURVE",
"72 540 OFFCURVE",
"72 452 CURVE SMOOTH",
"72 348 OFFCURVE",
"157 313 OFFCURVE",
"253 289 CURVE SMOOTH",
"351 264 OFFCURVE",
"401 233 OFFCURVE",
"401 150 CURVE SMOOTH",
"401 110 OFFCURVE",
"392 77 OFFCURVE",
"378 53 CURVE",
"351 35 OFFCURVE",
"310 20 OFFCURVE",
"247 20 CURVE SMOOTH",
"182 20 OFFCURVE",
"129 31 OFFCURVE",
"72 56 CURVE",
"60 28 LINE",
"120 1 OFFCURVE",
"181 -10 OFFCURVE",
"244 -10 CURVE SMOOTH"
);
}
);
width = 508;
}
);
leftKerningGroup = S;
note = S;
rightKerningGroup = S;
unicode = 0053;
},
{
glyphname = Sacute;
lastChange = "2015-07-20 17:37:12 +0000";
layers = (
{
layerId = "F84B2E81-E30C-4BCF-B175-C3D49BDC99D5";
name = Light;
paths = (
{
closed = 1;
nodes = (
"402 -10 OFFCURVE",
"434 78 OFFCURVE",
"434 169 CURVE SMOOTH",
"434 251 OFFCURVE",
"389 290 OFFCURVE",
"267 321 CURVE SMOOTH",
"160 348 OFFCURVE",
"104 375 OFFCURVE",
"104 460 CURVE SMOOTH",
"104 546 OFFCURVE",
"147 590 OFFCURVE",
"256 590 CURVE SMOOTH",
"296 590 OFFCURVE",
"340 586 OFFCURVE",
"378 581 CURVE",
"384 488 LINE",
"404 488 LINE",
"411 512 OFFCURVE",
"416 541 OFFCURVE",
"416 566 CURVE SMOOTH",
"416 588 LINE",
"377 608 OFFCURVE",
"332 620 OFFCURVE",
"262 620 CURVE SMOOTH",
"109 620 OFFCURVE",
"72 540 OFFCURVE",
"72 452 CURVE SMOOTH",
"72 348 OFFCURVE",
"157 313 OFFCURVE",
"253 289 CURVE SMOOTH",
"351 264 OFFCURVE",
"401 233 OFFCURVE",
"401 150 CURVE SMOOTH",
"401 110 OFFCURVE",
"392 77 OFFCURVE",
"378 53 CURVE",
"351 35 OFFCURVE",
"310 20 OFFCURVE",
"247 20 CURVE SMOOTH",
"182 20 OFFCURVE",
"129 31 OFFCURVE",
"72 56 CURVE",
"60 28 LINE",
"120 1 OFFCURVE",
"181 -10 OFFCURVE",
"244 -10 CURVE SMOOTH"
);
},
{
closed = 1;
nodes = (
"362 855 LINE",
"317 860 LINE",
"233 721 LINE",
"252 717 LINE"
);
}
);
width = 508;
}
);
leftKerningGroup = S;
note = Sacute;
rightKerningGroup = S;
unicode = 015A;
},
{
glyphname = Scaron;
lastChange = "2015-07-20 17:37:12 +0000";
layers = (
{
layerId = "F84B2E81-E30C-4BCF-B175-C3D49BDC99D5";
name = Light;
paths = (
{
closed = 1;
nodes = (
"402 -10 OFFCURVE",
"434 78 OFFCURVE",
"434 169 CURVE SMOOTH",
"434 251 OFFCURVE",
"389 290 OFFCURVE",
"267 321 CURVE SMOOTH",
"160 348 OFFCURVE",
"104 375 OFFCURVE",
"104 460 CURVE SMOOTH",
"104 546 OFFCURVE",
"147 590 OFFCURVE",
"256 590 CURVE SMOOTH",
"296 590 OFFCURVE",
"340 586 OFFCURVE",
"378 581 CURVE",
"384 488 LINE",
"404 488 LINE",
"411 512 OFFCURVE",
"416 541 OFFCURVE",
"416 566 CURVE SMOOTH",
"416 588 LINE",
"377 608 OFFCURVE",
"332 620 OFFCURVE",
"262 620 CURVE SMOOTH",
"109 620 OFFCURVE",
"72 540 OFFCURVE",
"72 452 CURVE SMOOTH",
"72 348 OFFCURVE",
"157 313 OFFCURVE",
"253 289 CURVE SMOOTH",
"351 264 OFFCURVE",
"401 233 OFFCURVE",
"401 150 CURVE SMOOTH",
"401 110 OFFCURVE",
"392 77 OFFCURVE",
"378 53 CURVE",
"351 35 OFFCURVE",
"310 20 OFFCURVE",
"247 20 CURVE SMOOTH",
"182 20 OFFCURVE",
"129 31 OFFCURVE",
"72 56 CURVE",
"60 28 LINE",
"120 1 OFFCURVE",
"181 -10 OFFCURVE",
"244 -10 CURVE SMOOTH"
);
},
{
closed = 1;
nodes = (
"271 721 LINE",
"374 852 LINE",
"352 857 LINE",
"255 750 LINE",
"249 750 LINE",
"152 857 LINE",
"130 852 LINE",
"233 721 LINE"
);
}
);
width = 508;
}
);
leftKerningGroup = S;
note = Scaron;
rightKerningGroup = S;
unicode = 0160;
},
{
glyphname = Scedilla;
lastChange = "2015-07-20 17:37:12 +0000";
layers = (
{
layerId = "F84B2E81-E30C-4BCF-B175-C3D49BDC99D5";
name = Light;
paths = (
{
closed = 1;
nodes = (
"309 -216 OFFCURVE",
"345 -191 OFFCURVE",
"345 -133 CURVE SMOOTH",
"345 -87 OFFCURVE",
"324 -62 OFFCURVE",
"275 -62 CURVE SMOOTH",
"254 -62 OFFCURVE",
"236 -65 OFFCURVE",
"222 -71 CURVE",
"269 -9 LINE",
"405 0 OFFCURVE",
"434 83 OFFCURVE",
"434 169 CURVE SMOOTH",
"434 251 OFFCURVE",
"389 290 OFFCURVE",
"267 321 CURVE SMOOTH",
"160 348 OFFCURVE",
"104 375 OFFCURVE",
"104 460 CURVE SMOOTH",
"104 546 OFFCURVE",
"147 590 OFFCURVE",
"256 590 CURVE SMOOTH",
"296 590 OFFCURVE",
"340 586 OFFCURVE",
"378 581 CURVE",
"384 488 LINE",
"404 488 LINE",
"411 512 OFFCURVE",
"416 541 OFFCURVE",
"416 566 CURVE SMOOTH",
"416 588 LINE",
"377 608 OFFCURVE",
"332 620 OFFCURVE",
"262 620 CURVE SMOOTH",
"109 620 OFFCURVE",
"72 540 OFFCURVE",
"72 452 CURVE SMOOTH",
"72 348 OFFCURVE",
"157 313 OFFCURVE",
"253 289 CURVE SMOOTH",
"351 264 OFFCURVE",
"401 233 OFFCURVE",
"401 150 CURVE SMOOTH",
"401 110 OFFCURVE",
"392 77 OFFCURVE",
"378 53 CURVE",
"351 35 OFFCURVE",
"310 20 OFFCURVE",
"247 20 CURVE SMOOTH",
"182 20 OFFCURVE",
"129 31 OFFCURVE",
"72 56 CURVE",
"60 28 LINE",
"120 1 OFFCURVE",
"181 -10 OFFCURVE",
"244 -10 CURVE",
"193 -70 LINE",
"220 -97 LINE",
"236 -92 OFFCURVE",
"249 -91 OFFCURVE",
"268 -91 CURVE SMOOTH",
"304 -91 OFFCURVE",
"315 -107 OFFCURVE",
"315 -138 CURVE SMOOTH",
"315 -153 OFFCURVE",
"312 -170 OFFCURVE",
"308 -180 CURVE",
"293 -185 OFFCURVE",
"279 -187 OFFCURVE",
"254 -187 CURVE SMOOTH",
"227 -187 OFFCURVE",
"204 -183 OFFCURVE",
"181 -175 CURVE",
"171 -201 LINE",
"201 -213 OFFCURVE",
"223 -216 OFFCURVE",
"248 -216 CURVE SMOOTH"
);
}
);
width = 508;
}
);
leftKerningGroup = S;
note = Scedilla;
rightKerningGroup = S;
unicode = 015E;
},
{
glyphname = Scircumflex;
lastChange = "2015-07-20 17:37:12 +0000";
layers = (
{
layerId = "F84B2E81-E30C-4BCF-B175-C3D49BDC99D5";
name = Light;
paths = (
{
closed = 1;
nodes = (
"402 -10 OFFCURVE",
"434 78 OFFCURVE",
"434 169 CURVE SMOOTH",
"434 251 OFFCURVE",
"389 290 OFFCURVE",
"267 321 CURVE SMOOTH",
"160 348 OFFCURVE",
"104 375 OFFCURVE",
"104 460 CURVE SMOOTH",
"104 546 OFFCURVE",
"147 590 OFFCURVE",
"256 590 CURVE SMOOTH",
"296 590 OFFCURVE",
"340 586 OFFCURVE",
"378 581 CURVE",
"384 488 LINE",
"404 488 LINE",
"411 512 OFFCURVE",
"416 541 OFFCURVE",
"416 566 CURVE SMOOTH",
"416 588 LINE",
"377 608 OFFCURVE",
"332 620 OFFCURVE",
"262 620 CURVE SMOOTH",
"109 620 OFFCURVE",
"72 540 OFFCURVE",
"72 452 CURVE SMOOTH",
"72 348 OFFCURVE",
"157 313 OFFCURVE",
"253 289 CURVE SMOOTH",
"351 264 OFFCURVE",
"401 233 OFFCURVE",
"401 150 CURVE SMOOTH",
"401 110 OFFCURVE",
"392 77 OFFCURVE",
"378 53 CURVE",
"351 35 OFFCURVE",
"310 20 OFFCURVE",
"247 20 CURVE SMOOTH",
"182 20 OFFCURVE",
"129 31 OFFCURVE",
"72 56 CURVE",
"60 28 LINE",
"120 1 OFFCURVE",
"181 -10 OFFCURVE",
"244 -10 CURVE SMOOTH"
);
},
{
closed = 1;
nodes = (
"255 823 LINE",
"261 823 LINE",
"358 716 LINE",
"380 721 LINE",
"277 852 LINE",
"239 852 LINE",
"136 721 LINE",
"158 716 LINE"
);
}
);
width = 508;
}
);
leftKerningGroup = S;
note = Scircumflex;
rightKerningGroup = S;
unicode = 015C;
},
{
glyphname = Scommaaccent;
lastChange = "2015-07-20 17:37:12 +0000";
layers = (
{
layerId = "F84B2E81-E30C-4BCF-B175-C3D49BDC99D5";
name = Light;
paths = (
{
closed = 1;
nodes = (
"402 -10 OFFCURVE",
"434 78 OFFCURVE",
"434 169 CURVE SMOOTH",
"434 251 OFFCURVE",
"389 290 OFFCURVE",
"267 321 CURVE SMOOTH",
"160 348 OFFCURVE",
"104 375 OFFCURVE",
"104 460 CURVE SMOOTH",
"104 546 OFFCURVE",
"147 590 OFFCURVE",
"256 590 CURVE SMOOTH",
"296 590 OFFCURVE",
"340 586 OFFCURVE",
"378 581 CURVE",
"384 488 LINE",
"404 488 LINE",
"411 512 OFFCURVE",
"416 541 OFFCURVE",
"416 566 CURVE SMOOTH",
"416 588 LINE",
"377 608 OFFCURVE",
"332 620 OFFCURVE",
"262 620 CURVE SMOOTH",
"109 620 OFFCURVE",
"72 540 OFFCURVE",
"72 452 CURVE SMOOTH",
"72 348 OFFCURVE",
"157 313 OFFCURVE",
"253 289 CURVE SMOOTH",
"351 264 OFFCURVE",
"401 233 OFFCURVE",
"401 150 CURVE SMOOTH",
"401 110 OFFCURVE",
"392 77 OFFCURVE",
"378 53 CURVE",
"351 35 OFFCURVE",
"310 20 OFFCURVE",
"247 20 CURVE SMOOTH",
"182 20 OFFCURVE",
"129 31 OFFCURVE",
"72 56 CURVE",
"60 28 LINE",
"120 1 OFFCURVE",
"181 -10 OFFCURVE",
"244 -10 CURVE SMOOTH"
);
},
{
closed = 1;
nodes = (
"288 -186 OFFCURVE",
"303 -145 OFFCURVE",
"303 -98 CURVE SMOOTH",
"303 -60 OFFCURVE",
"285 -40 OFFCURVE",
"250 -40 CURVE SMOOTH",
"237 -40 OFFCURVE",
"226 -42 OFFCURVE",
"217 -45 CURVE",
"217 -69 LINE",
"273 -69 LINE",
"273 -137 OFFCURVE",
"260 -177 OFFCURVE",
"236 -219 CURVE",
"258 -224 LINE"
);
}
);
width = 508;
}
);
leftKerningGroup = S;
note = Scommaaccent;
rightKerningGroup = S;
unicode = 0218;
},
{
glyphname = Sdotaccent;
lastChange = "2015-07-20 17:37:12 +0000";
layers = (
{
layerId = "F84B2E81-E30C-4BCF-B175-C3D49BDC99D5";
name = Light;
paths = (
{
closed = 1;
nodes = (
"402 -10 OFFCURVE",
"434 78 OFFCURVE",
"434 169 CURVE SMOOTH",
"434 251 OFFCURVE",
"389 290 OFFCURVE",
"267 321 CURVE SMOOTH",
"160 348 OFFCURVE",
"104 375 OFFCURVE",
"104 460 CURVE SMOOTH",
"104 546 OFFCURVE",
"147 590 OFFCURVE",
"256 590 CURVE SMOOTH",
"296 590 OFFCURVE",
"340 586 OFFCURVE",
"378 581 CURVE",
"384 488 LINE",
"404 488 LINE",
"411 512 OFFCURVE",
"416 541 OFFCURVE",
"416 566 CURVE SMOOTH",
"416 588 LINE",
"377 608 OFFCURVE",
"332 620 OFFCURVE",
"262 620 CURVE SMOOTH",
"109 620 OFFCURVE",
"72 540 OFFCURVE",
"72 452 CURVE SMOOTH",
"72 348 OFFCURVE",
"157 313 OFFCURVE",
"253 289 CURVE SMOOTH",
"351 264 OFFCURVE",
"401 233 OFFCURVE",
"401 150 CURVE SMOOTH",
"401 110 OFFCURVE",
"392 77 OFFCURVE",
"378 53 CURVE",
"351 35 OFFCURVE",
"310 20 OFFCURVE",
"247 20 CURVE SMOOTH",
"182 20 OFFCURVE",
"129 31 OFFCURVE",
"72 56 CURVE",
"60 28 LINE",
"120 1 OFFCURVE",
"181 -10 OFFCURVE",
"244 -10 CURVE SMOOTH"
);
},
{
closed = 1;
nodes = (
"272 716 OFFCURVE",
"285 728 OFFCURVE",
"285 750 CURVE SMOOTH",
"285 774 OFFCURVE",
"272 786 OFFCURVE",
"249 786 CURVE SMOOTH",
"226 786 OFFCURVE",
"212 774 OFFCURVE",
"212 750 CURVE SMOOTH",
"212 728 OFFCURVE",
"226 716 OFFCURVE",
"249 716 CURVE SMOOTH"
);
}
);
width = 508;
}
);
leftKerningGroup = S;
note = Sdotaccent;
rightKerningGroup = S;
unicode = 1E60;
},
{
glyphname = Sdotbelow;
lastChange = "2015-07-20 17:37:12 +0000";
layers = (
{
layerId = "F84B2E81-E30C-4BCF-B175-C3D49BDC99D5";
name = Light;
paths = (
{
closed = 1;
nodes = (
"402 -10 OFFCURVE",
"434 78 OFFCURVE",
"434 169 CURVE SMOOTH",
"434 251 OFFCURVE",
"389 290 OFFCURVE",
"267 321 CURVE SMOOTH",
"160 348 OFFCURVE",
"104 375 OFFCURVE",
"104 460 CURVE SMOOTH",
"104 546 OFFCURVE",
"147 590 OFFCURVE",
"256 590 CURVE SMOOTH",
"296 590 OFFCURVE",
"340 586 OFFCURVE",
"378 581 CURVE",
"384 488 LINE",
"404 488 LINE",
"411 512 OFFCURVE",
"416 541 OFFCURVE",
"416 566 CURVE SMOOTH",
"416 588 LINE",
"377 608 OFFCURVE",
"332 620 OFFCURVE",
"262 620 CURVE SMOOTH",
"109 620 OFFCURVE",
"72 540 OFFCURVE",
"72 452 CURVE SMOOTH",
"72 348 OFFCURVE",
"157 313 OFFCURVE",
"253 289 CURVE SMOOTH",
"351 264 OFFCURVE",
"401 233 OFFCURVE",
"401 150 CURVE SMOOTH",
"401 110 OFFCURVE",
"392 77 OFFCURVE",
"378 53 CURVE",
"351 35 OFFCURVE",
"310 20 OFFCURVE",
"247 20 CURVE SMOOTH",
"182 20 OFFCURVE",
"129 31 OFFCURVE",
"72 56 CURVE",
"60 28 LINE",
"120 1 OFFCURVE",
"181 -10 OFFCURVE",
"244 -10 CURVE SMOOTH"
);
},
{
closed = 1;
nodes = (
"281 -130 OFFCURVE",
"294 -118 OFFCURVE",
"294 -96 CURVE SMOOTH",
"294 -72 OFFCURVE",
"281 -60 OFFCURVE",
"258 -60 CURVE SMOOTH",
"235 -60 OFFCURVE",
"221 -72 OFFCURVE",
"221 -96 CURVE SMOOTH",
"221 -118 OFFCURVE",
"235 -130 OFFCURVE",
"258 -130 CURVE SMOOTH"
);
}
);
width = 508;
}
);
leftKerningGroup = S;
note = Sdotbelow;
rightKerningGroup = S;
unicode = 1E62;
},
{
glyphname = uni1E9E;
lastChange = "2015-07-20 14:16:50 +0000";
layers = (
{
layerId = "F84B2E81-E30C-4BCF-B175-C3D49BDC99D5";
name = Light;
paths = (
{
closed = 1;
nodes = (
"468 -4 OFFCURVE",
"515 60 OFFCURVE",
"515 167 CURVE SMOOTH",
"515 265 OFFCURVE",
"468 331 OFFCURVE",
"316 339 CURVE",
"316 345 LINE",
"466 527 LINE",
"466 553 LINE",
"414 590 OFFCURVE",
"354 610 OFFCURVE",
"284 610 CURVE SMOOTH",
"145 610 OFFCURVE",
"90 538 OFFCURVE",
"90 399 CURVE SMOOTH",
"90 0 LINE",
"122 0 LINE",
"122 399 LINE SMOOTH",
"122 531 OFFCURVE",
"172 579 OFFCURVE",
"290 579 CURVE SMOOTH",
"349 579 OFFCURVE",
"389 566 OFFCURVE",
"434 541 CURVE",
"434 535 LINE",
"284 348 LINE",
"284 308 LINE",
"312 308 LINE SMOOTH",
"423 308 OFFCURVE",
"483 259 OFFCURVE",
"483 168 CURVE SMOOTH",
"483 114 OFFCURVE",
"474 79 OFFCURVE",
"456 46 CURVE",
"427 33 OFFCURVE",
"398 27 OFFCURVE",
"353 27 CURVE SMOOTH",
"310 27 OFFCURVE",
"282 31 OFFCURVE",
"231 44 CURVE",
"223 16 LINE",
"270 0 OFFCURVE",
"304 -4 OFFCURVE",
"346 -4 CURVE SMOOTH"
);
}
);
width = 568;
}
);
note = uni1E9E;
unicode = 1E9E;
},
{
glyphname = uni018F;
lastChange = "2015-07-20 14:16:51 +0000";
layers = (
{
layerId = "F84B2E81-E30C-4BCF-B175-C3D49BDC99D5";
name = Light;
paths = (
{
closed = 1;
nodes = (
"466 -4 OFFCURVE",
"526 107 OFFCURVE",
"526 314 CURVE SMOOTH",
"526 529 OFFCURVE",
"429 620 OFFCURVE",
"283 620 CURVE SMOOTH",
"182 620 OFFCURVE",
"122 591 OFFCURVE",
"68 559 CURVE",
"83 535 LINE",
"134 565 OFFCURVE",
"196 589 OFFCURVE",
"276 589 CURVE SMOOTH",
"412 589 OFFCURVE",
"494 507 OFFCURVE",
"494 324 CURVE",
"132 327 LINE",
"68 278 LINE",
"66 266 OFFCURVE",
"65 245 OFFCURVE",
"65 235 CURVE SMOOTH",
"65 88 OFFCURVE",
"136 -4 OFFCURVE",
"286 -4 CURVE SMOOTH"
);
},
{
closed = 1;
nodes = (
"166 27 OFFCURVE",
"97 100 OFFCURVE",
"97 225 CURVE SMOOTH",
"97 246 OFFCURVE",
"98 265 OFFCURVE",
"102 291 CURVE",
"495 297 LINE",
"495 131 OFFCURVE",
"445 27 OFFCURVE",
"288 27 CURVE SMOOTH"
);
}
);
width = 606;
}
);
note = uni018F;
unicode = 018F;
},
{
glyphname = T;
lastChange = "2015-07-21 07:56:30 +0000";
layers = (
{
layerId = "F84B2E81-E30C-4BCF-B175-C3D49BDC99D5";
name = Light;
paths = (
{
closed = 1;
nodes = (
"269 0 LINE",
"269 579 LINE",
"467 579 LINE",
"467 610 LINE",
"38 610 LINE",
"38 579 LINE",
"237 579 LINE",
"237 0 LINE"
);
}
);
width = 505;
}
);
leftKerningGroup = T;
note = T;
rightKerningGroup = T;
unicode = 0054;
},
{
glyphname = Tbar;
lastChange = "2015-07-20 17:38:01 +0000";
layers = (
{
layerId = "F84B2E81-E30C-4BCF-B175-C3D49BDC99D5";
name = Light;
paths = (
{
closed = 1;
nodes = (
"269 0 LINE",
"269 291 LINE",
"386 291 LINE",
"386 322 LINE",
"269 322 LINE",
"269 579 LINE",
"467 579 LINE",
"467 610 LINE",
"38 610 LINE",
"38 579 LINE",
"237 579 LINE",
"237 322 LINE",
"119 322 LINE",
"119 291 LINE",
"237 291 LINE",
"237 0 LINE"
);
}
);
width = 505;
}
);
leftKerningGroup = T;
note = Tbar;
rightKerningGroup = T;
unicode = 0166;
},
{
glyphname = Tcaron;
lastChange = "2015-07-20 17:38:01 +0000";
layers = (
{
layerId = "F84B2E81-E30C-4BCF-B175-C3D49BDC99D5";
name = Light;
paths = (
{
closed = 1;
nodes = (
"269 0 LINE",
"269 579 LINE",
"467 579 LINE",
"467 610 LINE",
"38 610 LINE",
"38 579 LINE",
"237 579 LINE",
"237 0 LINE"
);
},
{
closed = 1;
nodes = (
"271 721 LINE",
"374 852 LINE",
"352 857 LINE",
"255 750 LINE",
"249 750 LINE",
"152 857 LINE",
"130 852 LINE",
"233 721 LINE"
);
}
);
width = 505;
}
);
leftKerningGroup = T;
note = Tcaron;
rightKerningGroup = T;
unicode = 0164;
},
{
glyphname = Tcedilla;
lastChange = "2015-07-20 17:38:01 +0000";
layers = (
{
layerId = "F84B2E81-E30C-4BCF-B175-C3D49BDC99D5";
name = Light;
paths = (
{
closed = 1;
nodes = (
"288 -217 OFFCURVE",
"324 -192 OFFCURVE",
"324 -134 CURVE SMOOTH",
"324 -88 OFFCURVE",
"303 -63 OFFCURVE",
"254 -63 CURVE SMOOTH",
"233 -63 OFFCURVE",
"215 -66 OFFCURVE",
"201 -72 CURVE",
"256 0 LINE",
"269 0 LINE",
"269 579 LINE",
"467 579 LINE",
"467 610 LINE",
"38 610 LINE",
"38 579 LINE",
"237 579 LINE",
"237 5 LINE",
"172 -71 LINE",
"199 -98 LINE",
"215 -93 OFFCURVE",
"228 -92 OFFCURVE",
"247 -92 CURVE SMOOTH",
"283 -92 OFFCURVE",
"294 -108 OFFCURVE",
"294 -139 CURVE SMOOTH",
"294 -154 OFFCURVE",
"291 -171 OFFCURVE",
"287 -181 CURVE",
"272 -186 OFFCURVE",
"258 -188 OFFCURVE",
"233 -188 CURVE SMOOTH",
"206 -188 OFFCURVE",
"183 -184 OFFCURVE",
"160 -176 CURVE",
"150 -202 LINE",
"180 -214 OFFCURVE",
"202 -217 OFFCURVE",
"227 -217 CURVE SMOOTH"
);
}
);
width = 505;
}
);
leftKerningGroup = T;
note = Tcedilla;
rightKerningGroup = T;
unicode = 0162;
},
{
glyphname = Tcommaaccent;
lastChange = "2015-07-20 17:38:01 +0000";
layers = (
{
layerId = "F84B2E81-E30C-4BCF-B175-C3D49BDC99D5";
name = Light;
paths = (
{
closed = 1;
nodes = (
"269 0 LINE",
"269 579 LINE",
"467 579 LINE",
"467 610 LINE",
"38 610 LINE",
"38 579 LINE",
"237 579 LINE",
"237 0 LINE"
);
},
{
closed = 1;
nodes = (
"281 -186 OFFCURVE",
"296 -145 OFFCURVE",
"296 -98 CURVE SMOOTH",
"296 -60 OFFCURVE",
"278 -40 OFFCURVE",
"243 -40 CURVE SMOOTH",
"230 -40 OFFCURVE",
"219 -42 OFFCURVE",
"210 -45 CURVE",
"210 -69 LINE",
"266 -69 LINE",
"266 -137 OFFCURVE",
"253 -177 OFFCURVE",
"229 -219 CURVE",
"251 -224 LINE"
);
}
);
width = 505;
}
);
leftKerningGroup = T;
note = Tcommaaccent;
rightKerningGroup = T;
},
{
glyphname = Tdotbelow;
lastChange = "2015-07-20 17:38:01 +0000";
layers = (
{
layerId = "F84B2E81-E30C-4BCF-B175-C3D49BDC99D5";
name = Light;
paths = (
{
closed = 1;
nodes = (
"269 0 LINE",
"269 579 LINE",
"467 579 LINE",
"467 610 LINE",
"38 610 LINE",
"38 579 LINE",
"237 579 LINE",
"237 0 LINE"
);
},
{
closed = 1;
nodes = (
"276 -142 OFFCURVE",
"289 -130 OFFCURVE",
"289 -108 CURVE SMOOTH",
"289 -84 OFFCURVE",
"276 -72 OFFCURVE",
"253 -72 CURVE SMOOTH",
"230 -72 OFFCURVE",
"216 -84 OFFCURVE",
"216 -108 CURVE SMOOTH",
"216 -130 OFFCURVE",
"230 -142 OFFCURVE",
"253 -142 CURVE SMOOTH"
);
}
);
width = 505;
}
);
leftKerningGroup = T;
note = Tdotbelow;
rightKerningGroup = T;
unicode = 1E6C;
},
{
glyphname = Tlinebelow;
lastChange = "2015-07-20 17:38:01 +0000";
layers = (
{
layerId = "F84B2E81-E30C-4BCF-B175-C3D49BDC99D5";
name = Light;
paths = (
{
closed = 1;
nodes = (
"269 0 LINE",
"269 579 LINE",
"467 579 LINE",
"467 610 LINE",
"38 610 LINE",
"38 579 LINE",
"237 579 LINE",
"237 0 LINE"
);
},
{
closed = 1;
nodes = (
"401 -105 LINE",
"401 -73 LINE",
"103 -73 LINE",
"103 -105 LINE"
);
}
);
width = 505;
}
);
leftKerningGroup = T;
note = Tlinebelow;
rightKerningGroup = T;
unicode = 1E6E;
},
{
glyphname = U;
lastChange = "2015-07-20 14:16:49 +0000";
layers = (
{
layerId = "F84B2E81-E30C-4BCF-B175-C3D49BDC99D5";
name = Light;
paths = (
{
closed = 1;
nodes = (
"415 -10 OFFCURVE",
"497 22 OFFCURVE",
"497 70 CURVE SMOOTH",
"497 610 LINE",
"465 610 LINE",
"465 52 LINE",
"424 34 OFFCURVE",
"372 21 OFFCURVE",
"298 21 CURVE SMOOTH",
"173 21 OFFCURVE",
"118 54 OFFCURVE",
"118 176 CURVE SMOOTH",
"118 610 LINE",
"86 610 LINE",
"86 165 LINE SMOOTH",
"86 45 OFFCURVE",
"153 -10 OFFCURVE",
"291 -10 CURVE SMOOTH"
);
}
);
width = 585;
}
);
note = U;
unicode = 0055;
},
{
glyphname = Uacute;
lastChange = "2015-07-20 14:16:50 +0000";
layers = (
{
layerId = "F84B2E81-E30C-4BCF-B175-C3D49BDC99D5";
name = Light;
paths = (
{
closed = 1;
nodes = (
"415 -10 OFFCURVE",
"497 22 OFFCURVE",
"497 70 CURVE SMOOTH",
"497 610 LINE",
"465 610 LINE",
"465 52 LINE",
"424 34 OFFCURVE",
"372 21 OFFCURVE",
"298 21 CURVE SMOOTH",
"173 21 OFFCURVE",
"118 54 OFFCURVE",
"118 176 CURVE SMOOTH",
"118 610 LINE",
"86 610 LINE",
"86 165 LINE SMOOTH",
"86 45 OFFCURVE",
"153 -10 OFFCURVE",
"291 -10 CURVE SMOOTH"
);
},
{
closed = 1;
nodes = (
"406 853 LINE",
"361 858 LINE",
"277 719 LINE",
"296 715 LINE"
);
}
);
width = 585;
}
);
note = Uacute;
unicode = 00DA;
},
{
glyphname = Ubreve;
lastChange = "2015-07-20 14:16:50 +0000";
layers = (
{
layerId = "F84B2E81-E30C-4BCF-B175-C3D49BDC99D5";
name = Light;
paths = (
{
closed = 1;
nodes = (
"415 -10 OFFCURVE",
"497 22 OFFCURVE",
"497 70 CURVE SMOOTH",
"497 610 LINE",
"465 610 LINE",
"465 52 LINE",
"424 34 OFFCURVE",
"372 21 OFFCURVE",
"298 21 CURVE SMOOTH",
"173 21 OFFCURVE",
"118 54 OFFCURVE",
"118 176 CURVE SMOOTH",
"118 610 LINE",
"86 610 LINE",
"86 165 LINE SMOOTH",
"86 45 OFFCURVE",
"153 -10 OFFCURVE",
"291 -10 CURVE SMOOTH"
);
},
{
closed = 1;
nodes = (
"369 716 OFFCURVE",
"400 760 OFFCURVE",
"412 812 CURVE",
"379 818 LINE",
"370 776 OFFCURVE",
"352 745 OFFCURVE",
"295 745 CURVE SMOOTH",
"238 745 OFFCURVE",
"220 776 OFFCURVE",
"211 818 CURVE",
"178 812 LINE",
"190 760 OFFCURVE",
"221 716 OFFCURVE",
"295 716 CURVE SMOOTH"
);
}
);
width = 585;
}
);
note = Ubreve;
unicode = 016C;
},
{
glyphname = Ucaron;
lastChange = "2015-07-20 14:16:51 +0000";
layers = (
{
layerId = "F84B2E81-E30C-4BCF-B175-C3D49BDC99D5";
name = Light;
paths = (
{
closed = 1;
nodes = (
"415 -10 OFFCURVE",
"497 22 OFFCURVE",
"497 70 CURVE SMOOTH",
"497 610 LINE",
"465 610 LINE",
"465 52 LINE",
"424 34 OFFCURVE",
"372 21 OFFCURVE",
"298 21 CURVE SMOOTH",
"173 21 OFFCURVE",
"118 54 OFFCURVE",
"118 176 CURVE SMOOTH",
"118 610 LINE",
"86 610 LINE",
"86 165 LINE SMOOTH",
"86 45 OFFCURVE",
"153 -10 OFFCURVE",
"291 -10 CURVE SMOOTH"
);
},
{
closed = 1;
nodes = (
"310 721 LINE",
"413 852 LINE",
"391 857 LINE",
"294 750 LINE",
"288 750 LINE",
"191 857 LINE",
"169 852 LINE",
"272 721 LINE"
);
}
);
width = 585;
}
);
note = Ucaron;
unicode = 01D3;
},
{
glyphname = Ucircumflex;
lastChange = "2015-07-20 14:16:51 +0000";
layers = (
{
layerId = "F84B2E81-E30C-4BCF-B175-C3D49BDC99D5";
name = Light;
paths = (
{
closed = 1;
nodes = (
"415 -10 OFFCURVE",
"497 22 OFFCURVE",
"497 70 CURVE SMOOTH",
"497 610 LINE",
"465 610 LINE",
"465 52 LINE",
"424 34 OFFCURVE",
"372 21 OFFCURVE",
"298 21 CURVE SMOOTH",
"173 21 OFFCURVE",
"118 54 OFFCURVE",
"118 176 CURVE SMOOTH",
"118 610 LINE",
"86 610 LINE",
"86 165 LINE SMOOTH",
"86 45 OFFCURVE",
"153 -10 OFFCURVE",
"291 -10 CURVE SMOOTH"
);
},
{
closed = 1;
nodes = (
"291 823 LINE",
"297 823 LINE",
"394 716 LINE",
"416 721 LINE",
"313 852 LINE",
"275 852 LINE",
"172 721 LINE",
"194 716 LINE"
);
}
);
width = 585;
}
);
note = Ucircumflex;
unicode = 00DB;
},
{
glyphname = Udieresis;
lastChange = "2015-07-20 14:16:50 +0000";
layers = (
{
layerId = "F84B2E81-E30C-4BCF-B175-C3D49BDC99D5";
name = Light;
paths = (
{
closed = 1;
nodes = (
"415 -10 OFFCURVE",
"497 22 OFFCURVE",
"497 70 CURVE SMOOTH",
"497 610 LINE",
"465 610 LINE",
"465 52 LINE",
"424 34 OFFCURVE",
"372 21 OFFCURVE",
"298 21 CURVE SMOOTH",
"173 21 OFFCURVE",
"118 54 OFFCURVE",
"118 176 CURVE SMOOTH",
"118 610 LINE",
"86 610 LINE",
"86 165 LINE SMOOTH",
"86 45 OFFCURVE",
"153 -10 OFFCURVE",
"291 -10 CURVE SMOOTH"
);
},
{
closed = 1;
nodes = (
"233 716 OFFCURVE",
"243 726 OFFCURVE",
"243 743 CURVE SMOOTH",
"243 761 OFFCURVE",
"233 770 OFFCURVE",
"216 770 CURVE SMOOTH",
"199 770 OFFCURVE",
"188 761 OFFCURVE",
"188 743 CURVE SMOOTH",
"188 726 OFFCURVE",
"199 716 OFFCURVE",
"216 716 CURVE SMOOTH"
);
},
{
closed = 1;
nodes = (
"391 716 OFFCURVE",
"401 726 OFFCURVE",
"401 743 CURVE SMOOTH",
"401 761 OFFCURVE",
"391 770 OFFCURVE",
"374 770 CURVE SMOOTH",
"356 770 OFFCURVE",
"345 761 OFFCURVE",
"345 743 CURVE SMOOTH",
"345 726 OFFCURVE",
"356 716 OFFCURVE",
"374 716 CURVE SMOOTH"
);
}
);
width = 585;
}
);
note = Udieresis;
unicode = 00DC;
},
{
glyphname = Udieresisacute;
lastChange = "2015-07-20 14:16:51 +0000";
layers = (
{
layerId = "F84B2E81-E30C-4BCF-B175-C3D49BDC99D5";
name = Light;
paths = (
{
closed = 1;
nodes = (
"415 -10 OFFCURVE",
"497 22 OFFCURVE",
"497 70 CURVE SMOOTH",
"497 610 LINE",
"465 610 LINE",
"465 52 LINE",
"424 34 OFFCURVE",
"372 21 OFFCURVE",
"298 21 CURVE SMOOTH",
"173 21 OFFCURVE",
"118 54 OFFCURVE",
"118 176 CURVE SMOOTH",
"118 610 LINE",
"86 610 LINE",
"86 165 LINE SMOOTH",
"86 45 OFFCURVE",
"153 -10 OFFCURVE",
"291 -10 CURVE SMOOTH"
);
},
{
closed = 1;
nodes = (
"231 722 OFFCURVE",
"241 732 OFFCURVE",
"241 749 CURVE SMOOTH",
"241 767 OFFCURVE",
"231 776 OFFCURVE",
"214 776 CURVE SMOOTH",
"197 776 OFFCURVE",
"186 767 OFFCURVE",
"186 749 CURVE SMOOTH",
"186 732 OFFCURVE",
"197 722 OFFCURVE",
"214 722 CURVE SMOOTH"
);
},
{
closed = 1;
nodes = (
"389 722 OFFCURVE",
"399 732 OFFCURVE",
"399 749 CURVE SMOOTH",
"399 767 OFFCURVE",
"389 776 OFFCURVE",
"372 776 CURVE SMOOTH",
"354 776 OFFCURVE",
"343 767 OFFCURVE",
"343 749 CURVE SMOOTH",
"343 732 OFFCURVE",
"354 722 OFFCURVE",
"372 722 CURVE SMOOTH"
);
},
{
closed = 1;
nodes = (
"380 936 LINE",
"343 943 LINE",
"281 841 LINE",
"300 837 LINE"
);
}
);
width = 585;
}
);
note = Udieresisacute;
unicode = 01D7;
},
{
glyphname = Udieresiscaron;
lastChange = "2015-07-20 14:16:51 +0000";
layers = (
{
layerId = "F84B2E81-E30C-4BCF-B175-C3D49BDC99D5";
name = Light;
paths = (
{
closed = 1;
nodes = (
"415 -10 OFFCURVE",
"497 22 OFFCURVE",
"497 70 CURVE SMOOTH",
"497 610 LINE",
"465 610 LINE",
"465 52 LINE",
"424 34 OFFCURVE",
"372 21 OFFCURVE",
"298 21 CURVE SMOOTH",
"173 21 OFFCURVE",
"118 54 OFFCURVE",
"118 176 CURVE SMOOTH",
"118 610 LINE",
"86 610 LINE",
"86 165 LINE SMOOTH",
"86 45 OFFCURVE",
"153 -10 OFFCURVE",
"291 -10 CURVE SMOOTH"
);
},
{
closed = 1;
nodes = (
"227 716 OFFCURVE",
"237 726 OFFCURVE",
"237 743 CURVE SMOOTH",
"237 761 OFFCURVE",
"227 770 OFFCURVE",
"210 770 CURVE SMOOTH",
"193 770 OFFCURVE",
"182 761 OFFCURVE",
"182 743 CURVE SMOOTH",
"182 726 OFFCURVE",
"193 716 OFFCURVE",
"210 716 CURVE SMOOTH"
);
},
{
closed = 1;
nodes = (
"385 716 OFFCURVE",
"395 726 OFFCURVE",
"395 743 CURVE SMOOTH",
"395 761 OFFCURVE",
"385 770 OFFCURVE",
"368 770 CURVE SMOOTH",
"350 770 OFFCURVE",
"339 761 OFFCURVE",
"339 743 CURVE SMOOTH",
"339 726 OFFCURVE",
"350 716 OFFCURVE",
"368 716 CURVE SMOOTH"
);
},
{
closed = 1;
nodes = (
"310 834 LINE",
"401 951 LINE",
"381 956 LINE",
"294 860 LINE",
"288 860 LINE",
"202 956 LINE",
"181 951 LINE",
"272 834 LINE"
);
}
);
width = 585;
}
);
note = Udieresiscaron;
unicode = 01D9;
},
{
glyphname = Udieresisgrave;
lastChange = "2015-07-20 14:16:51 +0000";
layers = (
{
layerId = "F84B2E81-E30C-4BCF-B175-C3D49BDC99D5";
name = Light;
paths = (
{
closed = 1;
nodes = (
"415 -10 OFFCURVE",
"497 22 OFFCURVE",
"497 70 CURVE SMOOTH",
"497 610 LINE",
"465 610 LINE",
"465 52 LINE",
"424 34 OFFCURVE",
"372 21 OFFCURVE",
"298 21 CURVE SMOOTH",
"173 21 OFFCURVE",
"118 54 OFFCURVE",
"118 176 CURVE SMOOTH",
"118 610 LINE",
"86 610 LINE",
"86 165 LINE SMOOTH",
"86 45 OFFCURVE",
"153 -10 OFFCURVE",
"291 -10 CURVE SMOOTH"
);
},
{
closed = 1;
nodes = (
"229 716 OFFCURVE",
"240 726 OFFCURVE",
"240 743 CURVE SMOOTH",
"240 761 OFFCURVE",
"229 770 OFFCURVE",
"211 770 CURVE SMOOTH",
"194 770 OFFCURVE",
"184 761 OFFCURVE",
"184 743 CURVE SMOOTH",
"184 726 OFFCURVE",
"194 716 OFFCURVE",
"211 716 CURVE SMOOTH"
);
},
{
closed = 1;
nodes = (
"386 716 OFFCURVE",
"397 726 OFFCURVE",
"397 743 CURVE SMOOTH",
"397 761 OFFCURVE",
"386 770 OFFCURVE",
"369 770 CURVE SMOOTH",
"352 770 OFFCURVE",
"342 761 OFFCURVE",
"342 743 CURVE SMOOTH",
"342 726 OFFCURVE",
"352 716 OFFCURVE",
"369 716 CURVE SMOOTH"
);
},
{
closed = 1;
nodes = (
"302 835 LINE",
"240 937 LINE",
"203 930 LINE",
"283 831 LINE"
);
}
);
width = 585;
}
);
note = Udieresisgrave;
unicode = 01DB;
},
{
glyphname = Udieresismacron;
lastChange = "2015-07-20 14:16:51 +0000";
layers = (
{
layerId = "F84B2E81-E30C-4BCF-B175-C3D49BDC99D5";
name = Light;
paths = (
{
closed = 1;
nodes = (
"415 -10 OFFCURVE",
"497 22 OFFCURVE",
"497 70 CURVE SMOOTH",
"497 610 LINE",
"465 610 LINE",
"465 52 LINE",
"424 34 OFFCURVE",
"372 21 OFFCURVE",
"298 21 CURVE SMOOTH",
"173 21 OFFCURVE",
"118 54 OFFCURVE",
"118 176 CURVE SMOOTH",
"118 610 LINE",
"86 610 LINE",
"86 165 LINE SMOOTH",
"86 45 OFFCURVE",
"153 -10 OFFCURVE",
"291 -10 CURVE SMOOTH"
);
},
{
closed = 1;
nodes = (
"232 721 OFFCURVE",
"242 731 OFFCURVE",
"242 748 CURVE SMOOTH",
"242 766 OFFCURVE",
"232 775 OFFCURVE",
"215 775 CURVE SMOOTH",
"198 775 OFFCURVE",
"187 766 OFFCURVE",
"187 748 CURVE SMOOTH",
"187 731 OFFCURVE",
"198 721 OFFCURVE",
"215 721 CURVE SMOOTH"
);
},
{
closed = 1;
nodes = (
"390 721 OFFCURVE",
"400 731 OFFCURVE",
"400 748 CURVE SMOOTH",
"400 766 OFFCURVE",
"390 775 OFFCURVE",
"373 775 CURVE SMOOTH",
"355 775 OFFCURVE",
"344 766 OFFCURVE",
"344 748 CURVE SMOOTH",
"344 731 OFFCURVE",
"355 721 OFFCURVE",
"373 721 CURVE SMOOTH"
);
},
{
closed = 1;
nodes = (
"424 844 LINE",
"424 873 LINE",
"168 873 LINE",
"168 844 LINE"
);
}
);
width = 585;
}
);
note = Udieresismacron;
unicode = 01D5;
},
{
glyphname = Udotbelow;
lastChange = "2015-07-20 14:16:51 +0000";
layers = (
{
layerId = "F84B2E81-E30C-4BCF-B175-C3D49BDC99D5";
name = Light;
paths = (
{
closed = 1;
nodes = (
"415 -10 OFFCURVE",
"497 22 OFFCURVE",
"497 70 CURVE SMOOTH",
"497 610 LINE",
"465 610 LINE",
"465 52 LINE",
"424 34 OFFCURVE",
"372 21 OFFCURVE",
"298 21 CURVE SMOOTH",
"173 21 OFFCURVE",
"118 54 OFFCURVE",
"118 176 CURVE SMOOTH",
"118 610 LINE",
"86 610 LINE",
"86 165 LINE SMOOTH",
"86 45 OFFCURVE",
"153 -10 OFFCURVE",
"291 -10 CURVE SMOOTH"
);
},
{
closed = 1;
nodes = (
"324 -142 OFFCURVE",
"337 -130 OFFCURVE",
"337 -108 CURVE SMOOTH",
"337 -84 OFFCURVE",
"324 -72 OFFCURVE",
"301 -72 CURVE SMOOTH",
"278 -72 OFFCURVE",
"264 -84 OFFCURVE",
"264 -108 CURVE SMOOTH",
"264 -130 OFFCURVE",
"278 -142 OFFCURVE",
"301 -142 CURVE SMOOTH"
);
}
);
width = 585;
}
);
note = Udotbelow;
unicode = 1EE4;
},
{
glyphname = Ugrave;
lastChange = "2015-07-20 14:16:51 +0000";
layers = (
{
layerId = "F84B2E81-E30C-4BCF-B175-C3D49BDC99D5";
name = Light;
paths = (
{
closed = 1;
nodes = (
"415 -10 OFFCURVE",
"497 22 OFFCURVE",
"497 70 CURVE SMOOTH",
"497 610 LINE",
"465 610 LINE",
"465 52 LINE",
"424 34 OFFCURVE",
"372 21 OFFCURVE",
"298 21 CURVE SMOOTH",
"173 21 OFFCURVE",
"118 54 OFFCURVE",
"118 176 CURVE SMOOTH",
"118 610 LINE",
"86 610 LINE",
"86 165 LINE SMOOTH",
"86 45 OFFCURVE",
"153 -10 OFFCURVE",
"291 -10 CURVE SMOOTH"
);
},
{
closed = 1;
nodes = (
"316 719 LINE",
"232 858 LINE",
"187 853 LINE",
"297 715 LINE"
);
}
);
width = 585;
}
);
note = Ugrave;
unicode = 00D9;
},
{
glyphname = Uhookabove;
lastChange = "2015-07-20 14:16:51 +0000";
layers = (
{
layerId = "F84B2E81-E30C-4BCF-B175-C3D49BDC99D5";
name = Light;
paths = (
{
closed = 1;
nodes = (
"415 -10 OFFCURVE",
"497 22 OFFCURVE",
"497 70 CURVE SMOOTH",
"497 610 LINE",
"465 610 LINE",
"465 52 LINE",
"424 34 OFFCURVE",
"372 21 OFFCURVE",
"298 21 CURVE SMOOTH",
"173 21 OFFCURVE",
"118 54 OFFCURVE",
"118 176 CURVE SMOOTH",
"118 610 LINE",
"86 610 LINE",
"86 165 LINE SMOOTH",
"86 45 OFFCURVE",
"153 -10 OFFCURVE",
"291 -10 CURVE SMOOTH"
);
},
{
closed = 1;
nodes = (
"294 721 LINE",
"294 760 LINE",
"344 764 OFFCURVE",
"382 780 OFFCURVE",
"382 834 CURVE SMOOTH",
"382 874 OFFCURVE",
"361 905 OFFCURVE",
"308 905 CURVE SMOOTH",
"283 905 OFFCURVE",
"268 902 OFFCURVE",
"246 894 CURVE",
"254 869 LINE",
"271 874 OFFCURVE",
"286 876 OFFCURVE",
"302 876 CURVE SMOOTH",
"339 876 OFFCURVE",
"352 860 OFFCURVE",
"352 834 CURVE SMOOTH",
"352 798 OFFCURVE",
"330 788 OFFCURVE",
"264 788 CURVE",
"264 770 LINE",
"274 721 LINE"
);
}
);
width = 585;
}
);
note = Uhookabove;
unicode = 1EE6;
},
{
glyphname = Uhorn;
lastChange = "2015-07-20 14:16:50 +0000";
layers = (
{
layerId = "F84B2E81-E30C-4BCF-B175-C3D49BDC99D5";
name = Light;
paths = (
{
closed = 1;
nodes = (
"415 -11 OFFCURVE",
"497 21 OFFCURVE",
"497 69 CURVE SMOOTH",
"497 462 LINE",
"629 499 OFFCURVE",
"701 563 OFFCURVE",
"701 690 CURVE",
"669 690 LINE",
"665 570 OFFCURVE",
"599 529 OFFCURVE",
"511 494 CURVE",
"497 494 LINE",
"497 610 LINE",
"465 610 LINE",
"465 51 LINE",
"424 33 OFFCURVE",
"372 20 OFFCURVE",
"298 20 CURVE SMOOTH",
"173 20 OFFCURVE",
"118 53 OFFCURVE",
"118 175 CURVE SMOOTH",
"118 610 LINE",
"86 610 LINE",
"86 164 LINE SMOOTH",
"86 44 OFFCURVE",
"153 -11 OFFCURVE",
"291 -11 CURVE SMOOTH"
);
}
);
width = 716;
}
);
note = Uhorn;
unicode = 01AF;
},
{
glyphname = Uhornacute;
lastChange = "2015-07-20 14:16:51 +0000";
layers = (
{
layerId = "F84B2E81-E30C-4BCF-B175-C3D49BDC99D5";
name = Light;
paths = (
{
closed = 1;
nodes = (
"415 -11 OFFCURVE",
"497 21 OFFCURVE",
"497 69 CURVE SMOOTH",
"497 462 LINE",
"629 499 OFFCURVE",
"701 563 OFFCURVE",
"701 690 CURVE",
"669 690 LINE",
"665 570 OFFCURVE",
"599 529 OFFCURVE",
"511 494 CURVE",
"497 494 LINE",
"497 610 LINE",
"465 610 LINE",
"465 51 LINE",
"424 33 OFFCURVE",
"372 20 OFFCURVE",
"298 20 CURVE SMOOTH",
"173 20 OFFCURVE",
"118 53 OFFCURVE",
"118 175 CURVE SMOOTH",
"118 610 LINE",
"86 610 LINE",
"86 164 LINE SMOOTH",
"86 44 OFFCURVE",
"153 -11 OFFCURVE",
"291 -11 CURVE SMOOTH"
);
},
{
closed = 1;
nodes = (
"411 854 LINE",
"366 859 LINE",
"282 720 LINE",
"301 716 LINE"
);
}
);
width = 716;
}
);
note = Uhornacute;
unicode = 1EE8;
},
{
glyphname = Uhorndotbelow;
lastChange = "2015-07-20 14:16:51 +0000";
layers = (
{
layerId = "F84B2E81-E30C-4BCF-B175-C3D49BDC99D5";
name = Light;
paths = (
{
closed = 1;
nodes = (
"415 -11 OFFCURVE",
"497 21 OFFCURVE",
"497 69 CURVE SMOOTH",
"497 462 LINE",
"629 499 OFFCURVE",
"701 563 OFFCURVE",
"701 690 CURVE",
"669 690 LINE",
"665 570 OFFCURVE",
"599 529 OFFCURVE",
"511 494 CURVE",
"497 494 LINE",
"497 610 LINE",
"465 610 LINE",
"465 51 LINE",
"424 33 OFFCURVE",
"372 20 OFFCURVE",
"298 20 CURVE SMOOTH",
"173 20 OFFCURVE",
"118 53 OFFCURVE",
"118 175 CURVE SMOOTH",
"118 610 LINE",
"86 610 LINE",
"86 164 LINE SMOOTH",
"86 44 OFFCURVE",
"153 -11 OFFCURVE",
"291 -11 CURVE SMOOTH"
);
},
{
closed = 1;
nodes = (
"324 -142 OFFCURVE",
"337 -130 OFFCURVE",
"337 -108 CURVE SMOOTH",
"337 -84 OFFCURVE",
"324 -72 OFFCURVE",
"301 -72 CURVE SMOOTH",
"278 -72 OFFCURVE",
"264 -84 OFFCURVE",
"264 -108 CURVE SMOOTH",
"264 -130 OFFCURVE",
"278 -142 OFFCURVE",
"301 -142 CURVE SMOOTH"
);
}
);
width = 716;
}
);
note = Uhorndotbelow;
unicode = 1EF0;
},
{
glyphname = Uhorngrave;
lastChange = "2015-07-20 14:16:50 +0000";
layers = (
{
layerId = "F84B2E81-E30C-4BCF-B175-C3D49BDC99D5";
name = Light;
paths = (
{
closed = 1;
nodes = (
"415 -11 OFFCURVE",
"497 21 OFFCURVE",
"497 69 CURVE SMOOTH",
"497 462 LINE",
"629 499 OFFCURVE",
"701 563 OFFCURVE",
"701 690 CURVE",
"669 690 LINE",
"665 570 OFFCURVE",
"599 529 OFFCURVE",
"511 494 CURVE",
"497 494 LINE",
"497 610 LINE",
"465 610 LINE",
"465 51 LINE",
"424 33 OFFCURVE",
"372 20 OFFCURVE",
"298 20 CURVE SMOOTH",
"173 20 OFFCURVE",
"118 53 OFFCURVE",
"118 175 CURVE SMOOTH",
"118 610 LINE",
"86 610 LINE",
"86 164 LINE SMOOTH",
"86 44 OFFCURVE",
"153 -11 OFFCURVE",
"291 -11 CURVE SMOOTH"
);
},
{
closed = 1;
nodes = (
"315 721 LINE",
"231 860 LINE",
"186 855 LINE",
"296 717 LINE"
);
}
);
width = 716;
}
);
note = Uhorngrave;
unicode = 1EEA;
},
{
glyphname = Uhornhookabove;
lastChange = "2015-07-20 14:16:50 +0000";
layers = (
{
layerId = "F84B2E81-E30C-4BCF-B175-C3D49BDC99D5";
name = Light;
paths = (
{
closed = 1;
nodes = (
"415 -11 OFFCURVE",
"497 21 OFFCURVE",
"497 69 CURVE SMOOTH",
"497 462 LINE",
"629 499 OFFCURVE",
"701 563 OFFCURVE",
"701 690 CURVE",
"669 690 LINE",
"665 570 OFFCURVE",
"599 529 OFFCURVE",
"511 494 CURVE",
"497 494 LINE",
"497 610 LINE",
"465 610 LINE",
"465 51 LINE",
"424 33 OFFCURVE",
"372 20 OFFCURVE",
"298 20 CURVE SMOOTH",
"173 20 OFFCURVE",
"118 53 OFFCURVE",
"118 175 CURVE SMOOTH",
"118 610 LINE",
"86 610 LINE",
"86 164 LINE SMOOTH",
"86 44 OFFCURVE",
"153 -11 OFFCURVE",
"291 -11 CURVE SMOOTH"
);
},
{
closed = 1;
nodes = (
"301 721 LINE",
"301 760 LINE",
"351 764 OFFCURVE",
"389 780 OFFCURVE",
"389 834 CURVE SMOOTH",
"389 874 OFFCURVE",
"368 905 OFFCURVE",
"315 905 CURVE SMOOTH",
"290 905 OFFCURVE",
"275 902 OFFCURVE",
"253 894 CURVE",
"261 869 LINE",
"278 874 OFFCURVE",
"293 876 OFFCURVE",
"309 876 CURVE SMOOTH",
"346 876 OFFCURVE",
"359 860 OFFCURVE",
"359 834 CURVE SMOOTH",
"359 798 OFFCURVE",
"337 788 OFFCURVE",
"271 788 CURVE",
"271 770 LINE",
"281 721 LINE"
);
}
);
width = 716;
}
);
note = Uhornhookabove;
unicode = 1EEC;
},
{
glyphname = Uhorntilde;
lastChange = "2015-07-20 14:16:50 +0000";
layers = (
{
layerId = "F84B2E81-E30C-4BCF-B175-C3D49BDC99D5";
name = Light;
paths = (
{
closed = 1;
nodes = (
"415 -11 OFFCURVE",
"497 21 OFFCURVE",
"497 69 CURVE SMOOTH",
"497 462 LINE",
"629 499 OFFCURVE",
"701 563 OFFCURVE",
"701 690 CURVE",
"669 690 LINE",
"665 570 OFFCURVE",
"599 529 OFFCURVE",
"511 494 CURVE",
"497 494 LINE",
"497 610 LINE",
"465 610 LINE",
"465 51 LINE",
"424 33 OFFCURVE",
"372 20 OFFCURVE",
"298 20 CURVE SMOOTH",
"173 20 OFFCURVE",
"118 53 OFFCURVE",
"118 175 CURVE SMOOTH",
"118 610 LINE",
"86 610 LINE",
"86 164 LINE SMOOTH",
"86 44 OFFCURVE",
"153 -11 OFFCURVE",
"291 -11 CURVE SMOOTH"
);
},
{
closed = 1;
nodes = (
"396 716 OFFCURVE",
"421 749 OFFCURVE",
"424 796 CURVE",
"403 802 LINE",
"398 767 OFFCURVE",
"384 745 OFFCURVE",
"354 745 CURVE SMOOTH",
"312 745 OFFCURVE",
"285 803 OFFCURVE",
"237 803 CURVE SMOOTH",
"196 803 OFFCURVE",
"171 770 OFFCURVE",
"168 723 CURVE",
"189 717 LINE",
"194 752 OFFCURVE",
"208 774 OFFCURVE",
"238 774 CURVE SMOOTH",
"275 774 OFFCURVE",
"305 716 OFFCURVE",
"355 716 CURVE SMOOTH"
);
}
);
width = 716;
}
);
note = Uhorntilde;
unicode = 1EEE;
},
{
glyphname = Uhungarumlaut;
lastChange = "2015-07-20 14:16:50 +0000";
layers = (
{
layerId = "F84B2E81-E30C-4BCF-B175-C3D49BDC99D5";
name = Light;
paths = (
{
closed = 1;
nodes = (
"415 -10 OFFCURVE",
"497 22 OFFCURVE",
"497 70 CURVE SMOOTH",
"497 610 LINE",
"465 610 LINE",
"465 52 LINE",
"424 34 OFFCURVE",
"372 21 OFFCURVE",
"298 21 CURVE SMOOTH",
"173 21 OFFCURVE",
"118 54 OFFCURVE",
"118 176 CURVE SMOOTH",
"118 610 LINE",
"86 610 LINE",
"86 165 LINE SMOOTH",
"86 45 OFFCURVE",
"153 -10 OFFCURVE",
"291 -10 CURVE SMOOTH"
);
},
{
closed = 1;
nodes = (
"237 754 OFFCURVE",
"252 795 OFFCURVE",
"252 842 CURVE SMOOTH",
"252 880 OFFCURVE",
"234 900 OFFCURVE",
"199 900 CURVE SMOOTH",
"186 900 OFFCURVE",
"175 898 OFFCURVE",
"166 895 CURVE",
"166 871 LINE",
"222 871 LINE",
"222 803 OFFCURVE",
"209 763 OFFCURVE",
"185 721 CURVE",
"207 716 LINE"
);
},
{
closed = 1;
nodes = (
"402 754 OFFCURVE",
"417 795 OFFCURVE",
"417 842 CURVE SMOOTH",
"417 880 OFFCURVE",
"399 900 OFFCURVE",
"364 900 CURVE SMOOTH",
"351 900 OFFCURVE",
"340 898 OFFCURVE",
"331 895 CURVE",
"331 871 LINE",
"387 871 LINE",
"387 803 OFFCURVE",
"374 763 OFFCURVE",
"350 721 CURVE",
"372 716 LINE"
);
}
);
width = 585;
}
);
note = Uhungarumlaut;
unicode = 0170;
},
{
glyphname = Umacron;
lastChange = "2015-07-20 14:16:51 +0000";
layers = (
{
layerId = "F84B2E81-E30C-4BCF-B175-C3D49BDC99D5";
name = Light;
paths = (
{
closed = 1;
nodes = (
"415 -10 OFFCURVE",
"497 22 OFFCURVE",
"497 70 CURVE SMOOTH",
"497 610 LINE",
"465 610 LINE",
"465 52 LINE",
"424 34 OFFCURVE",
"372 21 OFFCURVE",
"298 21 CURVE SMOOTH",
"173 21 OFFCURVE",
"118 54 OFFCURVE",
"118 176 CURVE SMOOTH",
"118 610 LINE",
"86 610 LINE",
"86 165 LINE SMOOTH",
"86 45 OFFCURVE",
"153 -10 OFFCURVE",
"291 -10 CURVE SMOOTH"
);
},
{
closed = 1;
nodes = (
"419 721 LINE",
"419 750 LINE",
"163 750 LINE",
"163 721 LINE"
);
}
);
width = 585;
}
);
note = Umacron;
unicode = 016A;
},
{
glyphname = Uogonek;
lastChange = "2015-07-20 14:16:50 +0000";
layers = (
{
layerId = "F84B2E81-E30C-4BCF-B175-C3D49BDC99D5";
name = Light;
paths = (
{
closed = 1;
nodes = (
"350 -161 OFFCURVE",
"365 -157 OFFCURVE",
"380 -150 CURVE",
"375 -127 LINE",
"360 -130 OFFCURVE",
"347 -132 OFFCURVE",
"334 -132 CURVE SMOOTH",
"319 -132 OFFCURVE",
"309 -131 OFFCURVE",
"294 -128 CURVE",
"287 -116 OFFCURVE",
"284 -101 OFFCURVE",
"284 -87 CURVE SMOOTH",
"284 -54 OFFCURVE",
"294 -31 OFFCURVE",
"323 -9 CURVE",
"429 -4 OFFCURVE",
"497 26 OFFCURVE",
"497 70 CURVE SMOOTH",
"497 610 LINE",
"465 610 LINE",
"465 52 LINE",
"424 34 OFFCURVE",
"372 21 OFFCURVE",
"298 21 CURVE SMOOTH",
"173 21 OFFCURVE",
"118 54 OFFCURVE",
"118 176 CURVE SMOOTH",
"118 610 LINE",
"86 610 LINE",
"86 165 LINE SMOOTH",
"86 46 OFFCURVE",
"152 -9 OFFCURVE",
"288 -10 CURVE",
"264 -30 OFFCURVE",
"254 -55 OFFCURVE",
"254 -86 CURVE SMOOTH",
"254 -129 OFFCURVE",
"278 -161 OFFCURVE",
"327 -161 CURVE SMOOTH"
);
}
);
width = 585;
}
);
note = Uogonek;
unicode = 0172;
},
{
glyphname = Uring;
lastChange = "2015-07-20 14:16:50 +0000";
layers = (
{
layerId = "F84B2E81-E30C-4BCF-B175-C3D49BDC99D5";
name = Light;
paths = (
{
closed = 1;
nodes = (
"415 -10 OFFCURVE",
"497 22 OFFCURVE",
"497 70 CURVE SMOOTH",
"497 610 LINE",
"465 610 LINE",
"465 52 LINE",
"424 34 OFFCURVE",
"372 21 OFFCURVE",
"298 21 CURVE SMOOTH",
"173 21 OFFCURVE",
"118 54 OFFCURVE",
"118 176 CURVE SMOOTH",
"118 610 LINE",
"86 610 LINE",
"86 165 LINE SMOOTH",
"86 45 OFFCURVE",
"153 -10 OFFCURVE",
"291 -10 CURVE SMOOTH"
);
},
{
closed = 1;
nodes = (
"357 598 OFFCURVE",
"394 642 OFFCURVE",
"394 690 CURVE SMOOTH",
"394 742 OFFCURVE",
"366 767 OFFCURVE",
"301 767 CURVE SMOOTH",
"233 767 OFFCURVE",
"189 723 OFFCURVE",
"189 675 CURVE SMOOTH",
"189 625 OFFCURVE",
"221 598 OFFCURVE",
"282 598 CURVE SMOOTH"
);
},
{
closed = 1;
nodes = (
"239 623 OFFCURVE",
"217 642 OFFCURVE",
"217 678 CURVE SMOOTH",
"217 696 OFFCURVE",
"219 709 OFFCURVE",
"227 732 CURVE",
"252 740 OFFCURVE",
"271 742 OFFCURVE",
"297 742 CURVE SMOOTH",
"344 742 OFFCURVE",
"366 727 OFFCURVE",
"366 687 CURVE SMOOTH",
"366 669 OFFCURVE",
"363 653 OFFCURVE",
"356 633 CURVE",
"331 625 OFFCURVE",
"312 623 OFFCURVE",
"286 623 CURVE SMOOTH"
);
}
);
width = 585;
}
);
note = Uring;
unicode = 016E;
},
{
glyphname = Utilde;
lastChange = "2015-07-20 14:16:51 +0000";
layers = (
{
layerId = "F84B2E81-E30C-4BCF-B175-C3D49BDC99D5";
name = Light;
paths = (
{
closed = 1;
nodes = (
"415 -10 OFFCURVE",
"497 22 OFFCURVE",
"497 70 CURVE SMOOTH",
"497 610 LINE",
"465 610 LINE",
"465 52 LINE",
"424 34 OFFCURVE",
"372 21 OFFCURVE",
"298 21 CURVE SMOOTH",
"173 21 OFFCURVE",
"118 54 OFFCURVE",
"118 176 CURVE SMOOTH",
"118 610 LINE",
"86 610 LINE",
"86 165 LINE SMOOTH",
"86 45 OFFCURVE",
"153 -10 OFFCURVE",
"291 -10 CURVE SMOOTH"
);
},
{
closed = 1;
nodes = (
"391 716 OFFCURVE",
"416 749 OFFCURVE",
"419 796 CURVE",
"398 802 LINE",
"393 767 OFFCURVE",
"379 745 OFFCURVE",
"349 745 CURVE SMOOTH",
"307 745 OFFCURVE",
"280 803 OFFCURVE",
"232 803 CURVE SMOOTH",
"191 803 OFFCURVE",
"166 770 OFFCURVE",
"163 723 CURVE",
"184 717 LINE",
"189 752 OFFCURVE",
"203 774 OFFCURVE",
"233 774 CURVE SMOOTH",
"270 774 OFFCURVE",
"300 716 OFFCURVE",
"350 716 CURVE SMOOTH"
);
}
);
width = 585;
}
);
note = Utilde;
unicode = 0168;
},
{
glyphname = V;
lastChange = "2015-07-21 07:47:24 +0000";
layers = (
{
layerId = "F84B2E81-E30C-4BCF-B175-C3D49BDC99D5";
name = Light;
paths = (
{
closed = 1;
nodes = (
"314 0 LINE",
"394 175 OFFCURVE",
"469 408 OFFCURVE",
"520 611 CURVE",
"486 615 LINE",
"440 417 OFFCURVE",
"354 164 OFFCURVE",
"295 31 CURVE",
"274 31 LINE",
"215 164 OFFCURVE",
"129 417 OFFCURVE",
"83 615 CURVE",
"49 611 LINE",
"100 408 OFFCURVE",
"175 175 OFFCURVE",
"255 0 CURVE"
);
}
);
width = 569;
}
);
note = V;
unicode = 0056;
},
{
glyphname = W;
lastChange = "2015-07-21 07:48:35 +0000";
layers = (
{
layerId = "F84B2E81-E30C-4BCF-B175-C3D49BDC99D5";
name = Light;
paths = (
{
closed = 1;
nodes = (
"252 0 LINE",
"323 154 OFFCURVE",
"380 303 OFFCURVE",
"417 423 CURVE",
"424 423 LINE",
"461 285 OFFCURVE",
"497 172 OFFCURVE",
"562 0 CURVE",
"606 0 LINE",
"658 168 OFFCURVE",
"713 381 OFFCURVE",
"763 610 CURVE",
"729 616 LINE",
"685 391 OFFCURVE",
"625 166 OFFCURVE",
"585 31 CURVE",
"579 31 LINE",
"521 185 OFFCURVE",
"451 411 OFFCURVE",
"411 609 CURVE",
"379 604 LINE",
"384 577 OFFCURVE",
"398 511 OFFCURVE",
"404 484 CURVE",
"359 328 OFFCURVE",
"293 156 OFFCURVE",
"237 31 CURVE",
"231 31 LINE",
"191 166 OFFCURVE",
"131 391 OFFCURVE",
"87 616 CURVE",
"53 610 LINE",
"103 381 OFFCURVE",
"158 168 OFFCURVE",
"210 0 CURVE"
);
}
);
width = 816;
}
);
leftKerningGroup = W;
note = W;
rightKerningGroup = W;
unicode = 0057;
},
{
glyphname = Wacute;
lastChange = "2015-07-20 17:54:20 +0000";
layers = (
{
layerId = "F84B2E81-E30C-4BCF-B175-C3D49BDC99D5";
name = Light;
paths = (
{
closed = 1;
nodes = (
"252 0 LINE",
"323 154 OFFCURVE",
"380 303 OFFCURVE",
"417 423 CURVE",
"424 423 LINE",
"461 285 OFFCURVE",
"497 172 OFFCURVE",
"562 0 CURVE",
"606 0 LINE",
"658 168 OFFCURVE",
"713 381 OFFCURVE",
"763 610 CURVE",
"729 616 LINE",
"685 391 OFFCURVE",
"625 166 OFFCURVE",
"585 31 CURVE",
"579 31 LINE",
"521 185 OFFCURVE",
"451 411 OFFCURVE",
"411 609 CURVE",
"379 604 LINE",
"384 577 OFFCURVE",
"398 511 OFFCURVE",
"404 484 CURVE",
"359 328 OFFCURVE",
"293 156 OFFCURVE",
"237 31 CURVE",
"231 31 LINE",
"191 166 OFFCURVE",
"131 391 OFFCURVE",
"87 616 CURVE",
"53 610 LINE",
"103 381 OFFCURVE",
"158 168 OFFCURVE",
"210 0 CURVE"
);
},
{
closed = 1;
nodes = (
"513 854 LINE",
"468 859 LINE",
"384 720 LINE",
"403 716 LINE"
);
}
);
width = 816;
}
);
leftKerningGroup = W;
note = Wacute;
rightKerningGroup = W;
unicode = 1E82;
},
{
glyphname = Wcircumflex;
lastChange = "2015-07-20 17:54:20 +0000";
layers = (
{
layerId = "F84B2E81-E30C-4BCF-B175-C3D49BDC99D5";
name = Light;
paths = (
{
closed = 1;
nodes = (
"252 0 LINE",
"323 154 OFFCURVE",
"380 303 OFFCURVE",
"417 423 CURVE",
"424 423 LINE",
"461 285 OFFCURVE",
"497 172 OFFCURVE",
"562 0 CURVE",
"606 0 LINE",
"658 168 OFFCURVE",
"713 381 OFFCURVE",
"763 610 CURVE",
"729 616 LINE",
"685 391 OFFCURVE",
"625 166 OFFCURVE",
"585 31 CURVE",
"579 31 LINE",
"521 185 OFFCURVE",
"451 411 OFFCURVE",
"411 609 CURVE",
"379 604 LINE",
"384 577 OFFCURVE",
"398 511 OFFCURVE",
"404 484 CURVE",
"359 328 OFFCURVE",
"293 156 OFFCURVE",
"237 31 CURVE",
"231 31 LINE",
"191 166 OFFCURVE",
"131 391 OFFCURVE",
"87 616 CURVE",
"53 610 LINE",
"103 381 OFFCURVE",
"158 168 OFFCURVE",
"210 0 CURVE"
);
},
{
closed = 1;
nodes = (
"405 822 LINE",
"411 822 LINE",
"508 715 LINE",
"530 720 LINE",
"427 851 LINE",
"389 851 LINE",
"286 720 LINE",
"308 715 LINE"
);
}
);
width = 816;
}
);
leftKerningGroup = W;
note = Wcircumflex;
rightKerningGroup = W;
unicode = 0174;
},
{
glyphname = Wdieresis;
lastChange = "2015-07-20 17:54:20 +0000";
layers = (
{
layerId = "F84B2E81-E30C-4BCF-B175-C3D49BDC99D5";
name = Light;
paths = (
{
closed = 1;
nodes = (
"252 0 LINE",
"323 154 OFFCURVE",
"380 303 OFFCURVE",
"417 423 CURVE",
"424 423 LINE",
"461 285 OFFCURVE",
"497 172 OFFCURVE",
"562 0 CURVE",
"606 0 LINE",
"658 168 OFFCURVE",
"713 381 OFFCURVE",
"763 610 CURVE",
"729 616 LINE",
"685 391 OFFCURVE",
"625 166 OFFCURVE",
"585 31 CURVE",
"579 31 LINE",
"521 185 OFFCURVE",
"451 411 OFFCURVE",
"411 609 CURVE",
"379 604 LINE",
"384 577 OFFCURVE",
"398 511 OFFCURVE",
"404 484 CURVE",
"359 328 OFFCURVE",
"293 156 OFFCURVE",
"237 31 CURVE",
"231 31 LINE",
"191 166 OFFCURVE",
"131 391 OFFCURVE",
"87 616 CURVE",
"53 610 LINE",
"103 381 OFFCURVE",
"158 168 OFFCURVE",
"210 0 CURVE"
);
},
{
closed = 1;
nodes = (
"347 716 OFFCURVE",
"357 726 OFFCURVE",
"357 743 CURVE SMOOTH",
"357 761 OFFCURVE",
"347 770 OFFCURVE",
"330 770 CURVE SMOOTH",
"313 770 OFFCURVE",
"302 761 OFFCURVE",
"302 743 CURVE SMOOTH",
"302 726 OFFCURVE",
"313 716 OFFCURVE",
"330 716 CURVE SMOOTH"
);
},
{
closed = 1;
nodes = (
"505 716 OFFCURVE",
"515 726 OFFCURVE",
"515 743 CURVE SMOOTH",
"515 761 OFFCURVE",
"505 770 OFFCURVE",
"488 770 CURVE SMOOTH",
"470 770 OFFCURVE",
"459 761 OFFCURVE",
"459 743 CURVE SMOOTH",
"459 726 OFFCURVE",
"470 716 OFFCURVE",
"488 716 CURVE SMOOTH"
);
}
);
width = 816;
}
);
leftKerningGroup = W;
note = Wdieresis;
rightKerningGroup = W;
unicode = 1E84;
},
{
glyphname = Wgrave;
lastChange = "2015-07-20 17:54:20 +0000";
layers = (
{
layerId = "F84B2E81-E30C-4BCF-B175-C3D49BDC99D5";
name = Light;
paths = (
{
closed = 1;
nodes = (
"252 0 LINE",
"323 154 OFFCURVE",
"380 303 OFFCURVE",
"417 423 CURVE",
"424 423 LINE",
"461 285 OFFCURVE",
"497 172 OFFCURVE",
"562 0 CURVE",
"606 0 LINE",
"658 168 OFFCURVE",
"713 381 OFFCURVE",
"763 610 CURVE",
"729 616 LINE",
"685 391 OFFCURVE",
"625 166 OFFCURVE",
"585 31 CURVE",
"579 31 LINE",
"521 185 OFFCURVE",
"451 411 OFFCURVE",
"411 609 CURVE",
"379 604 LINE",
"384 577 OFFCURVE",
"398 511 OFFCURVE",
"404 484 CURVE",
"359 328 OFFCURVE",
"293 156 OFFCURVE",
"237 31 CURVE",
"231 31 LINE",
"191 166 OFFCURVE",
"131 391 OFFCURVE",
"87 616 CURVE",
"53 610 LINE",
"103 381 OFFCURVE",
"158 168 OFFCURVE",
"210 0 CURVE"
);
},
{
closed = 1;
nodes = (
"438 720 LINE",
"354 859 LINE",
"309 854 LINE",
"419 716 LINE"
);
}
);
width = 816;
}
);
leftKerningGroup = W;
note = Wgrave;
rightKerningGroup = W;
unicode = 1E80;
},
{
glyphname = X;
lastChange = "2015-07-20 14:16:49 +0000";
layers = (
{
layerId = "F84B2E81-E30C-4BCF-B175-C3D49BDC99D5";
name = Light;
paths = (
{
closed = 1;
nodes = (
"141 92 OFFCURVE",
"198 177 OFFCURVE",
"284 290 CURVE",
"322 290 LINE",
"408 177 OFFCURVE",
"465 92 OFFCURVE",
"518 -5 CURVE",
"551 6 LINE",
"493 109 OFFCURVE",
"418 220 OFFCURVE",
"349 307 CURVE",
"411 391 OFFCURVE",
"480 504 OFFCURVE",
"537 608 CURVE",
"503 618 LINE",
"448 512 OFFCURVE",
"389 416 OFFCURVE",
"324 325 CURVE",
"282 325 LINE",
"217 416 OFFCURVE",
"158 512 OFFCURVE",
"103 618 CURVE",
"69 608 LINE",
"126 504 OFFCURVE",
"195 391 OFFCURVE",
"257 307 CURVE",
"188 220 OFFCURVE",
"113 109 OFFCURVE",
"55 6 CURVE",
"88 -5 LINE"
);
}
);
width = 606;
}
);
note = X;
unicode = 0058;
},
{
glyphname = Y;
lastChange = "2015-07-21 07:52:15 +0000";
layers = (
{
layerId = "F84B2E81-E30C-4BCF-B175-C3D49BDC99D5";
name = Light;
paths = (
{
closed = 1;
nodes = (
"307 0 LINE",
"307 235 LINE",
"325 235 LINE",
"405 329 OFFCURVE",
"485 458 OFFCURVE",
"548 606 CURVE",
"516 617 LINE",
"462 479 OFFCURVE",
"383 353 OFFCURVE",
"311 262 CURVE",
"271 262 LINE",
"199 353 OFFCURVE",
"120 479 OFFCURVE",
"66 617 CURVE",
"34 606 LINE",
"97 458 OFFCURVE",
"177 329 OFFCURVE",
"257 235 CURVE",
"275 235 LINE",
"275 0 LINE"
);
}
);
width = 582;
}
);
leftKerningGroup = Y;
note = Y;
rightKerningGroup = Y;
unicode = 0059;
},
{
glyphname = Yacute;
lastChange = "2015-07-20 17:54:50 +0000";
layers = (
{
layerId = "F84B2E81-E30C-4BCF-B175-C3D49BDC99D5";
name = Light;
paths = (
{
closed = 1;
nodes = (
"307 0 LINE",
"307 235 LINE",
"325 235 LINE",
"405 329 OFFCURVE",
"485 458 OFFCURVE",
"548 606 CURVE",
"516 617 LINE",
"462 479 OFFCURVE",
"383 353 OFFCURVE",
"311 262 CURVE",
"271 262 LINE",
"199 353 OFFCURVE",
"120 479 OFFCURVE",
"66 617 CURVE",
"34 606 LINE",
"97 458 OFFCURVE",
"177 329 OFFCURVE",
"257 235 CURVE",
"275 235 LINE",
"275 0 LINE"
);
},
{
closed = 1;
nodes = (
"400 854 LINE",
"355 859 LINE",
"271 720 LINE",
"290 716 LINE"
);
}
);
width = 582;
}
);
leftKerningGroup = Y;
note = Yacute;
rightKerningGroup = Y;
unicode = 00DD;
},
{
glyphname = Ycircumflex;
lastChange = "2015-07-20 17:54:50 +0000";
layers = (
{
layerId = "F84B2E81-E30C-4BCF-B175-C3D49BDC99D5";
name = Light;
paths = (
{
closed = 1;
nodes = (
"307 0 LINE",
"307 235 LINE",
"325 235 LINE",
"405 329 OFFCURVE",
"485 458 OFFCURVE",
"548 606 CURVE",
"516 617 LINE",
"462 479 OFFCURVE",
"383 353 OFFCURVE",
"311 262 CURVE",
"271 262 LINE",
"199 353 OFFCURVE",
"120 479 OFFCURVE",
"66 617 CURVE",
"34 606 LINE",
"97 458 OFFCURVE",
"177 329 OFFCURVE",
"257 235 CURVE",
"275 235 LINE",
"275 0 LINE"
);
},
{
closed = 1;
nodes = (
"288 823 LINE",
"294 823 LINE",
"391 716 LINE",
"413 721 LINE",
"310 852 LINE",
"272 852 LINE",
"169 721 LINE",
"191 716 LINE"
);
}
);
width = 582;
}
);
leftKerningGroup = Y;
note = Ycircumflex;
rightKerningGroup = Y;
unicode = 0176;
},
{
glyphname = Ydieresis;
lastChange = "2015-07-20 17:54:50 +0000";
layers = (
{
layerId = "F84B2E81-E30C-4BCF-B175-C3D49BDC99D5";
name = Light;
paths = (
{
closed = 1;
nodes = (
"307 0 LINE",
"307 235 LINE",
"325 235 LINE",
"405 329 OFFCURVE",
"485 458 OFFCURVE",
"548 606 CURVE",
"516 617 LINE",
"462 479 OFFCURVE",
"383 353 OFFCURVE",
"311 262 CURVE",
"271 262 LINE",
"199 353 OFFCURVE",
"120 479 OFFCURVE",
"66 617 CURVE",
"34 606 LINE",
"97 458 OFFCURVE",
"177 329 OFFCURVE",
"257 235 CURVE",
"275 235 LINE",
"275 0 LINE"
);
},
{
closed = 1;
nodes = (
"230 716 OFFCURVE",
"240 726 OFFCURVE",
"240 743 CURVE SMOOTH",
"240 761 OFFCURVE",
"230 770 OFFCURVE",
"213 770 CURVE SMOOTH",
"196 770 OFFCURVE",
"185 761 OFFCURVE",
"185 743 CURVE SMOOTH",
"185 726 OFFCURVE",
"196 716 OFFCURVE",
"213 716 CURVE SMOOTH"
);
},
{
closed = 1;
nodes = (
"388 716 OFFCURVE",
"398 726 OFFCURVE",
"398 743 CURVE SMOOTH",
"398 761 OFFCURVE",
"388 770 OFFCURVE",
"371 770 CURVE SMOOTH",
"353 770 OFFCURVE",
"342 761 OFFCURVE",
"342 743 CURVE SMOOTH",
"342 726 OFFCURVE",
"353 716 OFFCURVE",
"371 716 CURVE SMOOTH"
);
}
);
width = 582;
}
);
leftKerningGroup = Y;
note = Ydieresis;
rightKerningGroup = Y;
unicode = 0178;
},
{
glyphname = Ydotaccent;
lastChange = "2015-07-20 17:54:50 +0000";
layers = (
{
layerId = "F84B2E81-E30C-4BCF-B175-C3D49BDC99D5";
name = Light;
paths = (
{
closed = 1;
nodes = (
"307 0 LINE",
"307 235 LINE",
"325 235 LINE",
"405 329 OFFCURVE",
"485 458 OFFCURVE",
"548 606 CURVE",
"516 617 LINE",
"462 479 OFFCURVE",
"383 353 OFFCURVE",
"311 262 CURVE",
"271 262 LINE",
"199 353 OFFCURVE",
"120 479 OFFCURVE",
"66 617 CURVE",
"34 606 LINE",
"97 458 OFFCURVE",
"177 329 OFFCURVE",
"257 235 CURVE",
"275 235 LINE",
"275 0 LINE"
);
},
{
closed = 1;
nodes = (
"315 716 OFFCURVE",
"328 728 OFFCURVE",
"328 750 CURVE SMOOTH",
"328 774 OFFCURVE",
"315 786 OFFCURVE",
"292 786 CURVE SMOOTH",
"269 786 OFFCURVE",
"255 774 OFFCURVE",
"255 750 CURVE SMOOTH",
"255 728 OFFCURVE",
"269 716 OFFCURVE",
"292 716 CURVE SMOOTH"
);
}
);
width = 582;
}
);
leftKerningGroup = Y;
note = Ydotaccent;
rightKerningGroup = Y;
unicode = 1E8E;
},
{
glyphname = Ydotbelow;
lastChange = "2015-07-20 17:54:50 +0000";
layers = (
{
layerId = "F84B2E81-E30C-4BCF-B175-C3D49BDC99D5";
name = Light;
paths = (
{
closed = 1;
nodes = (
"307 0 LINE",
"307 235 LINE",
"325 235 LINE",
"405 329 OFFCURVE",
"485 458 OFFCURVE",
"548 606 CURVE",
"516 617 LINE",
"462 479 OFFCURVE",
"383 353 OFFCURVE",
"311 262 CURVE",
"271 262 LINE",
"199 353 OFFCURVE",
"120 479 OFFCURVE",
"66 617 CURVE",
"34 606 LINE",
"97 458 OFFCURVE",
"177 329 OFFCURVE",
"257 235 CURVE",
"275 235 LINE",
"275 0 LINE"
);
},
{
closed = 1;
nodes = (
"315 -142 OFFCURVE",
"328 -130 OFFCURVE",
"328 -108 CURVE SMOOTH",
"328 -84 OFFCURVE",
"315 -72 OFFCURVE",
"292 -72 CURVE SMOOTH",
"269 -72 OFFCURVE",
"255 -84 OFFCURVE",
"255 -108 CURVE SMOOTH",
"255 -130 OFFCURVE",
"269 -142 OFFCURVE",
"292 -142 CURVE SMOOTH"
);
}
);
width = 582;
}
);
leftKerningGroup = Y;
note = Ydotbelow;
rightKerningGroup = Y;
unicode = 1EF4;
},
{
glyphname = Ygrave;
lastChange = "2015-07-20 17:54:50 +0000";
layers = (
{
layerId = "F84B2E81-E30C-4BCF-B175-C3D49BDC99D5";
name = Light;
paths = (
{
closed = 1;
nodes = (
"307 0 LINE",
"307 235 LINE",
"325 235 LINE",
"405 329 OFFCURVE",
"485 458 OFFCURVE",
"548 606 CURVE",
"516 617 LINE",
"462 479 OFFCURVE",
"383 353 OFFCURVE",
"311 262 CURVE",
"271 262 LINE",
"199 353 OFFCURVE",
"120 479 OFFCURVE",
"66 617 CURVE",
"34 606 LINE",
"97 458 OFFCURVE",
"177 329 OFFCURVE",
"257 235 CURVE",
"275 235 LINE",
"275 0 LINE"
);
},
{
closed = 1;
nodes = (
"306 721 LINE",
"222 860 LINE",
"177 855 LINE",
"287 717 LINE"
);
}
);
width = 582;
}
);
leftKerningGroup = Y;
note = Ygrave;
rightKerningGroup = Y;
unicode = 1EF2;
},
{
glyphname = Yhookabove;
lastChange = "2015-07-20 17:54:50 +0000";
layers = (
{
layerId = "F84B2E81-E30C-4BCF-B175-C3D49BDC99D5";
name = Light;
paths = (
{
closed = 1;
nodes = (
"307 0 LINE",
"307 235 LINE",
"325 235 LINE",
"405 329 OFFCURVE",
"485 458 OFFCURVE",
"548 606 CURVE",
"516 617 LINE",
"462 479 OFFCURVE",
"383 353 OFFCURVE",
"311 262 CURVE",
"271 262 LINE",
"199 353 OFFCURVE",
"120 479 OFFCURVE",
"66 617 CURVE",
"34 606 LINE",
"97 458 OFFCURVE",
"177 329 OFFCURVE",
"257 235 CURVE",
"275 235 LINE",
"275 0 LINE"
);
},
{
closed = 1;
nodes = (
"303 721 LINE",
"303 760 LINE",
"353 764 OFFCURVE",
"391 780 OFFCURVE",
"391 834 CURVE SMOOTH",
"391 874 OFFCURVE",
"370 905 OFFCURVE",
"317 905 CURVE SMOOTH",
"292 905 OFFCURVE",
"277 902 OFFCURVE",
"255 894 CURVE",
"263 869 LINE",
"280 874 OFFCURVE",
"295 876 OFFCURVE",
"311 876 CURVE SMOOTH",
"348 876 OFFCURVE",
"361 860 OFFCURVE",
"361 834 CURVE SMOOTH",
"361 798 OFFCURVE",
"339 788 OFFCURVE",
"273 788 CURVE",
"273 770 LINE",
"283 721 LINE"
);
}
);
width = 582;
}
);
leftKerningGroup = Y;
note = Yhookabove;
rightKerningGroup = Y;
unicode = 1EF6;
},
{
glyphname = Ytilde;
lastChange = "2015-07-20 17:54:50 +0000";
layers = (
{
layerId = "F84B2E81-E30C-4BCF-B175-C3D49BDC99D5";
name = Light;
paths = (
{
closed = 1;
nodes = (
"307 0 LINE",
"307 235 LINE",
"325 235 LINE",
"405 329 OFFCURVE",
"485 458 OFFCURVE",
"548 606 CURVE",
"516 617 LINE",
"462 479 OFFCURVE",
"383 353 OFFCURVE",
"311 262 CURVE",
"271 262 LINE",
"199 353 OFFCURVE",
"120 479 OFFCURVE",
"66 617 CURVE",
"34 606 LINE",
"97 458 OFFCURVE",
"177 329 OFFCURVE",
"257 235 CURVE",
"275 235 LINE",
"275 0 LINE"
);
},
{
closed = 1;
nodes = (
"391 716 OFFCURVE",
"416 749 OFFCURVE",
"419 796 CURVE",
"398 802 LINE",
"393 767 OFFCURVE",
"379 745 OFFCURVE",
"349 745 CURVE SMOOTH",
"307 745 OFFCURVE",
"280 803 OFFCURVE",
"232 803 CURVE SMOOTH",
"191 803 OFFCURVE",
"166 770 OFFCURVE",
"163 723 CURVE",
"184 717 LINE",
"189 752 OFFCURVE",
"203 774 OFFCURVE",
"233 774 CURVE SMOOTH",
"270 774 OFFCURVE",
"300 716 OFFCURVE",
"350 716 CURVE SMOOTH"
);
}
);
width = 582;
}
);
leftKerningGroup = Y;
note = Ytilde;
rightKerningGroup = Y;
unicode = 1EF8;
},
{
glyphname = Z;
lastChange = "2015-07-21 07:52:54 +0000";
layers = (
{
layerId = "F84B2E81-E30C-4BCF-B175-C3D49BDC99D5";
name = Light;
paths = (
{
closed = 1;
nodes = (
"475 0 LINE",
"475 23 LINE SMOOTH",
"475 57 OFFCURVE",
"470 87 OFFCURVE",
"462 110 CURVE",
"444 110 LINE",
"444 31 LINE",
"97 31 LINE",
"97 37 LINE",
"468 565 LINE",
"468 610 LINE",
"83 610 LINE",
"83 587 LINE SMOOTH",
"83 552 OFFCURVE",
"89 529 OFFCURVE",
"96 506 CURVE",
"114 506 LINE",
"114 579 LINE",
"436 579 LINE",
"436 573 LINE",
"65 49 LINE",
"65 0 LINE"
);
}
);
width = 537;
}
);
note = Z;
unicode = 005A;
},
{
glyphname = Zacute;
lastChange = "2015-07-20 14:16:51 +0000";
layers = (
{
layerId = "F84B2E81-E30C-4BCF-B175-C3D49BDC99D5";
name = Light;
paths = (
{
closed = 1;
nodes = (
"475 0 LINE",
"475 23 LINE SMOOTH",
"475 57 OFFCURVE",
"470 87 OFFCURVE",
"462 110 CURVE",
"444 110 LINE",
"444 31 LINE",
"97 31 LINE",
"97 37 LINE",
"468 565 LINE",
"468 610 LINE",
"83 610 LINE",
"83 587 LINE SMOOTH",
"83 552 OFFCURVE",
"89 529 OFFCURVE",
"96 506 CURVE",
"114 506 LINE",
"114 579 LINE",
"436 579 LINE",
"436 573 LINE",
"65 49 LINE",
"65 0 LINE"
);
},
{
closed = 1;
nodes = (
"374 855 LINE",
"329 860 LINE",
"245 721 LINE",
"264 717 LINE"
);
}
);
width = 538;
}
);
note = Zacute;
unicode = 0179;
},
{
glyphname = Zcaron;
lastChange = "2015-07-20 14:16:51 +0000";
layers = (
{
layerId = "F84B2E81-E30C-4BCF-B175-C3D49BDC99D5";
name = Light;
paths = (
{
closed = 1;
nodes = (
"475 0 LINE",
"475 23 LINE SMOOTH",
"475 57 OFFCURVE",
"470 87 OFFCURVE",
"462 110 CURVE",
"444 110 LINE",
"444 31 LINE",
"97 31 LINE",
"97 37 LINE",
"468 565 LINE",
"468 610 LINE",
"83 610 LINE",
"83 587 LINE SMOOTH",
"83 552 OFFCURVE",
"89 529 OFFCURVE",
"96 506 CURVE",
"114 506 LINE",
"114 579 LINE",
"436 579 LINE",
"436 573 LINE",
"65 49 LINE",
"65 0 LINE"
);
},
{
closed = 1;
nodes = (
"293 721 LINE",
"396 852 LINE",
"374 857 LINE",
"277 750 LINE",
"271 750 LINE",
"174 857 LINE",
"152 852 LINE",
"255 721 LINE"
);
}
);
width = 538;
}
);
note = Zcaron;
unicode = 017D;
},
